<svg id="Layer_9" class="fill-primary" data-name="Layer 9" xmlns="http://www.w3.org/2000/svg" viewBox="0 0 49.12 49.12"><path class="cls-1" d="M30,13.91H19.39l-.31-2.44H30.36Zm2.17-4a1,1,0,0,0-.72-.28H18a1,1,0,0,0-.72.28.88.88,0,0,0-.28.75l.55,4.28a1,1,0,0,0,1,.81H30.93a1,1,0,0,0,1-.81l.55-4.28a.85.85,0,0,0-.27-.75"/><path class="cls-1" d="M23.2,7.6c0-.57.69-1.06,1.52-1.06S26.24,7,26.24,7.6V8h1.83V7.6c0-1.5-1.51-2.72-3.35-2.72S21.37,6.1,21.37,7.6V8H23.2Z"/><path class="cls-1" d="M38.36,11.48H35.1l-.21,1.66h2.56v28.7H12V13.14h2.6l-.22-1.66h-3.3a.89.89,0,0,0-.92.83V42.67a.89.89,0,0,0,.92.83H38.36a.89.89,0,0,0,.92-.83V12.31a.89.89,0,0,0-.92-.83"/><path class="cls-1" d="M24,36.5a.86.86,0,0,1-.7-.35l-5.05-6.67,1.41-1.07,4.16,5.51,5.92-12.65,1.61.75L24.77,36a.87.87,0,0,1-.71.5H24"/></svg>