<svg id="Layer_2" class="fill-primary" data-name="Layer 2" xmlns="http://www.w3.org/2000/svg" viewBox="0 0 49.12 49.12"><path class="cls-1" d="M33.26,23.44a1,1,0,0,1-1-1V10.65a1,1,0,0,1,1.94-.49,1,1,0,0,1,0,.49V22.47a1,1,0,0,1-1,1"/><path class="cls-1" d="M33.26,26.2a2.26,2.26,0,1,0,2.25,2.27h0a2.27,2.27,0,0,0-2.25-2.26m0,6.45a4.2,4.2,0,1,1,4.19-4.21v0a4.21,4.21,0,0,1-4.19,4.19"/><path class="cls-1" d="M24.76,16.64A2.26,2.26,0,1,0,27,18.92v0a2.25,2.25,0,0,0-2.25-2.25h0m0,6.45a4.2,4.2,0,1,1,4.2-4.2,4.2,4.2,0,0,1-4.2,4.2h0"/><path class="cls-1" d="M16.18,21.88a2.26,2.26,0,1,0,2.25,2.27h0a2.27,2.27,0,0,0-2.25-2.26m0,6.45a4.2,4.2,0,1,1,4.19-4.21v0a4.21,4.21,0,0,1-4.19,4.19"/><path class="cls-1" d="M33.26,39.82a1,1,0,0,1-1-1v-4.2a1,1,0,0,1,1.94,0v4.23a1,1,0,0,1-1,1"/><path class="cls-1" d="M16.18,39.82a1,1,0,0,1-1-1V30.58a1,1,0,0,1,1.94,0v8.27a1,1,0,0,1-1,1"/><path class="cls-1" d="M16.18,18.93a1,1,0,0,1-1-1V10.65a1,1,0,0,1,1.94-.49,1,1,0,0,1,0,.49V18a1,1,0,0,1-1,1"/><path class="cls-1" d="M24.76,39.82a1,1,0,0,1-1-1V25a1,1,0,0,1,1.94,0V38.85a1,1,0,0,1-1,1"/><path class="cls-1" d="M24.76,13.93a1,1,0,0,1-1-1V10.58a1,1,0,0,1,1.94-.49,1,1,0,0,1,0,.49V13a1,1,0,0,1-1,1"/></svg>