<svg id="Layer_6" class="fill-primary" data-name="Layer 6" xmlns="http://www.w3.org/2000/svg" viewBox="0 0 49.12 49.12"><path class="cls-1" d="M36.64,29.53a6.06,6.06,0,0,1-6.05-5.93h1.85a4.2,4.2,0,1,0,4.71-4.27H37v1.74a.45.45,0,0,1-.12.31.42.42,0,0,1-.3.12.32.32,0,0,1-.19-.05l-5.06-2.62a.43.43,0,0,1-.23-.37.44.44,0,0,1,.21-.37l4.93-2.86a.54.54,0,0,1,.21-.05.42.42,0,0,1,.42.41v1.89H37a6,6,0,1,1-.44,12.06"/><path class="cls-1" d="M24.08,31a1,1,0,0,1,1.05.95v7.68h7.79V33.26h-.07a10.69,10.69,0,0,1-6.48-13.11v-.07l-5.84-5.17L8.27,25.9V39.64h7.79V32a1,1,0,0,1,1-1h7ZM23,41.73V33.05H18.15v8.68H7.22a1,1,0,0,1-1-1V25.43a1,1,0,0,1,.34-.78L19.87,12.71a1,1,0,0,1,.69-.27,1,1,0,0,1,.7.26l6,5.33.07-.12a10.17,10.17,0,0,1,1.21-1.71l.08-.09-8.09-7-10,8.75V11.58H8.21v8.25L2.08,25.25V22.46l4-3.58V10.53a1,1,0,0,1,1-1h4.36a1,1,0,0,1,1,1v2.73l7.28-6.35a1,1,0,0,1,1.38,0L30,14.69l.08-.06A10.61,10.61,0,0,1,33.4,13a13.17,13.17,0,0,1,3.47-.5,10.71,10.71,0,0,1,.26,21.4V32.18A9,9,0,1,0,35,32.05v1.61h0v7a1,1,0,0,1-1,1Z"/></svg>