<svg id="Layer_4" class="fill-primary" data-name="Layer 4" xmlns="http://www.w3.org/2000/svg" viewBox="0 0 49.12 49.12"><path class="cls-1" d="M28.13,30a4.57,4.57,0,0,0-1.05-.75,15.11,15.11,0,0,0-1.68-.79,5.37,5.37,0,0,1-1.46-.77.91.91,0,0,1-.3-.71,1,1,0,0,1,.38-.8,1.57,1.57,0,0,1,1-.32,1.9,1.9,0,0,1,1.66,1.07l.14.22,2.08-1.06-.13-.21a4.8,4.8,0,0,0-1.25-1.44,4,4,0,0,0-1.49-.6V22.31H24v1.53a5.06,5.06,0,0,0-1.06.41A3.71,3.71,0,0,0,22,25a2.92,2.92,0,0,0-.6.92A2.83,2.83,0,0,0,21.24,27a3,3,0,0,0,.87,2.12,6.3,6.3,0,0,0,2.2,1.27c.5.21.92.41,1.25.58a6.62,6.62,0,0,1,.71.46,1.31,1.31,0,0,1,.42,1,1.45,1.45,0,0,1-.52,1.18,1.91,1.91,0,0,1-1.33.47,2,2,0,0,1-1.31-.4,3.56,3.56,0,0,1-.84-1.52l-.07-.22-2.33.44.06.25a5,5,0,0,0,1.33,2.51,4.71,4.71,0,0,0,2.39,1v1.55h2V36.11a4.37,4.37,0,0,0,2.17-1.34,3.57,3.57,0,0,0,.9-2.41,3.23,3.23,0,0,0-1-2.38"/><path class="cls-1" d="M29.6,17.38h0l-2-.56-.25.19L26,18l1.69.46c.57.16,13.74,4,9.93,21A37.48,37.48,0,0,1,19,41.37a25.16,25.16,0,0,1-6.74-2c-.08-.9-.28-3.36-.65-8.83-.55-8.18,9.17-12,9.27-12.08L22,18l-.8-.87A38.55,38.55,0,0,1,16,9.9c-.44-.9-.31-1.18-.31-1.18s.42-.31,2.69.19c2.85.62,5.15,0,7.59-.62.79-.21,1.6-.42,2.45-.6a3,3,0,0,1,2.07.18,1.92,1.92,0,0,1,.77,1.41,7.5,7.5,0,0,1-1.74,5.58l1.85.52a8.73,8.73,0,0,0,1.71-6.32A3.45,3.45,0,0,0,31.51,6.5,4.68,4.68,0,0,0,28,6.06c-.9.18-1.74.4-2.55.61-2.29.6-4.27,1.12-6.65.61-1.82-.4-3.63-.62-4.53.36s-.2,2.46,0,2.94a35.73,35.73,0,0,0,4.79,6.79,21.77,21.77,0,0,0-4.31,2.79c-3.53,2.94-5.25,6.56-5,10.45.5,7.36.68,9.24.69,9.31v.41l.38.23c.3.17,5.23,2.95,13.47,2.95a42,42,0,0,0,14.38-2.66l.46-.16.11-.44C43,24.78,33.35,19,29.6,17.38"/></svg>