<svg id="Layer_3" class="fill-primary" data-name="Layer 3" xmlns="http://www.w3.org/2000/svg" viewBox="0 0 49.12 49.12"><path class="cls-1" d="M23.35,37a.85.85,0,1,1,.88-.84.86.86,0,0,1-.88.84h0m0-3.38A2.54,2.54,0,1,0,26,36.19a2.6,2.6,0,0,0-2.64-2.54"/><path class="cls-1" d="M23.35,40a3.81,3.81,0,1,1,4-3.81,3.9,3.9,0,0,1-4,3.81h0M40.71,29.2,28.61,34a5.74,5.74,0,0,0-5.26-3.33,6.28,6.28,0,0,0-1.72.25L12.36,10.87,6.78,9.51a.88.88,0,0,0-1.07.61.84.84,0,0,0,.64,1l4.74,1.16,9,19.38a5.43,5.43,0,0,0-2.43,4.5,5.73,5.73,0,0,0,11.46,0,4.51,4.51,0,0,0,0-.52l12.34-4.91A.82.82,0,0,0,42,29.67v0a.9.9,0,0,0-1.16-.46"/><path class="cls-1" d="M24.62,29.72a.84.84,0,0,0,.48-1.07l0,0L19.89,17.2l5.87-2.4,1.32,3a.9.9,0,0,0,.81.51.86.86,0,0,0,.82-1.16v0l-1.32-3,6.75-2.77L40.34,24.8l-6.6,2.63-1.35-3A.88.88,0,0,0,31.24,24a.83.83,0,0,0-.49,1.07l0,0,1.35,3L28.55,29.5a.84.84,0,0,0-.49,1.08v0a.9.9,0,0,0,.82.53,1,1,0,0,0,.34-.07L42.69,25.7,35,9.15,17.56,16.31l5.9,13a.9.9,0,0,0,1.16.43"/></svg>