<svg id="Layer_7" class="fill-primary" data-name="Layer 7" xmlns="http://www.w3.org/2000/svg" viewBox="0 0 49.12 49.12"><path class="cls-1" d="M17.24,23v0a8.14,8.14,0,0,1,15.58-.72h2a10,10,0,0,0-19.46.55C16,22.81,16.61,22.87,17.24,23Z"/><path class="cls-1" d="M34.22,23.83v0a40.67,40.67,0,0,0-11.9,1.75,39.26,39.26,0,0,0-9.71-1.27A28.35,28.35,0,0,0,2,26.17l1.63,1.41a27,27,0,0,1,9-1.42,36.11,36.11,0,0,1,6.4.59,29.56,29.56,0,0,0-3.09,1.53,30.45,30.45,0,0,0-3.31-.18,26.16,26.16,0,0,0-7.25,1L7.1,30.6a25.57,25.57,0,0,1,5.52-.6h.66A20.66,20.66,0,0,0,10,33.06l1.4,1.21c4.3-5.09,12.93-8.59,22.86-8.59a38.8,38.8,0,0,1,12,1.85l.79-1.7A40.2,40.2,0,0,0,34.22,23.83Z"/><path class="cls-1" d="M12.87,35.55h0l1.42,1.23c3.52-4.2,11.35-7.27,20-7.27a35.27,35.27,0,0,1,10.4,1.55l.81-1.74a37.08,37.08,0,0,0-11.21-1.7C25,27.62,16.79,30.9,12.87,35.55Z"/><path class="cls-1" d="M15.72,38l1.4,1.22a10.73,10.73,0,0,1,2.49-2.16c.43.49,1.42,1.92,2,5.27L23.5,42a13.71,13.71,0,0,0-2.23-5.85,24,24,0,0,1,3.24-1.34,18.94,18.94,0,0,1,2.87,6.4l1.85-.38a21.51,21.51,0,0,0-2.79-6.56,31.13,31.13,0,0,1,3.17-.62A18.23,18.23,0,0,1,33.25,40l1.86-.38a19.58,19.58,0,0,0-3.23-6.19c.76,0,1.54-.09,2.35-.09h1.55a11.3,11.3,0,0,1,3.73,5.34l1.86-.38a13.88,13.88,0,0,0-2.59-4.7,29.18,29.18,0,0,1,4.23.89l.81-1.72a33.08,33.08,0,0,0-9.59-1.36C25.61,31.41,18.64,34.41,15.72,38Z"/><polygon class="cls-1" points="15.71 38.01 15.71 38 15.71 38 15.71 38.01"/><rect class="cls-1" x="35.44" y="18.83" width="4.39" height="1.91" transform="translate(-4.71 15.97) rotate(-22.59)"/><rect class="cls-1" x="28.24" y="11.64" width="3.98" height="1.91" transform="translate(6.64 35.31) rotate(-66.53)"/><rect class="cls-1" x="21.4" y="8.8" width="7.48" height="1.91" transform="translate(15.33 34.87) rotate(-89.88)"/><rect class="cls-1" x="31.87" y="12.79" width="8.64" height="1.91" transform="translate(0.17 27.93) rotate(-42.29)"/><rect class="cls-1" x="12.87" y="9.52" width="1.91" height="8.62" transform="translate(-5.71 14.79) rotate(-47.84)"/><rect class="cls-1" x="11.67" y="17.57" width="1.91" height="4.39" transform="translate(-10.48 23.83) rotate(-67.39)"/><rect class="cls-1" x="19.07" y="10.6" width="1.91" height="3.98" transform="translate(-3.36 9.01) rotate(-23.46)"/></svg>