<svg id="Layer_5" class="fill-primary" data-name="Layer 5" xmlns="http://www.w3.org/2000/svg" viewBox="0 0 49.12 49.12"><path class="cls-1" d="M41.45,45a1.12,1.12,0,0,0,.38-.76,1.45,1.45,0,0,0-.17-.84L31.16,30.06a1.27,1.27,0,0,0-.84-.39,1.12,1.12,0,0,0-.72.26,1,1,0,0,0-.38.7,1.2,1.2,0,0,0,.25.82l10.42,13.4a1.11,1.11,0,0,0,1.56.13M7.59,16.66a12.48,12.48,0,0,0,3.52,8.69,11.83,11.83,0,0,0,16.71.29l.29-.29a12.6,12.6,0,0,0,0-17.47,11.81,11.81,0,0,0-16.7-.3l-.3.3a12.52,12.52,0,0,0-3.52,8.73M42.84,42.43a2.68,2.68,0,0,1,.59,2,3,3,0,0,1-1,1.88,2.6,2.6,0,0,1-1.69.61,2.75,2.75,0,0,1-2.06-1L28.21,32.57A2.92,2.92,0,0,1,28,29.29l-.8-1A13.84,13.84,0,0,1,23.65,30a12.92,12.92,0,0,1-4,.63A13.35,13.35,0,0,1,10,26.54a14.27,14.27,0,0,1-4-9.88,14.12,14.12,0,0,1,4-9.9,13.38,13.38,0,0,1,18.92-.38l.38.38a14,14,0,0,1,4,9.9A13.6,13.6,0,0,1,32,22.54a14.14,14.14,0,0,1-3.48,4.67l.76,1a2.46,2.46,0,0,1,1-.21,2.73,2.73,0,0,1,2.07,1l5.27,6.7,5.23,6.7M18.13,8a.66.66,0,0,1,.59.11.84.84,0,0,1,.32.54.78.78,0,0,1-.13.61.76.76,0,0,1-.53.3A6.88,6.88,0,0,0,14.32,12a7.1,7.1,0,0,0-1.63,4.56A7.68,7.68,0,0,0,13.58,20,6.77,6.77,0,0,0,16,22.63a.81.81,0,0,1,.36.54.9.9,0,0,1-.11.62.77.77,0,0,1-.67.39.42.42,0,0,1-.42-.13,8.48,8.48,0,0,1-3-3.15,9,9,0,0,1,.91-9.9,8.58,8.58,0,0,1,5.06-3"/><path class="cls-1" d="M40.75,47.29h0a3.12,3.12,0,0,1-2.35-1.13L27.92,32.8a3.27,3.27,0,0,1-.37-3.47l-.43-.54a14.49,14.49,0,0,1-3.36,1.57,13.09,13.09,0,0,1-4.08.64h-.06a13.8,13.8,0,0,1-9.89-4.2A14.6,14.6,0,0,1,5.62,16.66,14.42,14.42,0,0,1,9.73,6.5a13.76,13.76,0,0,1,19.45-.39l.39.39a14.29,14.29,0,0,1,4.1,10.16,14,14,0,0,1-1.33,6A14.63,14.63,0,0,1,29,27.26l.38.5a2.93,2.93,0,0,1,.87-.14,3.12,3.12,0,0,1,2.36,1.14l5.28,6.71,5.21,6.73a3.06,3.06,0,0,1,.67,2.27,3.33,3.33,0,0,1-1.12,2.12A3,3,0,0,1,40.75,47.29ZM27.28,27.79l1.17,1.47-.13.22a2.54,2.54,0,0,0,.19,2.86L39,45.69a2.39,2.39,0,0,0,1.78.85h0A2.23,2.23,0,0,0,42.19,46a2.58,2.58,0,0,0,.87-1.64,2.34,2.34,0,0,0-.51-1.71h0l-5.22-6.73-5.27-6.7a2.32,2.32,0,0,0-1.78-.85,2,2,0,0,0-.83.17l-.28.12L28,27.16l.26-.23a13.7,13.7,0,0,0,3.39-4.55,13.15,13.15,0,0,0,1.26-5.72A13.51,13.51,0,0,0,29,7l-.37-.37A13,13,0,0,0,10.27,7a13.63,13.63,0,0,0-3.89,9.64,13.82,13.82,0,0,0,3.89,9.62,13,13,0,0,0,9.35,4h.06a12.26,12.26,0,0,0,3.85-.61A13.45,13.45,0,0,0,27,28ZM40.73,45.62a1.67,1.67,0,0,1-1.11-.51L29.17,31.68a1.51,1.51,0,0,1-.32-1.08,1.38,1.38,0,0,1,.52-1,1.59,1.59,0,0,1,.95-.34,1.72,1.72,0,0,1,1.11.51L42,43.17a1.87,1.87,0,0,1,.24,1.1,1.51,1.51,0,0,1-.5,1l0,0A1.64,1.64,0,0,1,40.73,45.62ZM30.29,30a.89.89,0,0,0-.46.18.69.69,0,0,0-.24.44.86.86,0,0,0,.17.56l10.43,13.4a.94.94,0,0,0,.56.25.83.83,0,0,0,.46-.16.8.8,0,0,0,.25-.5,1.14,1.14,0,0,0-.13-.63L30.87,30.29A1,1,0,0,0,30.29,30Zm-10.67-.71H19.4a12.13,12.13,0,0,1-8.56-3.72,13,13,0,0,1,0-18c.1-.11.2-.21.31-.31a12.19,12.19,0,0,1,17.23.31,12.94,12.94,0,0,1,0,18l-.3.3A12.11,12.11,0,0,1,19.62,29.33Zm0-24.68a11.4,11.4,0,0,0-7.94,3.2l-.29.29A12.13,12.13,0,0,0,8,16.66H8a12.07,12.07,0,0,0,3.42,8.43,11.45,11.45,0,0,0,16.18.28c.1-.09.19-.19.28-.28a12.19,12.19,0,0,0,0-16.95A11.4,11.4,0,0,0,19.61,4.65ZM15.45,24.57a.85.85,0,0,1-.53-.22,8.9,8.9,0,0,1-3.09-3.27,9.34,9.34,0,0,1,.95-10.31A9,9,0,0,1,18,7.64a1,1,0,0,1,.91.18,1.17,1.17,0,0,1,.46.77,1.14,1.14,0,0,1-.2.89,1.11,1.11,0,0,1-.79.45,6.54,6.54,0,0,0-3.81,2.31,6.81,6.81,0,0,0-1.55,4.32,7.32,7.32,0,0,0,.85,3.3,6.35,6.35,0,0,0,2.29,2.45,1.21,1.21,0,0,1,.53.79,1.27,1.27,0,0,1-.16.89,1.09,1.09,0,0,1-1,.57Zm0-.78.1,0h0a.38.38,0,0,0,.33-.2.5.5,0,0,0,.07-.37.46.46,0,0,0-.19-.3,7.17,7.17,0,0,1-2.55-2.72,8.18,8.18,0,0,1-.94-3.65A7.57,7.57,0,0,1,14,11.76a7.34,7.34,0,0,1,4.28-2.57.4.4,0,0,0,.3-.15.38.38,0,0,0,.06-.31.45.45,0,0,0-.18-.32.25.25,0,0,0-.25-.05h0a8.25,8.25,0,0,0-4.84,2.87,8.61,8.61,0,0,0-.87,9.48,8,8,0,0,0,2.87,3l.08.07Z"/></svg>