<svg id="Layer_8" class="fill-primary" data-name="Layer 8" xmlns="http://www.w3.org/2000/svg" viewBox="0 0 49.12 49.12"><path class="cls-1" d="M31.24,20l.93-1.87A17,17,0,0,0,26,16.51V14.26H24.14v2.22c-3.51.19-6.06,1.76-6.64,4l2.27,0c.63-1.08,2.25-1.83,4.38-2v5c-2.47.12-3.64-.41-4.17-.9a1.81,1.81,0,0,1-.4-.55H17.42a3.64,3.64,0,0,0,1.07,2c1.16,1.14,3.08,1.65,5.69,1.53l0,4.91a12.29,12.29,0,0,1-5.38-1.64l-1,1.83a14.55,14.55,0,0,0,6.38,2v2.45H26V32.72c4-.23,6.48-1.65,6.88-4H30.65c-.6,1.32-3.11,1.71-4.63,1.83l0-5a6.86,6.86,0,0,1,4.21,1.16,2.08,2.08,0,0,1,.32.4h2.24a3.78,3.78,0,0,0-1.14-1.93h0c-1.52-1.41-4-1.7-5.64-1.72V18.62A15.07,15.07,0,0,1,31.24,20Z"/><path class="cls-1" d="M13,29.34V11.93H24.27V10.39H11.39V27.83H3.77a.29.29,0,0,0-.28.31.28.28,0,0,0,.13.24L24.26,40.83V39l-16-9.66Z"/><path class="cls-1" d="M46.67,28a.29.29,0,0,0-.24-.13H38.81V10.39H26v1.54H37.27V29.37H42L25.94,39v1.8L46.58,28.38A.31.31,0,0,0,46.67,28Z"/></svg>