<svg id="Layer_1" class="fill-primary" data-name="Layer 1" xmlns="http://www.w3.org/2000/svg" viewBox="0 0 49.1 49.1"><path class="cls-1" d="M17,14.3a7.07,7.07,0,0,1,6.9-7h1.4a6.91,6.91,0,0,1,6.9,6.9v6.2h1.9V14.2a8.88,8.88,0,0,0-8.8-8.8H23.9a8.83,8.83,0,0,0-8.8,8.9v6.1H17Z"/><path class="cls-1" d="M30.1,20.5V14.8a5.23,5.23,0,0,0-5.2-5.2h-.5a5.23,5.23,0,0,0-5.2,5.2v5.7h1.9V14.8a3.37,3.37,0,0,1,3.4-3.4H25a3.37,3.37,0,0,1,3.4,3.4v5.7Z"/><path class="cls-1" d="M22.3,36.3a2.3,2.3,0,0,0,4.6,0V32.7a3.37,3.37,0,0,0,1.2-2.6,3.5,3.5,0,0,0-7,0,3.22,3.22,0,0,0,1.2,2.6Zm2.3-7.8a1.58,1.58,0,0,1,1.6,1.6,1.44,1.44,0,0,1-.8,1.3l-.4.3v4.6a.4.4,0,0,1-.8,0V31.7l-.4-.3a1.83,1.83,0,0,1-.8-1.3A1.58,1.58,0,0,1,24.6,28.5Z"/><path class="cls-1" d="M37.3,22.5H12.1A1.11,1.11,0,0,0,11,23.6v13h.1a2.35,2.35,0,0,0,.2.8,7.08,7.08,0,0,0,7,5.1H31.2a7.2,7.2,0,0,0,7-5.1,5.54,5.54,0,0,0,.2-1.8v-12h0A1.11,1.11,0,0,0,37.3,22.5Zm-.7,6.2v6.9a5,5,0,0,1-.2,1.2,5.37,5.37,0,0,1-5.2,3.8h-13A5.25,5.25,0,0,1,13,36.8a5,5,0,0,1-.2-1.2V24.4H36.5v4.3Z"/></svg>