<svg width="70" height="70" viewBox="0 0 76 74" fill="none" xmlns="http://www.w3.org/2000/svg">
<path class="fill-primary" d="M74.5193 46.9082C73.6322 46.0704 72.6219 45.6022 71.4884 45.5036C70.4041 45.405 69.2952 45.5529 68.1617 45.9472C68.0139 45.6515 67.5457 45.134 66.7571 44.3947C66.0179 43.6555 64.8597 43.2366 63.2826 43.138C62.5434 43.1873 61.7302 43.3598 60.8431 43.6555C60.0052 43.9512 59.1428 44.3454 58.2557 44.8383C57.3686 43.7048 56.3336 43.0394 55.1508 42.8423C54.313 42.7437 53.5737 42.8176 52.933 43.0641C52.3416 43.3105 51.9473 43.5076 51.7502 43.6555L39.4785 50.3827C38.0493 50.1363 36.7186 49.8652 35.4865 49.5695C34.2544 49.2245 33.2441 48.8796 32.4556 48.5346C31.5685 48.091 30.4349 47.3025 29.055 46.1689C27.2315 44.7397 25.1123 43.3844 22.6974 42.103C20.3317 40.7724 17.7197 40.2795 14.8612 40.6245C10.9678 41.3145 7.69043 42.3248 5.0291 43.6555C2.41706 44.9369 0.987827 45.6761 0.741408 45.8732C0.494988 46.0704 0.347137 46.3414 0.297853 46.6864C0.248569 46.9821 0.322495 47.2778 0.51963 47.5735C0.716766 47.8692 0.963185 48.0417 1.25889 48.091C1.55459 48.1403 1.85029 48.0664 2.146 47.8692C2.29385 47.7214 3.59987 47.0314 6.06406 45.7993C8.52826 44.5672 11.5839 43.6308 15.2309 42.9901C17.6458 42.7437 19.8882 43.1873 21.9581 44.3208C24.0773 45.4543 25.9994 46.7111 27.7243 48.091C29.1535 49.2738 30.4103 50.1363 31.4945 50.6784C33.7616 51.6148 36.7679 52.3787 40.5135 52.9701C44.3083 53.5122 47.3146 53.7094 49.5324 53.5615C49.9267 53.5122 50.2224 53.5615 50.4195 53.7094C50.666 53.8572 50.8631 54.0051 51.0109 54.1529C51.4052 54.7936 51.4545 55.459 51.1588 56.1489C50.7152 57.0853 49.6803 57.6274 48.0539 57.7753C45.0476 58.071 41.4252 58.0956 37.1868 57.8492C32.9977 57.6028 28.5868 56.3461 23.9541 54.079C23.6584 53.9312 23.3627 53.9065 23.067 54.0051C22.7713 54.1036 22.5249 54.3254 22.3277 54.6704C22.1799 54.9661 22.1552 55.2618 22.2538 55.5575C22.3524 55.8532 22.5742 56.075 22.9191 56.2229C26.3197 57.9478 29.5971 59.106 32.7513 59.6974C35.9547 60.2395 38.9364 60.5105 41.6963 60.5105C44.2098 60.4613 46.4275 60.3381 48.3496 60.1409C49.976 59.9931 51.1588 59.6234 51.898 59.032C52.6866 58.3913 53.1794 57.7753 53.3766 57.1839C53.7215 56.4939 53.8448 55.7547 53.7462 54.9661C53.6969 54.1776 53.4505 53.463 53.0069 52.8223C52.0705 51.6395 50.8384 51.0973 49.3106 51.1959C48.67 51.2945 47.8568 51.3191 46.8711 51.2698C45.8854 51.2205 44.8012 51.122 43.6184 50.9741L53.3026 45.7254C53.3026 45.6761 53.4505 45.6022 53.7462 45.5036C54.0912 45.3558 54.4854 45.3311 54.929 45.4297C55.4218 45.479 55.9147 45.7254 56.4075 46.1689C55.619 46.7111 54.9783 47.1793 54.4854 47.5735L53.4505 48.3128C53.1548 48.5099 52.9823 48.781 52.933 49.126C52.933 49.4217 53.0316 49.7174 53.2287 50.0131C53.4751 50.3088 53.7955 50.4566 54.1897 50.4566C54.4362 50.4566 54.6826 50.3581 54.929 50.1609C56.1118 49.2245 57.541 48.2882 59.2167 47.3518C60.9416 46.3661 62.3709 45.824 63.5044 45.7254C64.2437 45.7747 64.8351 45.9472 65.2786 46.2429C65.7222 46.5386 66.0179 46.785 66.1657 46.9821C64.7858 47.7214 63.5783 48.4606 62.5434 49.1999C61.5577 49.9392 60.917 50.432 60.6213 50.6784C60.3749 50.9248 60.227 51.2205 60.1777 51.5655C60.1777 51.9105 60.2763 52.2062 60.4734 52.4526C60.6706 52.6991 60.9416 52.8469 61.2866 52.8962C61.6316 52.8962 61.9273 52.7976 62.1737 52.6005C63.3565 51.5162 65.1061 50.3581 67.4225 49.126C69.7881 47.8446 71.6609 47.7214 73.0408 48.7563C73.2872 49.0521 73.4351 49.2985 73.4844 49.4956C73.5337 49.6927 73.5583 49.8406 73.5583 49.9392C73.4597 50.5799 72.9423 51.2945 72.0059 52.083C71.1187 52.8223 69.9359 53.5369 68.4574 54.2269C67.6196 54.6704 66.3136 55.459 64.5394 56.5925C62.8144 57.726 60.8923 59.0074 58.7731 60.4366C56.7032 61.8166 54.7319 63.1226 52.8591 64.3547C50.9863 65.5375 49.4585 66.4739 48.2757 67.1639C47.7828 67.4103 47.3146 67.706 46.8711 68.051C44.7026 69.5295 42.2384 70.6137 39.4785 71.3037C36.7186 71.9937 33.1455 71.4516 28.7593 69.6773C23.0916 67.361 18.385 66.0057 14.6395 65.6114C10.8939 65.2172 7.66579 65.2664 4.95518 65.7593C4.61019 65.8086 4.33913 65.9811 4.14199 66.2768C3.94486 66.5232 3.87093 66.8189 3.92022 67.1639C3.9695 67.4596 4.11735 67.706 4.36377 67.9031C4.65947 68.1003 4.95518 68.1742 5.25088 68.1249C7.81364 67.6813 10.8692 67.6567 14.4177 68.051C17.9661 68.4452 22.4263 69.7266 27.7982 71.8951C31.2481 73.2751 34.2544 73.9404 36.8172 73.8911C39.2321 73.8418 41.3267 73.4229 43.1009 72.6344C44.9244 71.8458 46.5754 70.9834 48.0539 70.047C48.4975 69.7513 48.9657 69.4802 49.4585 69.2338C50.6906 68.5438 52.2677 67.5828 54.1897 66.3507C56.1118 65.1186 58.0832 63.8126 60.1038 62.4326C62.1737 61.0527 64.0712 59.8206 65.7961 58.7363C67.521 57.6028 68.7778 56.8389 69.5663 56.4446C70.9955 55.7547 72.3508 54.8922 73.6322 53.8572C74.9136 52.8223 75.7021 51.6641 75.9979 50.3827C75.9486 49.8899 75.8254 49.3478 75.6282 48.7563C75.4804 48.1649 75.1107 47.5489 74.5193 46.9082ZM38.5175 40.9202C44.2837 40.7724 49.0642 38.801 52.8591 35.0062C56.6539 31.162 58.6253 26.3815 58.7731 20.6646C58.6253 14.9476 56.6539 10.1917 52.8591 6.39688C49.0642 2.55274 44.2837 0.556741 38.5175 0.40889C32.8006 0.556741 28.02 2.55274 24.1759 6.39688C20.381 10.1917 18.4097 14.9476 18.2618 20.6646C18.4097 26.3815 20.381 31.162 24.1759 35.0062C28.02 38.801 32.8006 40.7724 38.5175 40.9202ZM38.5175 2.77451C43.5937 2.92237 47.8075 4.67194 51.1588 8.02324C54.5101 11.3745 56.2597 15.5883 56.4075 20.6646C56.2597 25.7408 54.5101 29.9546 51.1588 33.3059C47.8075 36.6572 43.5937 38.4067 38.5175 38.5546C33.4905 38.4067 29.2768 36.6572 25.8762 33.3059C22.5249 29.9546 20.7999 25.7408 20.7014 20.6646C20.7999 15.5883 22.5249 11.3745 25.8762 8.02324C29.2768 4.67194 33.4905 2.92237 38.5175 2.77451ZM38.3696 21.8474C41.0802 22.2416 42.8791 22.6605 43.7662 23.1041C44.7026 23.5477 45.1462 24.2623 45.0969 25.248C44.949 26.5293 44.2098 27.3672 42.8791 27.7614C41.5484 28.1064 40.5135 28.2543 39.7742 28.205C37.8029 28.1064 36.1026 27.7368 34.6733 27.0961C33.2441 26.4554 32.4802 26.0858 32.3816 25.9872C32.0859 25.8394 31.7902 25.8147 31.4945 25.9133C31.1988 25.9626 30.9524 26.1351 30.7553 26.4308C30.5581 26.7265 30.4842 27.0222 30.5335 27.3179C30.6321 27.6136 30.8292 27.86 31.1249 28.0571C31.2235 28.1557 31.8395 28.476 32.973 29.0182C34.1559 29.5603 35.6097 30.0285 37.3347 30.4228V35.3758C37.3347 35.6715 37.4579 35.9425 37.7043 36.189C37.9507 36.4354 38.2218 36.5586 38.5175 36.5586C38.8625 36.5586 39.1335 36.4354 39.3307 36.189C39.5771 35.9425 39.7249 35.6715 39.7742 35.3758V30.5706C42.5834 30.5213 44.5794 29.9792 45.7622 28.9442C46.945 27.86 47.5118 26.6279 47.4625 25.248C47.3639 23.0302 46.4522 21.5763 44.7272 20.8863C43.0516 20.1964 41.031 19.7282 38.6653 19.4817C37.1868 19.2846 35.8069 18.9396 34.5255 18.4468C33.2441 17.9539 32.5541 17.2393 32.4556 16.3029C32.4556 15.9579 32.5049 15.5883 32.6034 15.194C32.7513 14.7998 32.973 14.4301 33.2688 14.0852C34.1559 13.1488 35.5851 12.6806 37.5564 12.6806C39.8728 12.7791 41.6224 13.1488 42.8052 13.7895C43.988 14.3809 44.604 14.7505 44.6533 14.8983C44.8997 15.1448 45.1708 15.268 45.4665 15.268C45.8115 15.2187 46.1072 15.0708 46.3536 14.8244C46.6 14.578 46.6986 14.3069 46.6493 14.0112C46.6493 13.6662 46.5261 13.3952 46.2797 13.198C46.2304 13.0502 45.639 12.6559 44.5055 12.0152C43.4212 11.3253 41.7949 10.8078 39.6264 10.4628V6.4708C39.6264 6.12582 39.5032 5.85476 39.2567 5.65762C39.0596 5.4112 38.7885 5.28799 38.4436 5.28799C38.1479 5.28799 37.8768 5.4112 37.6304 5.65762C37.384 5.85476 37.2607 6.12582 37.2607 6.4708V10.3889C34.698 10.4382 32.7759 11.1035 31.4945 12.3849C30.5089 13.4198 30.016 14.7258 30.016 16.3029C30.1639 19.2107 32.9484 21.0588 38.3696 21.8474Z" fill="#FBA61B"/>
</svg>
