<svg width="88" height="88" viewBox="0 0 88 88" fill="none" xmlns="http://www.w3.org/2000/svg">
<path class="fill-primary" opacity="0.35" fill-rule="evenodd" clip-rule="evenodd" d="M64.146 27.4355L64.2442 27.3374L62.5101 25.6036V12.7947H55.1406V18.2351L48.2949 11.3904L32.3457 27.3374L32.444 27.4355V63.7081H64.146V27.4355Z"/>
<path class="fill-primary" d="M53.4709 33.3269H43.1172V47.8964H53.4709V33.3269Z"/>
<path d="M80.474 59.9393L56.9416 74.8108C54.576 76.3047 51.7511 76.8978 48.9858 76.48L21.1925 72.2806C19.7638 72.0655 18.3025 72.3855 17.0944 73.1795L14.7488 74.7222L8.17835 61.8436L5.45117 56.4977C7.44601 55.2679 9.29069 53.8229 10.9508 52.1898C12.611 50.5585 14.0886 48.7392 15.351 46.7642C17.5682 43.2954 21.4131 41.1595 25.5294 41.2356C26.4662 41.2537 27.4048 41.3531 28.3326 41.5395L32.3964 42.3534V42.3553L53.1329 46.5112C55.048 46.8964 56.3574 48.5765 56.3574 50.4412C56.3574 50.7614 56.3175 51.0868 56.238 51.4106C55.7189 53.4995 53.6861 54.8413 51.563 54.4959L36.0278 51.9712C35.8215 51.9387 35.619 51.9223 35.4165 51.9223C33.5031 51.9223 31.8465 53.3818 31.6675 55.3531C31.4884 57.3152 32.8503 59.0823 34.7926 59.4113L52.6861 62.4424C54.2758 62.7119 55.9107 62.4333 57.3232 61.654L75.5314 51.5859C76.2746 51.1754 77.0795 50.9801 77.877 50.9801C79.4848 50.9801 81.0509 51.7795 81.9732 53.2245C83.4201 55.4921 82.7473 58.5034 80.474 59.9393Z" fill="#4770AC"/>
<path d="M80.474 59.9393L56.9416 74.8108C54.576 76.3047 51.7511 76.8978 48.9858 76.48L21.1925 72.2806C19.7638 72.0655 18.3025 72.3855 17.0944 73.1795L14.7488 74.7222L8.17835 61.8436L5.45117 56.4977C7.44601 55.2679 9.29069 53.8229 10.9508 52.1898C12.611 50.5585 14.0886 48.7392 15.351 46.7642C17.5682 43.2954 21.4131 41.1595 25.5294 41.2356C26.4662 41.2537 27.4048 41.3531 28.3326 41.5395L32.3964 42.3534V42.3553L53.1329 46.5112C55.048 46.8964 56.3574 48.5765 56.3574 50.4412C56.3574 50.7614 56.3175 51.0868 56.238 51.4106C55.7189 53.4995 53.6861 54.8413 51.563 54.4959L36.0278 51.9712C35.8215 51.9387 35.619 51.9223 35.4165 51.9223C33.5031 51.9223 31.8465 53.3818 31.6675 55.3531C31.4884 57.3152 32.8503 59.0823 34.7926 59.4113L52.6861 62.4424C54.2758 62.7119 55.9107 62.4333 57.3232 61.654L75.5314 51.5859C76.2746 51.1754 77.0795 50.9801 77.877 50.9801C79.4848 50.9801 81.0509 51.7795 81.9732 53.2245C83.4201 55.4921 82.7473 58.5034 80.474 59.9393Z" fill="white" fill-opacity="0.85"/>
<path fill-rule="evenodd" clip-rule="evenodd" d="M32.3964 42.3551V42.3533L28.3326 41.5395C27.4048 41.3531 26.4662 41.2537 25.5294 41.2356C21.4131 41.1595 17.5682 43.2954 15.351 46.7642C14.0886 48.7392 12.611 50.5585 10.9508 52.1898C9.29069 53.8229 7.44601 55.2679 5.45117 56.4977L8.17835 61.8436C11.5676 59.3171 14.9604 56.1071 17.1125 52.3146C22.8094 42.2792 32.3964 42.3551 32.3964 42.3551ZM65.1874 49.1626L57.6895 61.4505L74.1419 52.3547C74.4142 50.3888 73.4552 48.3766 71.5958 47.3973C70.876 47.018 70.1008 46.8357 69.3369 46.8357C67.6947 46.8357 66.0986 47.6715 65.1874 49.1626Z" fill="#4770AC"/>
<path fill-rule="evenodd" clip-rule="evenodd" d="M32.3964 42.3551V42.3533L28.3326 41.5395C27.4048 41.3531 26.4662 41.2537 25.5294 41.2356C21.4131 41.1595 17.5682 43.2954 15.351 46.7642C14.0886 48.7392 12.611 50.5585 10.9508 52.1898C9.29069 53.8229 7.44601 55.2679 5.45117 56.4977L8.17835 61.8436C11.5676 59.3171 14.9604 56.1071 17.1125 52.3146C22.8094 42.2792 32.3964 42.3551 32.3964 42.3551ZM65.1874 49.1626L57.6895 61.4505L74.1419 52.3547C74.4142 50.3888 73.4552 48.3766 71.5958 47.3973C70.876 47.018 70.1008 46.8357 69.3369 46.8357C67.6947 46.8357 66.0986 47.6715 65.1874 49.1626Z" fill="white" fill-opacity="0.5"/>
<path d="M26.7415 34.7657L30.9919 30.5153V38.2585C30.9919 39.0076 31.5991 39.6149 32.3483 39.6149C33.0975 39.6149 33.7047 39.0076 33.7047 38.2585V27.8027L48.1997 13.3076L54.0854 19.1933C54.0864 19.1942 62.6948 27.8027 62.6948 27.8027V43.8298C62.6948 44.5788 63.302 45.1862 64.0512 45.1862C64.8004 45.1862 65.4076 44.5788 65.4076 43.8298V30.5155L69.6577 34.7656C69.9227 35.0304 70.2699 35.1629 70.6169 35.1629C70.964 35.1629 71.3111 35.0306 71.5761 34.7656C72.1058 34.2359 72.1058 33.377 71.5761 32.8475L63.7718 25.0431V12.7946C63.7718 12.0455 63.1646 11.4382 62.4154 11.4382H55.0459C54.2967 11.4382 53.6895 12.0455 53.6895 12.7946V14.961L49.1587 10.4302C48.6289 9.90054 47.7701 9.90054 47.2405 10.4302L24.823 32.8476C24.2934 33.3773 24.2934 34.2362 24.823 34.7657C25.3529 35.2954 26.2115 35.2954 26.7415 34.7657ZM56.4021 14.151H61.0588V22.3305L56.4021 17.6738V14.151Z" fill="#3A455F"/>
<path d="M53.3774 43.544C54.1267 43.544 54.7338 42.9366 54.7338 42.1876V33.3264C54.7338 32.5773 54.1267 31.97 53.3774 31.97H43.0244C42.2752 31.97 41.668 32.5773 41.668 33.3264V40.5601C41.668 41.3092 42.2752 41.9165 43.0244 41.9165C43.7736 41.9165 44.3808 41.3092 44.3808 40.5601V34.6828H52.021V42.1876C52.021 42.9368 52.6282 43.544 53.3774 43.544Z" fill="#3A455F"/>
<path d="M83.0226 52.4942C81.3595 49.8874 78.0331 48.9235 75.2562 50.1636C74.8297 48.4936 73.7167 47.0305 72.1336 46.1966C71.2422 45.7271 70.2423 45.4788 69.2427 45.4788C67.0584 45.4788 65.0745 46.5914 63.9353 48.4555L56.6238 60.4375L56.5726 60.4659C55.4341 61.0951 54.101 61.3219 52.8187 61.105L34.9255 58.0741C33.6898 57.8648 32.8108 56.7231 32.9237 55.4748C32.9848 54.8002 33.3133 54.1999 33.8487 53.7845C34.3841 53.3692 35.0469 53.2002 35.7161 53.3091L51.2509 55.8336C54.0508 56.2888 56.7768 54.4888 57.4599 51.7371C57.8163 50.3007 57.5766 48.8211 56.7844 47.5711C55.9921 46.321 54.7568 45.4724 53.3057 45.1816L28.5056 40.2098C27.505 40.0091 26.4803 39.898 25.4603 39.8793C20.938 39.7969 16.5941 42.1546 14.1144 46.0335C11.7146 49.7874 8.4404 53.0061 4.64573 55.3413C4.00792 55.7339 3.8087 56.5694 4.20136 57.2073C4.59417 57.8455 5.42932 58.0444 6.06744 57.6517C10.2082 55.1034 13.7812 51.5914 16.4002 47.4947C18.3422 44.4569 21.7114 42.5901 25.2286 42.5901C25.2891 42.5901 25.3502 42.5905 25.4105 42.5916C26.2686 42.6074 27.1306 42.7008 27.9725 42.8696L52.7724 47.8414C53.4902 47.9853 54.1013 48.4052 54.493 49.0233C54.8849 49.6414 55.0033 50.3732 54.8272 51.0838C54.4816 52.476 53.1005 53.386 51.6863 53.1561L36.1515 50.6316C34.7511 50.4039 33.3067 50.7721 32.1864 51.6411C31.0663 52.5102 30.3502 53.8181 30.2222 55.2303C29.9822 57.8803 31.8494 60.3045 34.4728 60.7489L52.3659 63.7798C54.2507 64.0992 56.2116 63.7656 57.8855 62.8401L76.0937 52.7733C77.7059 51.882 79.7448 52.4002 80.7359 53.9533C81.2401 54.7436 81.4053 55.6827 81.2009 56.5973C80.9967 57.5123 80.4478 58.2917 79.6553 58.7925L56.1238 73.6638C54.0346 74.984 51.5388 75.5081 49.0948 75.1387L35.0334 73.0145C34.2914 72.9032 33.6016 73.4126 33.4897 74.1531C33.378 74.8937 33.8875 75.5849 34.6283 75.6968L48.6896 77.8212C49.3352 77.9187 49.9838 77.967 50.6302 77.967C53.0748 77.967 55.4851 77.277 57.5733 75.9573L81.1051 61.0859C82.5118 60.1969 83.4863 58.8128 83.849 57.1886C84.2117 55.5644 83.9179 53.8972 83.0226 52.4942ZM66.2508 49.8694C66.8928 48.8188 68.0113 48.1916 69.2428 48.1916C69.8041 48.1916 70.3664 48.3316 70.8695 48.5968C71.9775 49.1803 72.6744 50.3114 72.7309 51.5327L61.42 57.7859L66.2508 49.8694Z" fill="#3A455F"/>
<path d="M30.4444 72.3208L21.3021 70.9395C19.5383 70.673 17.7463 71.0661 16.2562 72.0464L13.9101 73.5892C13.2842 74.0008 13.1106 74.8419 13.522 75.4677C13.7826 75.8639 14.2154 76.0789 14.6565 76.0789C14.9123 76.0789 15.171 76.0067 15.4005 75.8556L17.7466 74.3128C18.6769 73.7009 19.7949 73.4555 20.8969 73.622L30.0392 75.0031C30.7791 75.1144 31.4711 74.6053 31.583 73.8647C31.6947 73.1239 31.185 72.4328 30.4444 72.3208Z" fill="#3A455F"/>
</svg>
