<svg width="45" height="44" viewBox="0 0 45 44" fill="none" xmlns="http://www.w3.org/2000/svg">
<path class="fill-primary" fill-rule="evenodd" clip-rule="evenodd" d="M43.7003 36.1044C43.4085 35.6522 43.0603 35.2522 42.6652 34.9157L38.6498 31.4135C38.6185 31.3664 38.5822 31.3217 38.5407 31.2802C38.4709 31.2105 38.3919 31.1561 38.3078 31.1153L35.8795 28.9974L24.6397 19.1927C25.0998 18.7117 25.3532 18.0827 25.3532 17.4139C25.3532 16.7248 25.085 16.0773 24.5975 15.5899C24.3848 15.3775 24.1432 15.2105 23.8849 15.0883L24.9248 14.0484C25.2154 14.1257 25.5141 14.1652 25.813 14.1652C26.693 14.1651 27.5732 13.8301 28.2432 13.1602C28.8927 12.5107 29.2504 11.6475 29.2504 10.7294C29.2504 9.81135 28.8927 8.94811 28.2433 8.29868L20.9516 1.00722C20.3022 0.357794 19.4389 0.00012207 18.5206 0.00012207C17.6027 0.00012207 16.7396 0.357794 16.0902 1.00722C15.1927 1.90475 14.8973 3.17912 15.202 4.3257L4.82719 14.7004C4.5405 14.6242 4.24221 14.584 3.93748 14.584C3.01898 14.584 2.15608 14.9414 1.50716 15.5902C0.166883 16.9305 0.166883 19.1113 1.50716 20.4517L8.7987 27.7433C9.46893 28.4135 10.3492 28.7485 11.2294 28.7485C12.1098 28.7485 12.99 28.4135 13.6603 27.7433C14.5578 26.8457 14.8533 25.5714 14.5485 24.4248L15.5862 23.3871C15.7109 23.6475 15.8801 23.8877 16.0903 24.0979C16.5772 24.5848 17.2246 24.853 17.9135 24.853C18.5817 24.853 19.2104 24.6001 19.6921 24.1405L31.6637 37.8951C31.6967 37.9467 31.7352 37.9958 31.7802 38.0408C31.7956 38.0562 31.8119 38.0702 31.8281 38.0841L35.3955 42.1828C35.4842 42.2875 35.579 42.3904 35.6774 42.4888C36.6571 43.4683 37.9513 43.9998 39.31 43.9998C39.5495 43.9998 39.7912 43.9833 40.0333 43.9498C41.6514 43.7258 43.0499 42.7578 43.8699 41.2936C44.7682 39.6889 44.7013 37.6516 43.7003 36.1044ZM17.3057 2.22255C17.6304 1.89779 18.062 1.71887 18.5206 1.71887C18.9799 1.71887 19.4117 1.89779 19.7364 2.22255L27.028 9.51409C27.3528 9.83885 27.5316 10.2705 27.5316 10.7295C27.5316 11.1885 27.3528 11.6202 27.0279 11.9449C26.3581 12.615 25.2679 12.615 24.598 11.9449L17.3061 4.65304L17.3057 4.65261C16.6356 3.98264 16.6356 2.89252 17.3057 2.22255ZM12.4449 26.528C11.7748 27.1981 10.6842 27.1982 10.014 26.528L2.72249 19.2365C2.05227 18.5662 2.05227 17.4759 2.72249 16.8055C3.04665 16.4813 3.47823 16.3027 3.93748 16.3027C4.39664 16.3027 4.82796 16.4812 5.15203 16.8052L12.4449 24.098C13.115 24.7679 13.115 25.8581 12.4449 26.528ZM16.0631 20.4797L13.6602 22.8827L6.36787 15.5904L16.0902 5.86785L23.3825 13.1602L20.9752 15.5675L20.9747 15.568L20.9746 15.5681C20.967 15.5753 20.9595 15.5824 20.9515 15.5903L16.0927 20.4491C16.0864 20.4553 16.0803 20.4617 16.0741 20.4681L16.0631 20.4797ZM19.1316 22.2725L19.1265 22.2775L18.5213 22.8827C18.359 23.0449 18.1432 23.1343 17.9134 23.1343C17.6837 23.1343 17.4678 23.0449 17.3056 22.8826C17.1431 22.7202 17.0536 22.5041 17.0536 22.2743C17.0536 22.0493 17.1395 21.8376 17.2953 21.6779L22.1766 16.7966C22.5111 16.4712 23.052 16.4753 23.3826 16.8055C23.5451 16.968 23.6345 17.184 23.6345 17.4139C23.6345 17.6436 23.5453 17.8591 23.3826 18.0214L22.7809 18.623L22.7686 18.6353L19.1316 22.2725ZM20.9112 22.9234L23.4228 20.4118L34.0569 29.6875L30.1764 33.568L20.9112 22.9234ZM31.3075 34.8675L35.355 30.8199L36.6533 31.9523L32.4385 36.1672L31.3075 34.8675ZM42.3704 40.454C41.8157 41.4443 40.8781 42.0978 39.7977 42.2473C38.7199 42.3965 37.6609 42.0415 36.8924 41.2734C36.8264 41.2074 36.7631 41.1386 36.7042 41.0688L36.6958 41.0591L33.5694 37.4667L37.9515 33.0846L41.5393 36.2142L41.5476 36.2213C41.8162 36.4497 42.0545 36.7239 42.2567 37.0372C42.9065 38.0414 42.9521 39.4147 42.3704 40.454ZM9.40631 14.9828C9.74138 14.6477 10.2862 14.6477 10.6214 14.9828C10.9573 15.3188 10.9573 15.8628 10.6214 16.198C10.2863 16.534 9.74146 16.534 9.40631 16.198C9.07029 15.8628 9.07029 15.3188 9.40631 14.9828ZM22.843 36.694C22.843 37.3441 22.6382 37.9624 22.2593 38.4757C23.6266 39.1955 24.5616 40.63 24.5616 42.2797V43.1391C24.5616 43.6137 24.1768 43.9984 23.7023 43.9984H1.35938C0.884828 43.9984 0.5 43.6137 0.5 43.1391V42.2797C0.5 40.6293 1.43595 39.1941 2.80433 38.4746C2.4366 37.9758 2.21866 37.3599 2.21866 36.694C2.21866 35.8902 2.53148 35.1349 3.09952 34.5671C3.66731 33.9991 4.42262 33.6863 5.22639 33.6863H19.8353C21.4938 33.6863 22.843 35.0356 22.843 36.694ZM5.22639 35.4049C4.88187 35.4049 4.55805 35.5388 4.31477 35.7822C4.07139 36.0256 3.93741 36.3494 3.93741 36.6939C3.93741 37.4046 4.5156 37.9829 5.22639 37.9829H19.8352C20.1797 37.9829 20.5035 37.8489 20.7468 37.6055C20.9902 37.3622 21.1242 37.0384 21.1242 36.6938C21.1242 35.9831 20.546 35.4049 19.8353 35.4049H5.22639ZM4.7967 39.7016C3.37521 39.7016 2.21866 40.8582 2.21866 42.2797H22.843C22.843 40.8582 21.6864 39.7016 20.2649 39.7016H19.8353H5.22639H4.7967ZM15.4818 8.90623C15.8175 8.57064 16.3615 8.57064 16.6972 8.90623C17.0327 9.2419 17.0327 9.78597 16.6972 10.1215L13.051 13.7676C12.8832 13.9354 12.6633 14.0193 12.4433 14.0193C12.2234 14.0193 12.0035 13.9355 11.8357 13.7676C11.5001 13.4321 11.5001 12.888 11.8357 12.5524L15.4818 8.90623Z" />
</svg>
