<svg width="51" height="34" viewBox="0 0 51 34" fill="none" xmlns="http://www.w3.org/2000/svg">
<path class="fill-primary" fill-rule="evenodd" clip-rule="evenodd" d="M17.2324 16.8842C17.2324 7.55934 24.7918 0 34.1167 0C43.4416 0 51.0009 7.55934 51.0009 16.8842C51.0009 26.2091 43.4416 33.7685 34.1167 33.7685C24.7918 33.7685 17.2324 26.2091 17.2324 16.8842ZM32.345 18.9824L39.4413 23.8184L40.8838 21.7017L34.9063 17.6283V8.62078H32.345V18.9824ZM6.94671 10.4807H13.3887C14.096 10.4807 14.6694 11.0541 14.6694 11.7614C14.6694 12.4687 14.096 13.0421 13.3887 13.0421H6.94671C6.2394 13.0421 5.66602 12.4687 5.66602 11.7614C5.66602 11.0541 6.2394 10.4807 6.94671 10.4807ZM10.9311 20.7263H13.39C14.0973 20.7263 14.6707 21.2997 14.6707 22.007C14.6707 22.7143 14.0973 23.2877 13.39 23.2877H10.9311C10.2238 23.2877 9.65039 22.7143 9.65039 22.007C9.65039 21.2997 10.2238 20.7263 10.9311 20.7263ZM13.3895 15.6035H1.28069C0.573386 15.6035 0 16.1769 0 16.8842C0 17.5915 0.573387 18.1649 1.28069 18.1649H13.3895C14.0968 18.1649 14.6702 17.5915 14.6702 16.8842C14.6702 16.1769 14.0968 15.6035 13.3895 15.6035Z"/>
</svg>
