<svg width="42" height="38" viewBox="0 0 42 38" fill="none" xmlns="http://www.w3.org/2000/svg">
<path class="fill-primary" fill-rule="evenodd" clip-rule="evenodd" d="M10.4766 12.35C10.7499 12.35 11.0233 12.35 11.2966 12.2143V11.4C11.2966 10.7214 11.2966 10.0428 11.4333 9.49997C11.1599 9.63568 10.7499 9.63568 10.4766 9.63568C8.69994 9.63568 7.19661 8.14282 7.19661 6.37854C7.19661 4.61425 8.69994 3.1214 10.4766 3.1214C11.8433 3.1214 13.0733 3.93568 13.6199 5.15711C14.1666 4.47854 14.9866 3.79997 15.6699 3.25711C13.8933 0.407112 10.2033 -0.542888 7.33328 1.2214C4.46328 2.98568 3.50661 6.64997 5.28328 9.49997C6.37661 11.2643 8.28994 12.35 10.4766 12.35ZM28.3801 5.15726C29.0635 3.52869 30.9768 2.7144 32.7535 3.39297C34.3935 4.07154 35.2135 5.97154 34.5301 7.73583C33.9835 8.95726 32.7535 9.77154 31.5235 9.77154C31.2501 9.77154 30.8401 9.77154 30.5668 9.63583C30.7035 10.3144 30.7035 10.993 30.7035 11.5358V12.3501C30.8401 12.3501 30.9768 12.384 31.1135 12.418C31.2501 12.4519 31.3868 12.4858 31.5235 12.4858C34.9401 12.4858 37.6735 9.77154 37.6735 6.5144C37.6735 3.12154 34.9401 0.407258 31.6601 0.407258C29.4735 0.407258 27.5601 1.49297 26.4668 3.39297C27.1501 3.80011 27.8335 4.34297 28.3801 5.15726ZM27.4227 11.4001C27.4227 15.0643 24.5527 18.0501 20.8627 18.0501C17.1727 18.0501 14.166 15.0643 14.166 11.4001C14.166 7.87149 17.036 4.88577 20.726 4.88577C24.416 4.88577 27.4227 7.73577 27.4227 11.4001ZM24.6893 11.5358C24.6893 9.36435 22.9127 7.60006 20.726 7.60006C18.676 7.60006 16.8993 9.36435 16.8993 11.5358C16.8993 13.5715 18.5393 15.3358 20.726 15.3358C22.9127 15.3358 24.6893 13.7072 24.6893 11.5358ZM31.5226 13.8429C35.0759 13.7072 38.4926 14.9286 41.0892 17.2357L41.4992 17.6429V28.5H38.7659V18.7286C36.7159 17.2357 34.1192 16.4215 31.5226 16.5572H31.5225C30.7025 16.5572 30.0192 16.5572 29.1992 16.6929C29.7459 15.8786 30.1559 14.9286 30.4292 13.8429H31.5226ZM11.57 13.9786C11.8433 15.0644 12.2533 16.0144 12.8 16.8286C12.1167 16.6929 11.2967 16.5572 10.4767 16.5572C7.88 16.4215 5.42 17.2358 3.23333 18.7286V28.5001H0.5V17.6429L0.91 17.2358C3.50667 15.0644 6.92333 13.8429 10.4767 13.9786H11.57ZM31.7964 24.9715L32.0697 25.3786H32.2064V35.6929C32.2064 36.9143 31.1131 38 29.8831 38H12.3897C11.0231 38 10.0664 36.9143 10.0664 35.6929V25.3786L10.3397 24.9715C13.0731 21.9858 17.0364 20.2215 21.1364 20.3572C25.2364 20.2215 29.0631 21.9858 31.7964 24.9715ZM12.7997 35.2858H29.3364V26.3286C27.1497 24.1572 24.1431 22.9358 21.1364 23.0715C17.9931 23.0715 14.9864 24.1572 12.7997 26.3286V35.2858Z"/>
</svg>
