<svg width="44" height="69" viewBox="0 0 44 69" fill="none" xmlns="http://www.w3.org/2000/svg">
<path class="fill-primary" fill-rule="evenodd" clip-rule="evenodd" d="M21.959 1.28906C21.959 0.576555 22.5355 0 23.248 0C23.9606 0 24.5371 0.576555 24.5371 1.28906V5.15625C24.5371 5.86876 23.9606 6.44531 23.248 6.44531C22.5355 6.44531 21.959 5.86876 21.959 5.15625V1.28906ZM25.9672 34.2714V35.792C26.3886 35.792 26.8033 35.7947 27.2124 35.7974L27.2135 35.7974C28.2183 35.8039 29.1897 35.8102 30.1449 35.776C30.8812 35.744 31.4575 35.3279 31.9217 34.7676C32.4659 34.1434 32.594 33.391 32.594 32.5907V22.5866C32.594 22.4114 32.6037 22.2264 32.6157 22.0011L32.6157 21.9997L32.6159 21.9962L32.6201 21.9164L32.626 21.8023C32.8633 21.9666 33.0695 22.1153 33.2622 22.2543L33.2624 22.2545C33.4075 22.3591 33.5449 22.4583 33.6824 22.5546C34.7388 23.2909 35.9714 23.1468 36.6596 22.2024C37.3479 21.258 37.1238 20.0415 36.0834 19.2732C34.1475 17.8733 32.2156 16.4734 30.2838 15.0735L30.281 15.0715C28.3482 13.6709 26.4154 12.2703 24.4786 10.8697C23.5342 10.1814 22.7179 10.1814 21.7735 10.8697C19.8366 12.2784 17.8958 13.687 15.9549 15.0956L15.953 15.097C14.0129 16.5051 12.0728 17.9131 10.1367 19.3212C9.14427 20.0575 8.92018 21.274 9.60846 22.2184C10.2967 23.1468 11.5132 23.3229 12.5377 22.6026C12.8084 22.418 13.0791 22.224 13.3935 21.9986L13.3936 21.9986L13.3951 21.9975C13.4892 21.93 13.5871 21.8598 13.6901 21.7862V22.5546C13.6901 23.7005 13.6884 24.8483 13.6866 25.9972C13.683 28.2986 13.6795 30.6047 13.6901 32.9109C13.6901 34.3034 14.5865 35.584 15.8991 35.728C16.8983 35.8279 17.913 35.8046 18.9431 35.781C19.398 35.7705 19.8559 35.76 20.3169 35.76V35.1358V26.3962C20.3169 25.3397 20.8451 24.8115 21.9015 24.7955C22.7339 24.7795 23.5502 24.7795 24.3666 24.7955C25.471 24.8115 25.9672 25.3237 25.9672 26.4282V34.2714ZM38.7578 45.4858H42.7109C43.4234 45.4858 44 46.0624 44 46.7749V62.2437C44 62.9562 43.4234 63.5327 42.7109 63.5327H38.7578V45.4858ZM1.28906 45.4858C0.576555 45.4858 0 46.0624 0 46.7749V62.2437C0 62.9562 0.576555 63.5327 1.28906 63.5327H5.24219V45.4858H1.28906ZM18.709 48.1999C19.1483 47.3212 20.032 46.7749 21.0152 46.7749H36.1793V62.2436L26.6221 52.6865C26.1425 52.2068 25.4778 51.9312 24.7993 51.9312H22.3043L21.4558 53.6281C20.5759 55.3905 18.8097 56.4844 16.8471 56.4844C16.1371 56.4844 15.4422 56.3383 14.7852 56.05L18.709 48.1999ZM24.7997 54.5092H23.8984L23.8239 54.6583C22.6063 57.0934 20.2317 58.8126 17.518 59.0345C15.5213 59.1978 14.1377 58.6234 12.4969 57.8771C11.8297 57.5738 11.5394 56.7766 11.8672 56.121L16.4025 47.048C17.276 45.3005 19.0621 44.1967 21.0156 44.1967H26.5786C26.9356 43.4058 27.1562 42.5424 27.1562 41.6185C27.1562 40.906 26.5797 40.3295 25.8672 40.3295H15.8593C14.3942 40.3295 13.0549 41.1571 12.3997 42.4676L11.2471 44.7729C11.0286 45.2097 10.5823 45.4857 10.0938 45.4857H7.82031V63.5326H13.7319L17.3838 67.1845C18.4424 68.2431 19.9671 68.5773 21.2824 68.1375L32.2911 64.6768C32.949 64.4917 33.5037 64.1297 33.9561 63.6655L24.7997 54.5092ZM16.4251 8.11201L13.8469 5.53388C13.3433 5.03037 12.5276 5.03037 12.0241 5.53388C11.5206 6.03739 11.5206 6.8532 12.0241 7.3567L14.6022 9.93483C15.1057 10.4383 15.9216 10.4383 16.4251 9.93483C16.9286 9.43132 16.9286 8.61552 16.4251 8.11201ZM32.6491 5.53388C33.1526 5.03037 33.9684 5.03037 34.4719 5.53388C34.9754 6.03739 34.9754 6.8532 34.4719 7.3567L31.8938 9.93483C31.3903 10.4383 30.5745 10.4383 30.071 9.93483C29.5675 9.43132 29.5675 8.61552 30.071 8.11201L32.6491 5.53388Z"/>
</svg>
