<svg width="51" height="71" viewBox="0 0 51 71" fill="none" xmlns="http://www.w3.org/2000/svg">
<path class="fill-primary" opacity="0.35" d="M0.929688 0.961426H49.4062V52.9456L25.101 69.4659L0.929688 52.9456V0.961426Z"/>
<path d="M6.24219 49.9843V6.46387H44.0938V49.9755L25.1095 62.8792L6.24219 49.9843Z" fill="#4770AC"/>
<path d="M6.24219 49.9843V6.46387H44.0938V49.9755L25.1095 62.8792L6.24219 49.9843Z" fill="white" fill-opacity="0.85"/>
<path class="fill-primary" fill-rule="evenodd" clip-rule="evenodd" d="M20.1111 26.9916L25.1676 24.2382L30.224 26.9916L29.2577 21.1602L33.3488 17.0301L27.6958 16.1795L25.1676 10.8735L22.6394 16.1795L16.9863 17.0301L21.0775 21.1602L20.1111 26.9916ZM11.5547 26.0967V33.8061L25.1175 43.0753L38.7812 33.7884V26.0791L25.1175 35.366L11.5547 26.0967ZM11.5547 39.313V47.0229L25.1175 56.2922L38.7812 47.0048V39.2954L25.1175 48.5823L11.5547 39.313Z"/>
<path fill-rule="evenodd" clip-rule="evenodd" d="M50.0636 38.0282C49.8893 38.2088 49.6528 38.3102 49.4062 38.3102C49.1597 38.3102 48.9232 38.2088 48.7489 38.0282C48.5745 37.8476 48.4766 37.6027 48.4766 37.3473V1.92583H1.85938V52.4271L25.1016 68.3113L48.4766 52.4238V46.9765C48.4766 46.7211 48.5745 46.4762 48.7489 46.2956C48.9232 46.115 49.1597 46.0135 49.4062 46.0135C49.6528 46.0135 49.8893 46.115 50.0636 46.2956C50.238 46.4762 50.3359 46.7211 50.3359 46.9765V52.9443C50.336 53.104 50.2976 53.2611 50.2244 53.4015C50.1511 53.542 50.0452 53.6613 49.9162 53.7488L25.611 70.2696C25.4594 70.373 25.2818 70.4281 25.1002 70.4281C24.9187 70.4281 24.7411 70.373 24.5894 70.2696L0.417562 53.7493C0.289285 53.6615 0.184016 53.5421 0.111153 53.4018C0.0382896 53.2615 0.000102034 53.1047 0 52.9454V0.962914C0 0.707533 0.0979492 0.462612 0.272299 0.282031C0.44665 0.10145 0.683119 0 0.929688 0H49.4062C49.6525 0 49.8888 0.101223 50.0631 0.281447C50.2374 0.461672 50.3355 0.706169 50.3359 0.961263V37.3473C50.3359 37.6027 50.238 37.8476 50.0636 38.0282ZM6.89958 23.4458C6.72523 23.6264 6.48876 23.7278 6.24219 23.7278C5.99562 23.7278 5.75915 23.6264 5.5848 23.4458C5.41045 23.2652 5.3125 23.0203 5.3125 22.7649V20.1536C5.3125 19.8982 5.41045 19.6533 5.5848 19.4727C5.75915 19.2921 5.99562 19.1907 6.24219 19.1907C6.48876 19.1907 6.72523 19.2921 6.89958 19.4727C7.07393 19.6533 7.17188 19.8982 7.17188 20.1536V22.7649C7.17188 23.0203 7.07393 23.2652 6.89958 23.4458ZM5.3125 49.9841C5.31246 50.1434 5.35059 50.3003 5.42346 50.4406C5.49634 50.5809 5.60169 50.7003 5.73006 50.788L24.5974 63.6823C24.7492 63.7856 24.9268 63.8407 25.1085 63.8407C25.2901 63.8407 25.4678 63.7856 25.6195 63.6823L44.6037 50.7787C44.7327 50.6911 44.8386 50.5717 44.9119 50.4311C44.9851 50.2906 45.0235 50.1334 45.0234 49.9737V6.4637C45.023 6.20861 44.9249 5.96411 44.7506 5.78389C44.5763 5.60366 44.34 5.50244 44.0938 5.50244H6.24219C5.99562 5.50244 5.75915 5.60389 5.5848 5.78447C5.41045 5.96505 5.3125 6.20997 5.3125 6.46536V13.6872C5.3125 13.9426 5.41045 14.1875 5.5848 14.3681C5.75915 14.5487 5.99562 14.6501 6.24219 14.6501C6.48876 14.6501 6.72523 14.5487 6.89958 14.3681C7.07393 14.1875 7.17188 13.9426 7.17188 13.6872V7.42827H43.1641V49.4553L25.1106 61.7256L7.17188 49.4664V29.2314C7.17188 28.976 7.07393 28.7311 6.89958 28.5505C6.72523 28.3699 6.48876 28.2685 6.24219 28.2685C5.99562 28.2685 5.75915 28.3699 5.5848 28.5505C5.41045 28.7311 5.3125 28.976 5.3125 29.2314V49.9841ZM10.736 47.4793C10.6631 47.339 10.625 47.1822 10.625 47.0229V39.3129C10.625 39.139 10.6704 38.9683 10.7565 38.819C10.8426 38.6697 10.9661 38.5473 11.114 38.4648C11.2619 38.3824 11.4285 38.343 11.5963 38.3507C11.7641 38.3585 11.9267 38.4132 12.0668 38.509L25.1186 47.4306L38.2713 38.4903C38.4115 38.3951 38.5739 38.3408 38.7415 38.3334C38.909 38.326 39.0753 38.3656 39.2229 38.4481C39.3705 38.5306 39.4937 38.6529 39.5796 38.8021C39.6656 38.9512 39.7109 39.1217 39.7109 39.2953V47.0036C39.7109 47.1633 39.6726 47.3205 39.5993 47.461C39.526 47.6015 39.4202 47.721 39.2912 47.8086L25.6275 57.096C25.4757 57.1994 25.2981 57.2545 25.1164 57.2545C24.9348 57.2545 24.7571 57.1994 24.6054 57.096L11.0426 47.8267C10.9142 47.739 10.8088 47.6196 10.736 47.4793ZM24.6054 49.3861L12.4844 41.1018V46.5045L25.1186 55.1394L37.8516 46.4836V41.0775L25.6275 49.3861C25.4757 49.4895 25.2981 49.5445 25.1164 49.5445C24.9348 49.5445 24.7571 49.4895 24.6054 49.3861ZM11.1137 25.2487C10.966 25.3312 10.8426 25.4536 10.7565 25.6029C10.6705 25.7521 10.625 25.9228 10.625 26.0966V33.8065C10.625 33.9658 10.6632 34.1225 10.7361 34.2627C10.809 34.4029 10.9143 34.5222 11.0426 34.6099L24.6054 43.8792C24.7571 43.9825 24.9348 44.0376 25.1164 44.0376C25.2981 44.0376 25.4757 43.9825 25.6275 43.8792L39.2912 34.5934C39.4202 34.5058 39.5261 34.3864 39.5994 34.2458C39.6726 34.1053 39.711 33.9481 39.7109 33.7884V26.0812C39.7111 25.9075 39.6658 25.7369 39.58 25.5876C39.4941 25.4384 39.3708 25.316 39.2232 25.2334C39.0756 25.1509 38.9091 25.1113 38.7415 25.1188C38.5739 25.1264 38.4114 25.1807 38.2713 25.2762L25.1186 34.2137L12.0668 25.2927C11.9266 25.1969 11.7639 25.1423 11.5961 25.1345C11.4283 25.1268 11.2616 25.1662 11.1137 25.2487ZM12.4844 27.886L24.6054 36.1698C24.7571 36.2732 24.9348 36.3282 25.1164 36.3282C25.2981 36.3282 25.4757 36.2732 25.6275 36.1698L37.8516 27.8612V33.2678L25.1186 41.9225L12.4844 33.2893V27.886ZM33.9486 16.2939C34.0812 16.4096 34.18 16.5614 34.2338 16.7322C34.2869 16.9028 34.2931 17.0855 34.2515 17.2596C34.2099 17.4337 34.1223 17.5923 33.9984 17.7176L30.2574 21.4961L31.1387 26.8268C31.168 27.0039 31.149 27.186 31.0836 27.3524C31.0183 27.5188 30.9093 27.663 30.7689 27.7686C30.6286 27.8743 30.4625 27.9371 30.2895 27.9501C30.1165 27.963 29.9434 27.9256 29.7899 27.842L25.168 25.3258L20.5461 27.842C20.3926 27.9259 20.2196 27.9637 20.0464 27.951C19.8733 27.9383 19.7071 27.8756 19.5666 27.7702C19.4261 27.6647 19.3169 27.5206 19.2513 27.3542C19.1857 27.1878 19.1665 27.0057 19.1957 26.8285L20.0786 21.4961L16.3375 17.7193C16.2133 17.5939 16.1254 17.435 16.0838 17.2606C16.0422 17.0862 16.0485 16.9032 16.1022 16.7323C16.1558 16.5615 16.2545 16.4095 16.3872 16.2938C16.5199 16.178 16.6812 16.1031 16.8529 16.0774L22.0224 15.2993L24.3345 10.4473C24.4113 10.2863 24.53 10.1507 24.6773 10.0559C24.8246 9.96113 24.9946 9.91089 25.168 9.91089C25.3414 9.91089 25.5114 9.96113 25.6587 10.0559C25.806 10.1507 25.9247 10.2863 26.0015 10.4473L28.3135 15.2993L33.4831 16.0774C33.6547 16.1032 33.816 16.1782 33.9486 16.2939ZM28.3745 20.861C28.4207 20.7125 28.5012 20.5779 28.6089 20.4688L31.3512 17.7022L27.5623 17.1322C27.4132 17.1099 27.2715 17.0503 27.1496 16.9585C27.0277 16.8668 26.9292 16.7456 26.8627 16.6056L25.168 13.0494L23.4744 16.6061C23.4078 16.7462 23.3093 16.8673 23.1874 16.9591C23.0655 17.0508 22.9238 17.1104 22.7747 17.1327L18.9858 17.7028L21.7281 20.471C21.8358 20.5801 21.9163 20.7147 21.9626 20.8632C22.0089 21.0117 22.0196 21.1696 21.9938 21.3233L21.3467 25.23L24.735 23.3851C24.8686 23.3124 25.0171 23.2745 25.168 23.2745C25.3188 23.2745 25.4674 23.3124 25.601 23.3851L28.9903 25.2278L28.3433 21.3211C28.3175 21.1674 28.3282 21.0095 28.3745 20.861Z" fill="#3A455F"/>
</svg>
