<svg width="42" height="42" viewBox="0 0 42 42" fill="none" xmlns="http://www.w3.org/2000/svg">
<path class="fill-primary" fill-rule="evenodd" clip-rule="evenodd" d="M20.095 0.00983749C19.3179 0.0147696 18.5404 0.0197042 17.763 0.0197042C16.593 0.0197042 15.423 0.0164585 14.2514 0.0132084C13.0765 0.00994917 11.9 0.00668546 10.7203 0.00668546C10.1215 0.0197034 9.52263 0.0457405 8.9238 0.123848C4.05509 0.761728 0.136688 5.05765 0.0585808 9.97844C-0.0195269 15.1075 -0.0195269 20.2366 0.0585808 25.3657C0.149706 30.8462 4.65392 35.3244 10.1475 35.4025C15.1724 35.4676 20.2104 35.4806 25.2353 35.4025C30.8721 35.3244 35.3372 30.8462 35.4153 25.2094C35.4804 20.1975 35.4804 15.1856 35.4153 10.1737C35.3372 4.61504 30.8851 0.162902 25.3264 0.0327229C23.5874 -0.0123295 21.8421 -0.00125211 20.095 0.00983749ZM13.8839 17.863C14.1878 18.2853 14.4947 18.7118 14.8079 19.1431C16.1488 17.8933 17.4506 16.6827 18.7654 15.485C20.379 13.9755 22.0057 12.479 23.6323 10.9824L23.6341 10.9808C24.324 10.356 25.1962 10.2518 25.9903 10.6554C26.7324 11.0459 27.188 11.827 27.1229 12.6601C27.0708 13.298 26.7454 13.7797 26.2898 14.2093C23.6716 16.6213 21.0535 19.0447 18.4459 21.4583L17.8671 21.994C17.5547 22.2804 17.2455 22.5668 16.9364 22.8532C16.6272 23.1396 16.318 23.426 16.0056 23.7124C14.9511 24.6757 13.5972 24.5585 12.7511 23.3999C11.4363 21.6035 10.1215 19.794 8.83268 17.9845C8.12971 16.9951 8.32498 15.7324 9.26227 15.0424C10.1865 14.3525 11.4623 14.5608 12.1913 15.5371C12.7594 16.3002 13.3164 17.0742 13.8839 17.863ZM17.1118 41.667C17.8712 41.6656 18.6305 41.6641 19.3899 41.6641C19.8075 41.6671 20.225 41.6722 20.6425 41.6773C22.0345 41.6942 23.4264 41.7112 24.8184 41.6511C26.1462 41.599 27.5001 41.5079 28.7889 41.2215C36.157 39.5943 41.5855 32.9161 41.6897 25.3917C41.7092 23.5753 41.7068 21.7515 41.7043 19.9315C41.7035 19.3253 41.7027 18.7196 41.7027 18.1147C41.7027 17.6428 41.7035 17.1709 41.7043 16.6989C41.7068 15.2832 41.7092 13.8675 41.6897 12.4518C41.6767 11.0589 40.3879 10.1216 39.06 10.4861C38.1228 10.7465 37.55 11.5536 37.55 12.6341C37.55 13.9831 37.5514 15.3336 37.5529 16.6846C37.5557 19.388 37.5586 22.0933 37.55 24.7929C37.5369 30.69 33.8008 35.5847 28.2031 37.0948C26.6173 37.5209 25.0099 37.5166 23.4007 37.5123C23.2397 37.5118 23.0788 37.5114 22.9178 37.5114H12.6596C11.5791 37.5114 10.772 38.0972 10.5247 39.0345C10.1602 40.3884 11.1235 41.6511 12.5555 41.6641C14.0743 41.6728 15.593 41.6699 17.1118 41.667Z"/>
</svg>
