<svg width="73" height="80" viewBox="0 0 73 80" fill="none" xmlns="http://www.w3.org/2000/svg">
<path class="fill-primary" opacity="0.35" d="M50.4835 31.4278L50.3923 31.5189V60.9394H20.974V31.5189L20.8828 31.4278L35.6831 16.6296L50.4835 31.4278Z"/>
<path class="fill-primary" fill-rule="evenodd" clip-rule="evenodd" d="M48.8739 17.9324V29.8204L42.0352 22.9817V17.9324H48.8739ZM30.8789 36.9863H40.4866V50.5076H30.8789V36.9863Z"/>
<path fill-rule="evenodd" clip-rule="evenodd" d="M34.7398 6.33076L40.0918 10.9858C40.3636 11.2224 40.6996 11.3384 41.0342 11.3384C41.4342 11.3384 41.8323 11.1724 42.116 10.8481C42.6368 10.2526 42.5749 9.34892 41.9777 8.8295L39.7375 6.88075C44.8156 7.42469 49.7065 9.09152 54.0567 11.7846C54.2921 11.9306 54.5536 12 54.8119 12C55.2916 12 55.7605 11.7599 56.0321 11.3238C56.45 10.6525 56.2431 9.77045 55.5698 9.35354C50.9012 6.46352 45.6595 4.66298 40.2159 4.05425L42.4357 2.63543C43.1028 2.20913 43.2969 1.3239 42.8694 0.658821C42.4419 -0.006416 41.5544 -0.199986 40.8873 0.226313L34.9085 4.04804C34.5284 4.29112 34.2852 4.69831 34.252 5.14738C34.2186 5.59644 34.3995 6.03484 34.7398 6.33076ZM59.9154 12.5437C59.3279 12.0368 58.4415 12.1026 57.9348 12.6897C57.4281 13.2768 57.4934 14.1639 58.0808 14.6703C65.4573 21.0344 69.688 30.2666 69.688 40C69.688 55.2718 59.3722 68.5904 44.6018 72.3885C43.8506 72.5818 43.3982 73.3473 43.5915 74.0982C43.7546 74.732 44.325 75.1532 44.9506 75.1532C45.0664 75.1532 45.184 75.1388 45.3014 75.1087C61.3131 70.991 72.4962 56.554 72.4962 39.9999C72.4964 29.4491 67.9108 19.4417 59.9154 12.5437ZM32.3071 69.2169L37.5458 73.7861C37.879 74.0767 38.0559 74.5069 38.0235 74.9474C37.991 75.3881 37.7529 75.7878 37.3809 76.0264L31.5285 79.7777C31.294 79.928 31.0315 79.9999 30.7721 79.9999C30.3094 79.9999 29.8566 79.7714 29.5883 79.3531C29.1699 78.7003 29.3599 77.8314 30.0129 77.413L32.1868 76.0197C14.1042 73.9941 0 58.6142 0 39.9998C0 31.7674 2.68969 24.008 7.77876 17.5599C12.7139 11.3066 19.6616 6.79425 27.3419 4.85363C28.0947 4.66378 28.8576 5.1191 29.0476 5.87113C29.2376 6.62316 28.7821 7.38676 28.0301 7.57676C20.9464 9.36645 14.5372 13.5299 9.9833 19.3001C5.28923 25.2474 2.80829 32.4052 2.80829 39.9998C2.80829 57.2247 15.8994 71.4478 32.6543 73.2466L30.4608 71.3334C29.8765 70.8236 29.8158 69.9364 30.3257 69.352C30.8355 68.7675 31.7226 68.7069 32.3071 69.2169ZM20.8586 50.3973C19.959 50.3973 19.2298 51.1266 19.2298 52.0262V60.9381C19.2298 61.8377 19.959 62.567 20.8586 62.567H50.2777C51.1773 62.567 51.9065 61.8377 51.9065 60.9381V35.2705L55.2188 38.5827C55.5367 38.9006 55.9537 39.0599 56.3705 39.0599C56.7873 39.0599 57.2041 38.9009 57.5222 38.5827C58.1583 37.9466 58.1583 36.9153 57.5222 36.2793L50.3884 29.1456V17.9324C50.3884 17.0328 49.6592 16.3036 48.7596 16.3036H41.9208C41.0212 16.3036 40.292 17.0328 40.292 17.9324V19.0493L36.7195 15.4768C36.0834 14.8407 35.052 14.8407 34.4161 15.4768L13.6138 36.2797C12.9777 36.9158 12.9777 37.9472 13.6138 38.5831C14.2499 39.2192 15.2813 39.2192 15.9172 38.5831L19.2294 35.2708V46.5974C19.2294 47.497 19.9587 48.2263 20.8583 48.2263C21.7579 48.2263 22.4871 47.497 22.4871 46.5974V32.0129L35.5678 18.9323L48.6485 32.0129V59.3096H22.4875V52.0266C22.4875 51.1266 21.7584 50.3973 20.8586 50.3973ZM43.5499 19.5613H47.1311V25.888L43.5499 22.3069V19.5613ZM42.0017 50.5058C42.0017 51.4054 41.2725 52.1347 40.3729 52.1347H30.7656C29.866 52.1347 29.1367 51.4054 29.1367 50.5058V36.9853C29.1367 36.0857 29.866 35.3564 30.7656 35.3564H40.3729C41.2725 35.3564 42.0017 36.0857 42.0017 36.9853V50.5058ZM38.744 38.6143H32.3942V48.8773H38.744V38.6143Z" fill="#3A455F"/>
</svg>
