<svg width="44" height="36" viewBox="0 0 44 36" fill="none" xmlns="http://www.w3.org/2000/svg">
<path class="fill-primary" fill-rule="evenodd" clip-rule="evenodd" d="M24.4344 8.10299V30.8838H25.1359C26.3716 30.9311 27.5558 31.3832 28.5 32.1681C29.3217 32.8512 29.9206 33.7523 30.2285 34.7588H31.4104C31.5728 34.7588 31.7285 34.8222 31.8433 34.935C31.9581 35.0478 32.0226 35.2009 32.0226 35.3604C32.0226 35.52 31.9581 35.673 31.8433 35.7859C31.7285 35.8987 31.5728 35.9621 31.4104 35.9621H29.7678L29.7528 35.9623H14.2466L14.2317 35.9621H12.5887C12.4264 35.9621 12.2707 35.8987 12.1559 35.7859C12.0411 35.673 11.9766 35.52 11.9766 35.3604C11.9766 35.2009 12.0411 35.0478 12.1559 34.935C12.2707 34.8222 12.4264 34.7588 12.5887 34.7588H13.7709C14.0788 33.7523 14.6777 32.8512 15.4994 32.1681C16.4437 31.3832 17.6278 30.9311 18.8636 30.8838H19.5664V8.10299H11.2151C11.1636 8.15311 11.1105 8.20123 11.0559 8.24728L17.5395 22.2892C17.5918 22.3793 17.62 22.4819 17.62 22.5875C17.62 27.3856 14.0621 30.8625 9.16048 30.8625H9.03315C4.13214 30.8625 0.574219 27.3856 0.574219 22.5875V22.5873C0.57419 22.5015 0.592849 22.4164 0.629144 22.338L7.14081 8.25068C7.08456 8.20337 7.03018 8.15411 6.97776 8.10299H5.14583C4.64722 8.0942 4.17205 7.89336 3.8226 7.5437C3.47314 7.19404 3.27734 6.7235 3.27734 6.23338C3.27734 5.74326 3.47314 5.27273 3.8226 4.92307C4.17205 4.5734 4.64722 4.37256 5.14583 4.36377H6.5926C6.70223 4.20201 6.82833 4.05049 6.96955 3.91173C7.39048 3.49811 7.92677 3.21647 8.51058 3.10241C9.09439 2.98836 9.6995 3.04702 10.2494 3.27097C10.7993 3.49492 11.2692 3.87411 11.5998 4.36058C11.6006 4.36164 11.6013 4.3627 11.602 4.36377H19.5664V2.42949C19.5664 1.79506 19.8228 1.18661 20.2793 0.737995C20.7358 0.289382 21.3549 0.0373535 22.0004 0.0373535C22.6459 0.0373535 23.265 0.289382 23.7215 0.737995C24.1779 1.18661 24.4344 1.79506 24.4344 2.42949V4.36377H32.3973C32.5069 4.20209 32.6329 4.05064 32.774 3.91194C33.1949 3.49827 33.7312 3.21656 34.315 3.10246C34.8989 2.98835 35.504 3.04698 36.0539 3.27091C36.6038 3.49485 37.0738 3.87403 37.4045 4.36051L37.4067 4.36377H38.8482C39.3469 4.37256 39.822 4.5734 40.1715 4.92307C40.5209 5.27273 40.7167 5.74326 40.7167 6.23338C40.7167 6.7235 40.5209 7.19404 40.1715 7.5437C39.822 7.89336 39.3469 8.0942 38.8482 8.10299H37.0197C36.9689 8.15251 36.9165 8.20006 36.8626 8.24561L43.3472 22.2911C43.3988 22.3807 43.4267 22.4827 43.4267 22.5875C43.4267 27.3856 39.8687 30.8625 34.9677 30.8625H34.8404C29.9388 30.8625 26.3809 27.3826 26.3809 22.5875C26.3809 22.4863 26.4068 22.3877 26.455 22.3004L32.9474 8.25228C32.8905 8.20449 32.8355 8.15469 32.7824 8.10299H24.4344ZM10.6872 5.20763C10.6942 5.22333 10.7019 5.23873 10.7103 5.25379C10.8223 5.4861 10.8821 5.74198 10.8824 6.00394C10.8824 6.35093 10.7777 6.69013 10.5815 6.97864C10.4515 7.16992 10.2851 7.33323 10.0927 7.46028C10.0719 7.46701 10.0514 7.47486 10.0314 7.48379C9.97544 7.50873 9.92373 7.54176 9.87795 7.58169C9.84595 7.59698 9.81343 7.61136 9.78043 7.6248C9.45425 7.75758 9.09533 7.79232 8.74906 7.72463C8.58557 7.69267 8.42837 7.63855 8.2817 7.56451C8.24517 7.53705 8.20533 7.51352 8.16279 7.49454C8.15553 7.4913 8.14822 7.48821 8.14086 7.48526C8.0308 7.41662 7.92818 7.336 7.83507 7.24449C7.80034 7.21036 7.76715 7.17493 7.73556 7.1383C7.72546 7.12517 7.71477 7.11242 7.70353 7.10008C7.52538 6.88127 7.40253 6.6229 7.34653 6.34621C7.27765 6.00589 7.313 5.65314 7.44811 5.33257C7.45572 5.3145 7.46364 5.29658 7.47184 5.27881C7.49117 5.24769 7.50754 5.21494 7.5208 5.18099C7.65883 4.92558 7.85944 4.70685 8.10557 4.54522C8.39913 4.35244 8.74425 4.24955 9.09731 4.24955C9.57059 4.25003 10.0244 4.43502 10.359 4.76393C10.4926 4.89525 10.6029 5.04522 10.6872 5.20763ZM6.12081 5.56706H5.14583C4.96955 5.57227 4.80226 5.64475 4.67944 5.76914C4.55662 5.89353 4.48793 6.06005 4.48793 6.23338C4.48793 6.40671 4.55662 6.57323 4.67944 6.69762C4.80226 6.82201 4.96955 6.8945 5.14583 6.8997H6.22942C6.09035 6.46993 6.05298 6.01404 6.12081 5.56706ZM8.21759 8.83184L2.13875 21.9854H16.0552L9.98073 8.82994C9.69706 8.91579 9.39955 8.96073 9.09731 8.96103C8.79755 8.96103 8.50117 8.91703 8.21759 8.83184ZM11.9644 6.8997C12.0575 6.61267 12.1063 6.31079 12.1067 6.00394C12.1068 5.85711 12.0957 5.7111 12.0738 5.56706H19.5663V6.8997H11.9644ZM24.4344 5.56706H31.9255C31.8577 6.01404 31.895 6.46993 32.0341 6.8997H24.4344V5.56706ZM33.9705 7.49318C34.0169 7.51388 34.0604 7.54016 34.1 7.57132C34.2427 7.64185 34.3952 7.69361 34.5535 7.72459C34.8998 7.79233 35.2588 7.75762 35.585 7.62485C35.639 7.60287 35.6917 7.57837 35.7429 7.55147C35.7739 7.52992 35.807 7.51119 35.8417 7.49559C36.0577 7.3641 36.2437 7.18818 36.3862 6.9787C36.5824 6.69018 36.6871 6.35096 36.6871 6.00394C36.6866 5.5389 36.4984 5.09303 36.1639 4.76414C35.8294 4.43525 35.3758 4.25018 34.9026 4.24955C34.5495 4.24943 34.2043 4.35222 33.9107 4.54492C33.6171 4.73763 33.3882 5.01158 33.253 5.33215C33.1178 5.65271 33.0823 6.00548 33.1511 6.34584C33.2199 6.6862 33.3899 6.99886 33.6395 7.24428C33.7297 7.33293 33.8288 7.41137 33.935 7.4786C33.947 7.48308 33.9588 7.48794 33.9705 7.49318ZM27.9455 21.9853L34.024 8.83237C34.3073 8.91727 34.6033 8.96109 34.9026 8.96103C35.2053 8.96067 35.5033 8.91553 35.7873 8.82937L41.8619 21.9853H27.9455ZM38.8482 6.8997H37.7691C37.8622 6.61267 37.911 6.31079 37.9114 6.00394C37.9114 5.85711 37.9003 5.7111 37.8785 5.56706H38.8482C39.0245 5.57227 39.1918 5.64475 39.3146 5.76914C39.4375 5.89353 39.5062 6.06005 39.5062 6.23338C39.5062 6.40671 39.4375 6.57323 39.3146 6.69762C39.1918 6.82201 39.0245 6.8945 38.8482 6.8997ZM28.9061 34.7588H15.0933C15.3847 33.9987 15.8979 33.34 16.5685 32.8653C17.2393 32.3905 18.0376 32.1208 18.8636 32.0901H25.1359C25.9618 32.1208 26.7602 32.3905 27.4309 32.8653C28.1015 33.34 28.6147 33.9987 28.9061 34.7588ZM23.21 7.53664V30.8838H20.7907V2.42949C20.7907 2.11419 20.9182 1.8118 21.145 1.58885C21.3719 1.3659 21.6796 1.24064 22.0004 1.24064C22.3212 1.24064 22.6289 1.3659 22.8557 1.58885C23.0826 1.8118 23.21 2.11419 23.21 2.42949V4.93013C23.2093 4.94184 23.209 4.95361 23.209 4.96541V7.50135C23.209 7.51315 23.2093 7.52492 23.21 7.53664ZM34.8404 29.6592C30.7885 29.6592 27.8996 27.0288 27.6266 23.1891H42.1809C41.9085 27.0288 39.0191 29.6592 34.9677 29.6592H34.8404ZM1.81998 23.1891C2.09239 27.0288 4.98183 29.6592 9.03315 29.6592H9.16048C13.2124 29.6592 16.1012 27.0288 16.3743 23.1891H1.81998Z"/>
</svg>
