<svg width="63" height="67" viewBox="0 0 63 67" fill="none" xmlns="http://www.w3.org/2000/svg">
<path class="fill-primary" fill-rule="evenodd" clip-rule="evenodd" d="M17.7241 17.4167V37.8123H20.0774V15.2248L32.8131 3.52732L45.5489 15.271V37.7662H47.9022V17.4397L52.332 21.5465L53.9471 19.8161L46.1949 12.71V5.1885C46.1949 4.4502 45.9411 3.80418 45.4335 3.2966C44.9259 2.78902 44.2799 2.53522 43.5416 2.53522H40.2654C39.4809 2.53522 38.8119 2.78902 38.3043 3.2966C37.912 3.68882 37.6813 4.15026 37.589 4.68092L32.8131 0.320312L11.7715 19.7931L13.2712 21.5465L17.7241 17.4167ZM43.9108 10.5643L39.8962 6.84969V5.1885C39.8962 5.07314 39.9193 5.00393 39.9885 4.95778C40.0577 4.88857 40.1962 4.81935 40.2654 4.81935H43.4493C43.5878 4.84242 43.7262 4.91164 43.8185 5.00393C43.8877 5.07314 43.9108 5.11929 43.9108 5.21157V10.5643ZM62.5765 45.0105C62.415 44.526 62.0458 44.0415 61.446 43.557L61.4229 43.5339C59.5771 42.1958 57.5929 42.2188 55.7933 42.7956C55.5626 42.4496 55.2396 42.1035 54.8474 41.7574C54.2706 41.2498 53.4861 40.9037 52.471 40.6961C51.5942 40.5577 50.6944 40.6269 49.8177 40.9499C49.1717 41.1806 48.5718 41.4575 48.0181 41.8266C47.3259 41.0422 46.5184 40.5577 45.5724 40.3961C44.8111 40.3039 44.142 40.3731 43.6113 40.6038C43.1268 40.8114 42.8038 40.9729 42.7115 41.0422L32.7213 46.441C31.5447 46.2334 30.4603 46.0026 29.4682 45.7489C28.4299 45.4951 27.5763 45.2182 26.9533 44.9413C26.192 44.5722 25.2691 43.9492 24.1616 43.0494C22.7081 41.8497 21.0008 40.7192 19.0627 39.6809C17.0554 38.5965 14.7944 38.1582 12.2795 38.3889C9.07254 38.9426 6.37311 39.7732 4.20435 40.8807C1.27946 42.364 0.795005 42.6744 0.643916 42.7712C0.62815 42.7813 0.616015 42.7891 0.605115 42.7956L0.212891 43.1186L1.48185 45.1951L1.98943 44.6875C2.08172 44.6183 2.56623 44.3184 5.1503 43.0033C7.15756 41.9881 9.69548 41.2267 12.6487 40.7192C14.5867 40.5115 16.4094 40.8807 18.0475 41.7574C19.7549 42.6803 21.3468 43.7185 22.7312 44.8721C23.8848 45.8642 24.9691 46.6025 25.9612 47.1101C27.7608 47.8946 30.2757 48.5175 33.4135 49.002C36.5513 49.4865 39.0661 49.648 40.8657 49.4865C41.2349 49.4404 41.4195 49.5096 41.4656 49.5557C41.6502 49.6711 41.7656 49.7865 41.8348 49.8787C41.9963 50.0864 42.0886 50.3402 42.1116 50.617C42.1347 50.8939 42.0886 51.1246 41.9963 51.3553C41.6271 52.0475 40.8196 52.4628 39.5276 52.5551C37.0589 52.832 34.0595 52.8781 30.6218 52.6474C27.2302 52.4167 23.5617 51.4015 19.7318 49.5788L19.2242 49.325L18.209 51.3553L18.7166 51.6091C21.5314 53.0165 24.3001 53.9625 26.9533 54.447C29.5835 54.9084 32.0522 55.1392 34.3133 55.1392C36.2975 55.093 38.1663 55.0238 39.8506 54.8854C41.258 54.7469 42.2501 54.4009 42.9191 53.8241C43.5652 53.2703 43.9805 52.7627 44.1881 52.2552C44.4419 51.6784 44.5342 51.0323 44.488 50.3402C44.4419 49.648 44.2112 49.0251 43.7959 48.4483C42.9884 47.41 41.9501 46.9255 40.6119 47.0178C40.0351 47.1101 39.2276 47.1101 38.1894 47.0409C37.7049 47.0178 37.1742 46.9717 36.6666 46.9255L43.8651 42.9802L43.9805 42.8879C44.465 42.6341 44.8803 42.5418 45.2033 42.6111C45.5032 42.6572 45.8031 42.8187 46.1031 43.0956C45.434 43.6493 45.3879 43.7416 45.3417 43.8569L45.1571 44.2492L46.7722 45.7489L47.1644 45.3105C47.5797 44.849 48.318 44.2953 49.3101 43.6493C50.233 43.0494 51.1558 42.8187 51.9403 42.8879C52.494 43.0494 52.9555 43.234 53.2554 43.4647L53.2555 43.4648C53.3708 43.5571 53.4861 43.6493 53.5784 43.7416C53.0708 44.0185 52.6786 44.2953 52.3556 44.526L51.0405 45.5412L52.7709 47.4331L53.1862 46.8332C53.2554 46.764 53.6015 46.4179 55.678 45.2413C57.1084 44.4107 58.5389 44.4568 59.9232 45.2643C60.2231 45.5643 60.2693 45.7027 60.2693 45.7027C60.3154 45.8873 60.3154 45.9796 60.3154 45.9796C60.2693 46.3026 60.0155 46.8563 59.0465 47.6638C58.1697 48.3791 57.1776 49.0251 56.0702 49.5788C55.4242 49.9249 54.3629 50.5709 52.9324 51.4938C51.5019 52.4167 49.91 53.4549 48.2026 54.6316C47.6161 55.0226 47.0402 55.4083 46.4748 55.7869L46.4721 55.7888L46.4711 55.7895C45.3699 56.527 44.309 57.2375 43.2883 57.9078C41.7425 58.923 40.4735 59.7074 39.4353 60.2842C39.1844 60.4567 38.9228 60.6185 38.6433 60.7915L38.6432 60.7915C38.5116 60.873 38.3759 60.9569 38.2355 61.0456C36.5743 62.1761 34.5671 63.0528 32.306 63.6066C30.0911 64.1603 27.1148 63.7219 23.5156 62.3145C18.8551 60.4457 14.9328 59.3383 11.8181 58.9922C8.70338 58.6461 6.00396 58.6922 3.76598 59.1306L3.28147 59.2921L3.53526 61.5532L4.13513 61.4609C6.21161 61.1379 8.74953 61.1148 11.6566 61.4378C14.5406 61.7377 18.2321 62.799 22.6389 64.5756C25.4075 65.7061 27.8531 66.2598 29.9065 66.2598H30.1142C32.1907 66.2137 34.0134 65.8676 35.5361 65.1985C37.0127 64.5525 38.3509 63.8142 39.5045 63.0067L40.6119 62.2684C41.6733 61.6685 43.0114 60.861 44.5803 59.8458C46.1723 58.8307 47.8104 57.7463 49.5177 56.5927C51.2251 55.4391 52.7709 54.4008 54.2014 53.478C55.6087 52.5782 56.647 51.9552 57.293 51.6553C58.0082 51.3323 59.0003 50.6863 60.2693 49.7634C61.6305 48.7713 62.4611 47.6177 62.738 46.2564C62.7841 45.8873 62.7149 45.472 62.5765 45.0105ZM32.9507 31.1908V35.4822V35.5053H30.6666V30.9832C29.3515 30.7294 28.221 30.3833 27.2981 29.9449C25.7292 29.2066 25.6138 29.0913 25.5215 28.999L25.2216 28.699L26.3521 26.5995L26.8828 27.1532C26.8901 27.1532 26.9255 27.1696 27.0171 27.2119C27.2135 27.3027 27.6683 27.5129 28.6593 27.9377C29.8129 28.4452 31.1973 28.7452 32.8123 28.8144C34.1735 28.8144 35.281 28.5837 36.0193 28.1453C36.6884 27.7531 37.0114 27.2224 37.0345 26.4841C37.0345 25.792 36.7345 25.3305 36.0885 25.0075C35.3041 24.6153 33.8044 24.2692 31.6356 23.9923C26.9751 23.3463 24.6448 21.7544 24.691 19.2395C24.6448 17.8783 25.0601 16.7477 25.9368 15.871C26.9751 14.8097 28.544 14.2098 30.6205 14.1406V10.6106H32.9046V14.3021C34.6119 14.5328 35.8809 14.9251 36.8268 15.4788C38.3669 16.3847 38.4397 16.5125 38.5291 16.6697L38.5342 16.6785L38.7187 17.0477L36.6192 19.3087V18.0859C36.4577 17.9706 36.1116 17.7629 35.3733 17.3476C34.4273 16.84 32.9738 16.517 31.0588 16.4478C29.4899 16.4478 28.3363 16.817 27.6442 17.5322C27.4135 17.786 27.2289 18.0859 27.1366 18.3859C27.0443 18.6627 27.0212 18.9396 27.0443 19.1934C27.0904 20.67 29.7899 21.3391 32.0509 21.6621C33.9659 21.8697 35.6502 22.2619 37.0114 22.7926C38.5572 23.3925 39.3878 24.6845 39.434 26.5533C39.3878 28.053 38.7418 29.1835 37.5421 29.9911C36.4346 30.7294 34.8888 31.1447 32.9507 31.1908Z"/>
</svg>
