<svg width="53" height="67" viewBox="0 0 53 67" fill="none" xmlns="http://www.w3.org/2000/svg">
<path class="fill-primary" d="M23.072 61.7176C23.4565 61.7176 23.6488 61.9098 23.8411 62.1021C24.0333 62.2944 24.2256 62.4866 24.2256 62.8712C24.2256 63.2557 24.0333 63.448 23.8411 63.6402C23.6488 63.8325 23.2643 64.0248 23.072 64.0248H4.0376C2.884 64.0248 1.92266 63.6402 1.1536 62.8712C0.384532 62.1021 0 61.1408 0 59.9872V4.22986C0 3.07627 0.384532 2.11493 1.1536 1.34587C1.7304 0.576799 2.69173 0 3.84533 0H31.724C32.6853 0 33.4544 0.384533 34.0312 0.961333L46.5285 13.4587C47.1053 14.2277 47.4899 14.9968 47.4899 15.9581V36.9152C47.4899 37.2997 47.2976 37.492 47.1053 37.6843C46.913 37.8765 46.5285 38.0688 46.3363 38.0688C45.9517 38.0688 45.7595 37.8765 45.5672 37.6843C45.3749 37.492 45.1826 37.1075 45.1826 36.9152V16.5349H32.3008C31.5317 16.5349 30.9549 16.3427 30.5704 15.7659C30.1859 15.1891 29.8013 14.6123 29.8013 14.0355V2.49947H3.84533C3.26853 2.49947 2.884 2.69173 2.49947 3.07627C2.11493 3.4608 1.92267 3.84533 1.92267 4.42213V59.9872C1.92267 60.564 2.11493 60.9485 2.49947 61.333C2.884 61.7176 3.26853 61.9098 3.84533 61.9098H13.4587C19.0344 61.7176 22.3029 61.7176 23.072 61.7176ZM10.1901 23.072C9.8056 23.072 9.61333 22.8797 9.42106 22.6875C9.03653 22.4952 9.03653 22.3029 9.03653 21.9184C9.03653 21.5339 9.2288 21.3416 9.42106 21.1493C9.61333 20.9571 9.99786 20.7648 10.1901 20.7648H25.956C26.3405 20.7648 26.5328 20.9571 26.7251 21.1493C26.9173 21.3416 27.1096 21.7261 27.1096 21.9184C27.1096 22.3029 26.9173 22.4952 26.7251 22.6875C26.5328 22.8797 26.1483 23.072 25.956 23.072H18.0731C13.4587 23.072 10.7669 23.072 10.1901 23.072ZM37.6842 29.0323C37.6842 29.4168 37.492 29.6091 37.2997 29.8013C37.1075 29.9936 36.9152 30.1859 36.5307 30.1859H10.1901C9.8056 30.1859 9.61333 29.9936 9.42106 29.8013C9.03653 29.6091 9.03653 29.4168 9.03653 29.0323C9.03653 28.6477 9.2288 28.4555 9.42106 28.2632C9.61333 28.0709 9.99786 27.8787 10.1901 27.8787H36.5307C36.9152 27.8787 37.1075 28.0709 37.2997 28.2632C37.492 28.4555 37.6842 28.84 37.6842 29.0323ZM10.1901 34.9925H25.956C26.3405 34.9925 26.5328 35.1848 26.7251 35.3771C26.9173 35.5693 27.1096 35.7616 27.1096 36.1461C27.1096 36.5307 26.9173 36.7229 26.7251 36.9152C26.5328 37.1075 26.3405 37.2997 25.956 37.2997H10.1901C9.8056 37.2997 9.61333 37.1075 9.42106 36.9152C9.03653 36.7229 9.03653 36.3384 9.03653 36.1461C9.03653 35.7616 9.2288 35.5693 9.42106 35.3771C9.42106 34.9925 9.8056 34.9925 10.1901 34.9925ZM37.492 37.492C41.7219 37.6843 45.1827 39.0301 47.8744 41.9141C50.5661 44.6058 52.1043 48.0667 52.1043 52.2965C52.1043 56.5264 50.5661 59.9872 47.8744 62.6789C45.1827 65.3706 41.7219 66.9088 37.492 66.9088C33.2621 66.9088 29.8013 65.3706 27.1096 62.6789C24.4179 59.9872 22.8797 56.5264 22.6875 52.2965C22.8797 48.0667 24.2256 44.6058 27.1096 41.9141C29.8013 39.0301 33.2621 37.492 37.492 37.492ZM37.492 64.4093C40.9528 64.4093 43.8368 63.0634 46.144 60.7562C48.4512 58.449 49.6048 55.565 49.7971 52.1042C49.7971 48.6434 48.4512 45.7595 46.144 43.4523C43.8368 41.1451 40.9528 39.9915 37.492 39.7992C34.0312 39.7992 31.1472 41.1451 28.84 43.4523C26.5328 45.7595 25.3792 48.6434 25.1869 52.1042C25.1869 55.565 26.5328 58.449 28.84 60.7562C30.9549 63.2557 33.8389 64.4093 37.492 64.4093ZM45.1826 45.9517C45.5672 46.144 45.5672 46.3362 45.7594 46.7208C45.7594 47.1053 45.7595 47.2976 45.5672 47.6821L36.7229 60.564L30.7627 55.1805C30.5704 54.9882 30.3781 54.796 30.3781 54.4114C30.3781 54.0269 30.3781 53.8346 30.7627 53.6424C30.9549 53.4501 31.1472 53.2578 31.5317 53.2578C31.9163 53.2578 32.1085 53.2578 32.3008 53.6424L36.3384 57.2954L43.8368 46.5285C44.029 46.3363 44.2213 46.144 44.6059 45.9517C44.6059 45.7594 44.9904 45.7594 45.1826 45.9517ZM44.0291 14.0355L32.6853 2.69173L32.4931 2.49947V13.8432C32.4931 14.0355 32.4931 14.0355 32.6853 14.0355H38.4533C41.7219 14.0355 43.6445 14.0355 44.0291 14.0355Z"/>
</svg>
