<svg width="48" height="43" viewBox="0 0 48 43" fill="none" xmlns="http://www.w3.org/2000/svg">
<path class="fill-primary" fill-rule="evenodd" clip-rule="evenodd" d="M5.42812 0.629395H33.1903C33.9665 0.629395 34.5965 1.25939 34.5965 2.03564V19.8791C34.5965 22.8725 32.1618 25.3072 29.1684 25.3072H12.1631C11.3662 25.3072 10.6031 25.5519 9.95437 26.0141L2.22281 31.5303C1.30303 32.1873 0 31.5378 0 30.3856V6.05752C0 3.06408 2.43469 0.629395 5.42812 0.629395ZM10.1119 17.6647H26.3597C27.1359 17.6647 27.7659 17.0356 27.7659 16.2584C27.7659 15.4822 27.1359 14.8522 26.3597 14.8522H10.1119C9.33562 14.8522 8.70562 15.4822 8.70562 16.2584C8.70562 17.0356 9.33562 17.6647 10.1119 17.6647ZM10.1119 11.1022H26.3597C27.1359 11.1022 27.7659 10.4731 27.7659 9.69595C27.7659 8.9197 27.1359 8.2897 26.3597 8.2897H10.1119C9.33562 8.2897 8.70562 8.9197 8.70562 9.69595C8.70562 10.4731 9.33562 11.1022 10.1119 11.1022ZM48.0008 41.2925V16.9653C48.0008 13.9719 45.5661 11.5363 42.5727 11.5363H37.4099V19.8791C37.4099 24.4231 33.7133 28.1197 29.1693 28.1197H13.4043V30.7859C13.4043 33.7794 15.839 36.215 18.8324 36.215H35.8377C36.6346 36.215 37.3977 36.4597 38.0465 36.9219L45.778 42.4372C46.7044 43.0989 48.0008 42.4369 48.0008 41.2925Z"/>
</svg>
