<svg width="38" height="43" viewBox="0 0 38 43" fill="none" xmlns="http://www.w3.org/2000/svg">
<path class="fill-primary" fill-rule="evenodd" clip-rule="evenodd" d="M5.03906 13.8574C5.03906 6.08635 11.3408 0 18.8965 0C26.5375 0 32.7539 6.21644 32.7539 13.8574C32.7539 16.7387 31.8731 19.5079 30.2048 21.8662L19.957 37.8422C19.463 38.6147 18.331 38.6162 17.836 37.8422L7.63242 21.9204C5.92745 19.4501 5.03906 16.8138 5.03906 13.8574ZM12.5977 13.8574C12.5977 17.3304 15.4235 20.1562 18.8965 20.1562C22.3695 20.1562 25.1953 17.3304 25.1953 13.8574C25.1953 10.3844 22.3695 7.55859 18.8965 7.55859C15.4235 7.55859 12.5977 10.3844 12.5977 13.8574ZM22.4014 38.8664L28.7448 28.949C34.342 30.2408 37.793 32.6099 37.793 35.4414C37.793 40.3513 28.0568 43 18.8965 43C9.73614 43 0 40.3513 0 35.4414C0 32.6119 3.44621 30.2441 9.03655 28.9516L15.3903 38.8689C17.0244 41.418 20.7594 41.4264 22.4014 38.8664Z"/>
</svg>
