<svg width="43" height="44" viewBox="0 0 43 44" fill="none" xmlns="http://www.w3.org/2000/svg">
<path class="fill-primary" fill-rule="evenodd" clip-rule="evenodd" d="M33.4087 22.6734C35.7465 22.9906 37.904 24.0675 39.5831 25.7762C41.5644 27.7917 42.6554 30.4591 42.6554 33.287C42.6554 39.1942 37.8529 44 31.9498 44C28.7785 44 25.8472 42.6391 23.8085 40.2443H5.6915C2.82904 40.2443 0.5 37.9152 0.5 35.0524V5.1915C0.5 2.32904 2.82904 0 5.69183 0H28.2172C31.0797 0 33.4087 2.32904 33.4087 5.1915V22.6734ZM3.07812 5.1915V35.0524C3.07812 36.4936 4.2507 37.6658 5.69183 37.6658H22.1767C21.5638 36.3012 21.2442 34.8195 21.2442 33.287C21.2442 27.7578 25.4514 23.1941 30.8306 22.6324V5.1915C30.8306 3.7507 29.6583 2.57812 28.2172 2.57812H5.69183C4.2507 2.57812 3.07812 3.7507 3.07812 5.1915ZM25.4561 38.1794C27.0087 40.2399 29.3753 41.4219 31.9498 41.4219C36.4313 41.4219 40.0772 37.7726 40.0772 33.287C40.0772 31.1396 39.2487 29.1137 37.7445 27.5833C36.2419 26.0545 34.2362 25.1918 32.0968 25.1538L32.077 25.1535C32.0347 25.1528 31.9921 25.1522 31.9498 25.1522C27.4683 25.1522 23.822 28.8015 23.822 33.287C23.822 35.0689 24.3873 36.7604 25.4561 38.1794ZM7.0957 8.47656H14.7891C15.5008 8.47656 16.0782 9.05362 16.0782 9.76562C16.0782 10.4776 15.5008 11.0547 14.7891 11.0547H7.0957C6.3837 11.0547 5.80664 10.4776 5.80664 9.76562C5.80664 9.05362 6.3837 8.47656 7.0957 8.47656ZM7.0957 13.6332H14.7891C15.5008 13.6332 16.0782 14.2102 16.0782 14.9222C16.0782 15.6342 15.5008 16.2113 14.7891 16.2113H7.0957C6.3837 16.2113 5.80664 15.6342 5.80664 14.9222C5.80664 14.2102 6.3837 13.6332 7.0957 13.6332ZM14.7891 18.7898H7.0957C6.3837 18.7898 5.80664 19.3669 5.80664 20.0789C5.80664 20.7909 6.3837 21.3679 7.0957 21.3679H14.7891C15.5008 21.3679 16.0782 20.7909 16.0782 20.0789C16.0782 19.3669 15.5008 18.7898 14.7891 18.7898ZM7.0957 23.9464H14.7891C15.5008 23.9464 16.0782 24.5235 16.0782 25.2355C16.0782 25.9475 15.5008 26.5245 14.7891 26.5245H7.0957C6.3837 26.5245 5.80664 25.9475 5.80664 25.2355C5.80664 24.5235 6.3837 23.9464 7.0957 23.9464ZM14.7891 29.1892H7.0957C6.3837 29.1892 5.80664 29.7666 5.80664 30.4783C5.80664 31.1903 6.3837 31.7673 7.0957 31.7673H14.7891C15.5008 31.7673 16.0782 31.1903 16.0782 30.4783C16.0782 29.7666 15.5008 29.1892 14.7891 29.1892ZM26.8126 11.0547H19.1191C18.4075 11.0547 17.8301 10.4776 17.8301 9.76562C17.8301 9.05362 18.4075 8.47656 19.1191 8.47656H26.8126C27.5246 8.47656 28.1016 9.05362 28.1016 9.76562C28.1016 10.4776 27.5246 11.0547 26.8126 11.0547ZM19.1191 16.2113H26.8126C27.5246 16.2113 28.1016 15.6342 28.1016 14.9222C28.1016 14.2102 27.5246 13.6332 26.8126 13.6332H19.1191C18.4075 13.6332 17.8301 14.2102 17.8301 14.9222C17.8301 15.6342 18.4075 16.2113 19.1191 16.2113ZM22.8245 18.7898C23.5365 18.7898 24.1136 19.3669 24.1136 20.0789C24.1136 20.7909 23.5365 21.3679 22.8245 21.3679H19.1191C18.4075 21.3679 17.8301 20.7909 17.8301 20.0789C17.8301 19.3669 18.4075 18.7898 19.1191 18.7898H22.8245ZM36.3248 29.7333C35.7696 29.2879 34.9585 29.3768 34.5127 29.9321L31.1927 34.0712L29.1373 32.582C28.5609 32.1641 27.7546 32.293 27.337 32.8694C26.9194 33.4461 27.0483 34.2521 27.6246 34.6697L30.6738 36.8789C30.902 37.0441 31.1666 37.1243 31.4294 37.1243C31.8077 37.1243 32.1817 36.9581 32.4355 36.6416L36.5239 31.5454C36.9694 30.9902 36.8804 30.1788 36.3248 29.7333Z"/>
</svg>
