<svg width="67" height="65" viewBox="0 0 67 65" fill="none" xmlns="http://www.w3.org/2000/svg">
<path class="fill-primary" fill-rule="evenodd" clip-rule="evenodd" d="M53.85 19.1959V6.82931C53.85 5.83721 53.5039 4.98355 52.8349 4.31446C52.1658 3.64537 51.3121 3.27622 50.2508 3.23008H44.9212C43.9291 3.27622 43.0985 3.64537 42.4063 4.31446C41.6911 4.98355 41.345 5.83721 41.345 6.85238V7.61376L33.0852 0L0 30.5704L1.49968 32.3239L33.0852 3.13779L64.6708 32.3239L66.1705 30.5704L53.85 19.1959ZM51.5659 6.82931V17.1194L43.6291 9.73638V6.82931C43.6291 6.48323 43.7445 6.18329 43.9983 5.95257C44.2521 5.69878 44.552 5.58342 44.9442 5.58342H50.2508C50.643 5.58342 50.943 5.69878 51.1967 5.95257C51.4505 6.20637 51.5659 6.48323 51.5659 6.82931ZM54.3567 58.188C54.3106 59.2723 53.9414 60.126 53.2262 60.8412C52.5109 61.5565 51.6342 61.9256 50.5729 61.9718H15.7111C14.6267 61.9256 13.75 61.5795 13.0348 60.8412C12.3195 60.126 11.9504 59.2493 11.9042 58.188V26.9023H9.62012V58.211C9.66626 59.9184 10.2661 61.3488 11.3967 62.4794C12.5272 63.6099 13.9577 64.2098 15.6881 64.2559H50.5267C52.2341 64.2098 53.6645 63.6099 54.7951 62.4794C55.9256 61.3488 56.5485 59.9184 56.6408 58.188V26.9023H54.3567V58.188ZM27.0403 51.9123C28.8399 52.9736 30.8702 53.5042 33.0159 53.5042C36.4306 53.435 39.2684 52.2583 41.5526 49.9973C43.8367 47.7362 45.0595 44.8522 45.1749 41.3914C45.0595 38.0229 43.8598 35.1389 41.5987 32.8548C39.3376 30.5707 36.4306 29.3479 32.9929 29.2325C29.9935 29.3017 27.3171 30.3169 25.1253 32.1857C23.3257 33.7315 22.0567 35.6926 21.3876 37.9998L24.6639 35.485L26.0713 37.2846L19.6342 42.2451L15.1582 35.485L17.0732 34.216L19.1266 37.3308C19.9802 34.4698 21.5491 32.0934 23.7641 30.2477C26.325 28.125 29.4398 27.0176 32.9929 26.9253C37.0766 27.0637 40.4912 28.4942 43.1907 31.1705C45.8901 33.8469 47.3206 37.2846 47.459 41.3684C47.3206 45.4521 45.8901 48.8668 43.2137 51.5662C40.5374 54.2656 37.1227 55.6961 33.0851 55.8345C30.5011 55.7883 28.1016 55.1423 25.9097 53.8964C23.741 52.6506 21.9414 50.8971 20.6032 48.6822L20.3033 48.1746L22.3105 47.0441L22.6105 47.5286C23.7179 49.3743 25.2176 50.8509 27.0403 51.9123Z"/>
</svg>
