<svg width="44" height="50" viewBox="0 0 44 50" fill="none" xmlns="http://www.w3.org/2000/svg">
<path class="fill-primary" d="M14.2735 21.4561V39.8553C14.2735 40.6734 13.7576 41.401 12.9876 41.6705C11.898 42.0536 10.5832 42.2557 9.18376 42.2557C5.15858 42.2557 0.829251 40.6041 0.829251 36.9774V13.4346C0.738776 11.8176 1.3028 8.96092 4.01128 7.41514C5.2683 6.69711 11.8691 2.45249 15.184 0.308034C15.775 -0.0750414 16.5296 -0.101991 17.1494 0.232959C17.7693 0.571759 18.1543 1.22048 18.1543 1.92504V4.71244C18.1543 5.77504 17.2919 6.63744 16.2293 6.63744C15.4015 6.63744 14.695 6.11576 14.4236 5.38041C11.4283 7.30542 7.01621 10.1313 5.92088 10.7569C4.93528 11.321 4.7216 12.3566 4.67925 12.9187C4.67925 13.5501 4.81593 14.0468 5.06233 14.3182C5.74571 15.0632 8.02298 14.5992 10.5082 13.1074C12.8952 11.6752 24.6685 3.83656 24.7859 3.75764C25.3807 3.36301 26.1392 3.32644 26.7609 3.66331C27.3885 3.99826 27.7793 4.65084 27.7793 5.36116V5.58061C27.7793 6.22356 27.4578 6.82416 26.9246 7.18221C26.9246 7.18221 18.751 12.6377 18.0272 13.1016C15.2571 14.8841 14.2735 17.0709 14.2735 21.4561ZM43.1793 12.166V37.1564C43.1793 37.8167 42.8386 38.4327 42.2784 38.785C42.2784 38.785 31.0556 47.5014 28.7783 48.8855C27.581 49.615 26.0564 50 24.372 50C20.3699 50 16.2293 47.8344 16.2293 44.2135V20.8902V20.3261C16.2293 20.3184 16.235 20.3107 16.235 20.3011C16.2735 18.892 16.6027 16.8804 19.2226 14.9477C20.7934 13.7888 30.149 7.40937 30.5455 7.13987C31.1365 6.73946 31.9007 6.69711 32.5283 7.02821C33.1597 7.36124 33.5543 8.01574 33.5543 8.72992V11.5173C33.5543 12.5799 32.6938 13.4423 31.6293 13.4423C30.8343 13.4423 30.1509 12.9611 29.8583 12.2719C26.8726 14.3143 22.4894 17.3231 21.5076 18.045C20.2679 18.9613 20.1024 19.5658 20.0812 20.3415C20.085 20.9171 20.241 21.356 20.5567 21.6448C21.5384 22.5437 24.1814 22.1664 26.7879 20.6033C28.7168 19.4445 37.0289 13.0265 40.0666 10.6511C40.6498 10.2006 41.4352 10.1178 42.0974 10.4393C42.7596 10.7608 43.1793 11.4288 43.1793 12.166ZM39.3293 20.7439L29.7043 28.2109V32.0609L39.3293 24.5939V20.7439Z"/>
</svg>
