<svg width="234" height="119" viewBox="0 0 234 119" fill="none" xmlns="http://www.w3.org/2000/svg">
<path opacity="0.5" fill-rule="evenodd" clip-rule="evenodd" d="M90.1027 46.5089C90.1027 70.9217 80.3948 90.7122 68.4195 90.7122C64.5792 90.7122 60.972 88.6769 57.8434 85.1066C58.2386 87.0521 58.4567 89.1849 58.4567 91.4215C58.4567 100.543 54.8296 107.937 50.3553 107.937C45.881 107.937 42.2539 100.543 42.2539 91.4215C42.2539 90.2901 42.3097 89.1853 42.416 88.1179C39.527 94.3584 35.4318 98.2532 30.8903 98.2532C22.1392 98.2532 15.0449 83.791 15.0449 65.9508C15.0449 48.1107 22.1392 33.6484 30.8903 33.6484C39.6415 33.6484 46.7358 48.1107 46.7358 65.9508C46.7358 70.2392 46.3258 74.3324 45.5815 78.0764C46.9203 76.0827 48.5704 74.906 50.3553 74.906C50.8947 74.906 51.4218 75.0135 51.9317 75.2185C48.6925 67.4947 46.7363 57.4675 46.7363 46.5089C46.7363 22.0961 56.4442 2.30566 68.4195 2.30566C80.3948 2.30566 90.1027 22.0961 90.1027 46.5089Z" fill="#85CD40"/>
<path fill-rule="evenodd" clip-rule="evenodd" d="M49.7833 93.6017C50.135 85.2729 51.086 79.5359 51.1038 79.4312L51.735 79.538C51.7188 79.6334 50.9247 84.4256 50.5224 91.5924L57.488 87.8699L57.79 88.434L50.4824 92.3392C50.1152 99.5307 50.1642 108.933 51.7351 118.35L51.1037 118.455C49.6665 109.84 49.496 101.238 49.755 94.3114L49.7547 94.312L42.4297 90.3948L42.7318 89.8308L49.7833 93.6017Z" fill="#3F3D56"/>
<path fill-rule="evenodd" clip-rule="evenodd" d="M190.221 0.000244141L222.516 38.3862L222.429 39.3714V118.97H86.582V70.6664C88.8089 63.7228 90.1036 55.4241 90.1036 46.5089C90.1036 42.7391 89.8721 39.0795 89.4365 35.586L125.395 0.592445L190.221 0.000244141ZM128.012 53.2495H113.202V66.1212H128.012V53.2495ZM128.012 75.8882H113.202V88.9673H128.012V75.8882ZM193.83 56.7197H179.02V69.5914H193.83V56.7197ZM193.83 79.3584H179.02V92.4375H193.83V79.3584Z" fill="#444444"/>
<path d="M213.747 1.10278H200.469V47.0254H213.747V1.10278Z" fill="#444444"/>
<path d="M139.852 116.636C139.852 116.636 140.169 109.99 146.678 110.762Z" fill="#E6E6E6"/>
<path class="fill-primary" d="M138.013 110.311C139.813 110.311 141.271 108.854 141.271 107.057C141.271 105.259 139.813 103.802 138.013 103.802C136.214 103.802 134.756 105.259 134.756 107.057C134.756 108.854 136.214 110.311 138.013 110.311Z"/>
<path d="M138.402 112.537H137.482V118.968H138.402V112.537Z" fill="#E6E6E6"/>
<path fill-rule="evenodd" clip-rule="evenodd" d="M30.056 70.714C30.7261 54.1837 32.6204 42.7568 32.6554 42.55L33.2866 42.6569C33.2544 42.8463 31.659 52.473 30.8812 66.8115L44.985 59.2744L45.2869 59.8384L30.8417 67.5581C30.1132 81.6636 30.1976 100.151 33.2867 118.67L32.6553 118.774C29.8348 101.867 29.512 84.9866 30.0281 71.4246L15.5352 63.6743L15.8373 63.1103L30.056 70.714Z" fill="#3F3D56"/>
<path fill-rule="evenodd" clip-rule="evenodd" d="M67.3876 53.2198C68.2975 30.5066 70.9028 14.79 70.9509 14.5063L71.5821 14.6132C71.5379 14.8734 69.3383 28.1443 68.2778 47.8884L87.7618 37.476L88.0638 38.04L68.2385 48.6349C67.2376 67.9525 67.3484 93.2891 71.5822 118.669L70.9508 118.774C67.0875 95.6156 66.6499 72.4945 67.3598 53.9304L47.4609 43.2896L47.7631 42.7256L67.3876 53.2198Z" fill="#3F3D56"/>
<path d="M234 118.444H0V119H234V118.444Z" fill="#DEDEDE"/>
<path class="fill-primary" fill-rule="evenodd" clip-rule="evenodd" d="M149.908 47.3412L190.254 0.0822754L222.428 38.3511V118.971H149.908V47.3412ZM193.83 56.7197H179.02V69.5914H193.83V56.7197ZM193.83 79.3584H179.02V92.4375H193.83V79.3584Z"/>
</svg>
