<svg width="217" height="160" viewBox="0 0 217 160" fill="none" xmlns="http://www.w3.org/2000/svg">
<path d="M205.106 160L205.354 159.541C202.04 157.741 197.916 155.501 195.762 151.825C193.639 148.201 193.591 143.28 195.638 138.982C197.38 135.324 200.579 132.048 204.89 129.506C205.741 129.004 206.633 128.529 207.497 128.069C209.583 126.959 211.741 125.81 213.52 124.18C215.971 121.935 217.825 118.169 216.443 114.814C215.988 113.743 215.244 112.821 214.294 112.154C213.345 111.487 212.228 111.1 211.07 111.038L211.041 111.559C212.101 111.616 213.125 111.97 213.995 112.581C214.865 113.192 215.547 114.036 215.964 115.017C217.248 118.134 215.486 121.673 213.17 123.795C211.439 125.38 209.311 126.513 207.253 127.608C206.385 128.07 205.487 128.548 204.627 129.055C200.226 131.65 196.956 135.005 195.169 138.757C193.049 143.209 193.105 148.318 195.314 152.089C197.542 155.891 201.736 158.169 205.106 160Z" fill="#F1F1F1"/>
<path fill-rule="evenodd" clip-rule="evenodd" d="M207.777 113.789C210.288 113.789 212.324 112.796 212.324 111.571C212.324 110.345 210.288 109.352 207.777 109.352C205.266 109.352 203.23 110.345 203.23 111.571C203.23 112.796 205.266 113.789 207.777 113.789ZM204.139 128.403C206.65 128.403 208.685 127.41 208.685 126.185C208.685 124.96 206.65 123.967 204.139 123.967C201.627 123.967 199.592 124.96 199.592 126.185C199.592 127.41 201.627 128.403 204.139 128.403ZM217 128.534C217 129.759 214.964 130.752 212.453 130.752C209.942 130.752 207.906 129.759 207.906 128.534C207.906 127.309 209.942 126.316 212.453 126.316C214.964 126.316 217 127.309 217 128.534ZM199.463 143.018C201.974 143.018 204.01 142.025 204.01 140.8C204.01 139.575 201.974 138.582 199.463 138.582C196.952 138.582 194.916 139.575 194.916 140.8C194.916 142.025 196.952 143.018 199.463 143.018ZM194.916 140.8C194.916 142.025 192.88 143.018 190.369 143.018C187.858 143.018 185.822 142.025 185.822 140.8C185.822 139.575 187.858 138.582 190.369 138.582C192.88 138.582 194.916 139.575 194.916 140.8Z" fill="#C2E69F"/>

<path class="fill-primary" fill-rule="evenodd" clip-rule="evenodd" d="M137.218 114.692H153.351C153.788 114.691 154.207 114.517 154.516 114.207C154.825 113.896 154.999 113.476 154.999 113.037V15.0369C154.999 14.5981 154.825 14.1774 154.516 13.8671C154.207 13.5568 153.788 13.3823 153.351 13.3818H137.218C136.781 13.3823 136.362 13.5568 136.054 13.8671C135.745 14.1774 135.571 14.5981 135.57 15.0369V113.037C135.571 113.476 135.745 113.896 136.054 114.207C136.362 114.517 136.781 114.691 137.218 114.692ZM123.931 114.692H107.798C107.371 114.701 106.958 114.54 106.649 114.244C106.34 113.947 106.161 113.54 106.15 113.112V30.0162C106.161 29.5874 106.34 29.1804 106.649 28.8842C106.958 28.5881 107.371 28.4269 107.798 28.4362H123.931C124.358 28.4269 124.771 28.5881 125.08 28.8842C125.389 29.1804 125.569 29.5874 125.579 30.0162V113.112C125.569 113.54 125.389 113.947 125.08 114.244C124.771 114.54 124.358 114.701 123.931 114.692ZM65.0895 114.692H48.9564C48.5196 114.691 48.1007 114.517 47.7918 114.206C47.4829 113.896 47.3091 113.475 47.3086 113.037V38.4548C47.3091 38.016 47.4829 37.5954 47.7918 37.2851C48.1007 36.9748 48.5196 36.8003 48.9564 36.7998H65.0895C65.5264 36.8003 65.9452 36.9748 66.2541 37.2851C66.563 37.5954 66.7368 38.016 66.7374 38.4548V113.037C66.7368 113.475 66.563 113.896 66.2541 114.206C65.9452 114.517 65.5264 114.691 65.0895 114.692ZM35.6696 114.692H19.5365C19.0996 114.691 18.6808 114.517 18.3719 114.206C18.063 113.896 17.8892 113.475 17.8887 113.037V59.6428C17.8892 59.204 18.063 58.7833 18.3719 58.4731C18.6808 58.1628 19.0996 57.9883 19.5365 57.9878H35.6696C36.1065 57.9883 36.5253 58.1628 36.8342 58.4731C37.1431 58.7833 37.3169 59.204 37.3174 59.6428V113.037C37.3169 113.475 37.1431 113.896 36.8342 114.206C36.5253 114.517 36.1065 114.691 35.6696 114.692ZM78.3764 114.692H94.5094C94.9463 114.691 95.3651 114.517 95.6741 114.206C95.983 113.896 96.1568 113.475 96.1573 113.037V59.6428C96.1568 59.204 95.983 58.7833 95.6741 58.4731C95.3651 58.1628 94.9463 57.9883 94.5094 57.9878H78.3764C77.9395 57.9883 77.5207 58.1628 77.2117 58.4731C76.9028 58.7833 76.729 59.204 76.7285 59.6428V113.037C76.729 113.475 76.9028 113.896 77.2117 114.206C77.5207 114.517 77.9395 114.691 78.3764 114.692Z" fill="red"/>
<path d="M172.257 115.313H0.259814C0.190907 115.313 0.124822 115.286 0.0760975 115.237C0.027373 115.188 0 115.121 0 115.052C0 114.983 0.027373 114.917 0.0760975 114.868C0.124822 114.819 0.190907 114.791 0.259814 114.791H172.257C172.326 114.791 172.392 114.819 172.44 114.868C172.489 114.917 172.516 114.983 172.516 115.052C172.516 115.121 172.489 115.188 172.44 115.237C172.392 115.286 172.326 115.313 172.257 115.313Z" fill="#CBCBCB"/>
<path d="M215.127 159.939H130.947C130.878 159.939 130.812 159.911 130.764 159.862C130.715 159.813 130.688 159.747 130.688 159.678C130.688 159.608 130.715 159.542 130.764 159.493C130.812 159.444 130.878 159.417 130.947 159.417H215.127C215.196 159.417 215.262 159.444 215.311 159.493C215.359 159.542 215.387 159.608 215.387 159.678C215.387 159.747 215.359 159.813 215.311 159.862C215.262 159.911 215.196 159.939 215.127 159.939Z" fill="#CBCBCB"/>
<path fill-rule="evenodd" clip-rule="evenodd" d="M179.604 55.5194C179.604 58.5131 177.188 60.94 174.207 60.94C171.227 60.94 168.811 58.5131 168.811 55.5194C168.811 52.5257 171.227 50.0989 174.207 50.0989C177.188 50.0989 179.604 52.5257 179.604 55.5194ZM161.069 111.072C161.282 110.859 161.447 110.601 161.55 110.317C161.654 110.033 161.695 109.729 161.669 109.428C161.643 109.126 161.552 108.834 161.402 108.572C161.252 108.31 161.046 108.084 160.8 107.91L161.821 103.294L159.18 101.986L157.828 108.525C157.565 108.961 157.47 109.478 157.561 109.979C157.652 110.48 157.923 110.93 158.322 111.244C158.722 111.558 159.222 111.714 159.728 111.682C160.234 111.65 160.711 111.433 161.069 111.072ZM189.954 111.172C190.151 110.943 190.295 110.674 190.377 110.382C190.458 110.091 190.475 109.785 190.426 109.487C190.378 109.188 190.264 108.904 190.094 108.654C189.924 108.404 189.702 108.195 189.443 108.041L190.106 103.359L187.371 102.26L186.528 108.886C186.299 109.34 186.244 109.863 186.373 110.356C186.503 110.848 186.807 111.276 187.23 111.558C187.652 111.84 188.163 111.956 188.665 111.885C189.167 111.814 189.626 111.561 189.954 111.172ZM166.668 157.123L169.362 157.124L169.362 146.688L165.387 146.687L166.668 157.123ZM178.372 157.124L175.678 157.123L174.397 146.687L178.372 146.688L178.372 157.124Z" fill="#FFB7B7"/>
<path fill-rule="evenodd" clip-rule="evenodd" d="M161.363 159.747L170.049 159.747L170.049 156.241L164.744 156.241H164.744C163.847 156.241 162.988 156.599 162.354 157.236C161.72 157.872 161.363 158.736 161.363 159.637V159.747ZM170.373 159.747L179.059 159.747L179.059 156.241L173.754 156.241H173.754C172.857 156.241 171.997 156.599 171.363 157.236C170.729 157.872 170.373 158.736 170.373 159.637V159.747Z" fill="#2F2E41"/>
<path d="M164.423 105.042L163.629 128.569L165.387 154.594L169.916 154.699L170.575 130.423L174.31 118.284L173.933 154.061L179.062 154L182.238 129.385C182.238 129.385 186.433 109.015 184.107 105.042L173.394 101.464L164.423 105.042Z" fill="#444444"/>
<path d="M164.51 102.207L164.252 107.867C164.252 107.867 167.866 109.673 174.219 108.573C180.573 107.472 184.796 108.198 184.796 108.198L184.308 100.983L164.51 102.207Z" fill="#E5E5E5"/>
<path fill-rule="evenodd" clip-rule="evenodd" d="M180.074 52.1954C180.337 52.5616 180.523 52.9781 180.619 53.4193C180.753 54.2345 180.356 54.9711 179.952 55.7201C179.667 56.2482 179.379 56.7825 179.271 57.3549C179.221 57.6191 179.21 57.8935 179.198 58.1668C179.177 58.6572 179.157 59.1439 178.916 59.5616C178.752 59.8237 178.538 60.0498 178.285 60.2267C177.758 60.6194 177.159 60.9036 176.523 61.063C175.886 61.2225 175.225 61.254 174.576 61.1558C173.497 60.9868 172.268 60.3969 171.595 59.5005C171.307 59.1168 171.121 58.6777 170.934 58.2378C170.709 57.7062 170.483 57.1733 170.075 56.735C169.895 56.541 169.691 56.3722 169.486 56.2034C169.281 56.0338 169.075 55.8642 168.895 55.669C168.325 55.0135 167.999 54.1807 167.97 53.3114C167.945 52.4479 168.069 51.5866 168.338 50.7659C168.408 50.4933 168.515 50.2317 168.657 49.9887C168.852 49.7069 169.097 49.4633 169.379 49.27C169.454 49.2137 169.532 49.1606 169.61 49.1076C169.618 49.1019 169.627 49.0962 169.635 49.0904C169.818 48.7338 170.086 48.4283 170.415 48.2012C171.098 47.751 171.97 47.7733 172.79 47.7943C172.815 47.7949 172.84 47.7956 172.865 47.7962C172.874 47.7964 172.883 47.7964 172.892 47.7965C172.896 47.7965 172.9 47.7965 172.903 47.7965C173.059 47.7713 173.216 47.7501 173.373 47.7339C173.465 47.7156 173.55 47.6708 173.617 47.6049C173.684 47.5391 173.73 47.455 173.75 47.3631L174.092 47.6927C174.263 47.6902 174.434 47.6932 174.604 47.7016C174.68 47.5278 174.769 47.3602 174.87 47.2002L175.057 47.7368C175.229 47.7551 175.399 47.7782 175.569 47.8079L175.971 47.4871C175.991 47.4715 176.044 47.6176 176.093 47.7538C176.119 47.8247 176.143 47.8928 176.162 47.934C176.254 47.9578 176.346 47.9831 176.437 48.0114C176.504 48.0083 176.575 48.0007 176.64 47.9937C176.713 47.9859 176.779 47.9788 176.825 47.9796C177.31 47.9631 177.79 48.0832 178.211 48.3265C178.578 48.5948 178.879 48.944 179.091 49.3473C179.633 50.208 179.969 51.1827 180.074 52.1954ZM162.705 108.083L162.906 106.24C165.142 109.865 172.833 107.023 172.833 107.023L173.774 103.732L175.312 106.844C180.011 107.562 183.263 107.022 185.288 106.35L185.477 108.083L191.207 106.568C191.207 106.568 187.933 75.2475 187.933 71.8893C187.933 68.531 186.7 68.2681 186.7 68.2681L186.7 68.2682L186.7 68.268L178.696 64.9527L178.344 62.9853L170.217 62.7488L169.719 64.6746L161.522 68.2826L161.482 68.2681C161.482 68.2681 160.249 68.531 160.249 71.8893C160.249 75.2475 156.975 106.568 156.975 106.568L162.705 108.083Z" fill="black"/>
<path fill-rule="evenodd" clip-rule="evenodd" d="M145.286 6.69068C147.125 6.69068 148.616 5.19286 148.616 3.34522C148.616 1.49757 147.125 -0.000244141 145.286 -0.000244141C143.446 -0.000244141 141.955 1.49757 141.955 3.34522C141.955 3.62601 141.99 3.89873 142.054 4.15933L118.692 13.8445C118.104 12.8973 117.057 12.2671 115.864 12.2671C114.024 12.2671 112.533 13.7649 112.533 15.6125C112.533 16.4755 112.858 17.2621 113.393 17.8554L88.3265 45.1913C87.791 44.822 87.1426 44.606 86.4439 44.606C85.5045 44.606 84.656 44.9966 84.0505 45.625L60.037 27.6337C60.2407 27.2007 60.3547 26.7168 60.3547 26.2061C60.3547 24.3584 58.8635 22.8606 57.024 22.8606C55.1845 22.8606 53.6934 24.3584 53.6934 26.2061C53.6934 26.7155 53.8067 27.1984 54.0095 27.6306L29.9749 45.6037C29.3709 44.9878 28.5309 44.606 27.6021 44.606C25.7627 44.606 24.2715 46.1038 24.2715 47.9514C24.2715 49.7991 25.7627 51.2969 27.6021 51.2969C29.4416 51.2969 30.9328 49.7991 30.9328 47.9514C30.9328 47.2247 30.7021 46.5522 30.3103 46.0035L54.2692 28.087C54.8687 28.971 55.8789 29.5515 57.024 29.5515C58.1679 29.5515 59.1771 28.9723 59.7768 28.0899L83.7187 46.0276C83.3373 46.5718 83.1133 47.2353 83.1133 47.9514C83.1133 49.7991 84.6045 51.2969 86.4439 51.2969C88.2834 51.2969 89.7746 49.7991 89.7746 47.9514C89.7746 46.9936 89.3738 46.1297 88.7315 45.5198L113.77 18.2144C114.342 18.6794 115.071 18.958 115.864 18.958C117.703 18.958 119.194 17.4602 119.194 15.6125C119.194 15.1503 119.101 14.7099 118.932 14.3094L142.22 4.65531C142.728 5.85184 143.909 6.69068 145.286 6.69068Z" fill="black"/>
</svg>
