<svg width="179" height="164" viewBox="0 0 179 164" fill="none" xmlns="http://www.w3.org/2000/svg">
<path fill-rule="evenodd" clip-rule="evenodd" d="M142.632 155.586C142.632 160.233 114.831 164 80.5367 164C46.2424 164 18.4414 160.233 18.4414 155.586C18.4414 150.938 46.2424 147.171 80.5367 147.171C114.831 147.171 142.632 150.938 142.632 155.586ZM169.118 157.902C169.118 158.671 165.44 159.294 160.904 159.294C156.367 159.294 152.689 158.671 152.689 157.902C152.689 157.134 156.367 156.511 160.904 156.511C165.44 156.511 169.118 157.134 169.118 157.902Z" fill="#F4F4F4"/>
<path class="fill-primary" opacity="0.1" fill-rule="evenodd" clip-rule="evenodd" d="M71.9772 18.6929C80.8676 22.1491 90.1828 25.3107 99.9637 25.6504C108.599 25.9512 118.674 23.7043 124.406 17.8478C129.973 12.1733 140.438 11.7416 147.984 15.1692C155.183 18.4412 159.841 25.3639 159.489 32.2743C159.132 39.3126 154.295 45.2077 149.442 51.123L149.442 51.1231C147.35 53.6728 145.255 56.2261 143.514 58.8764C140.822 62.9793 138.918 67.9089 140.771 72.335C142.559 76.6015 147.148 79.1284 151.783 81.6799C155.882 83.9366 160.016 86.2126 162.278 89.7287C165.15 94.1958 164.092 100.226 159.802 103.789C156.425 106.601 151.622 107.763 146.971 108.495C138.595 109.813 130.044 110.069 121.532 110.323C98.5256 111.01 75.4602 111.69 52.5154 110.118C42.1502 109.41 31.5214 108.156 22.5004 103.775C18.0593 101.616 13.9594 98.5586 12.2393 94.466C10.5029 90.3447 11.4222 85.7241 13.4058 81.6785C14.8105 78.8135 16.7163 76.1619 18.6217 73.5109C19.4068 72.4185 20.1918 71.3262 20.9417 70.2192C26.4226 62.1301 29.9975 51.9149 24.9395 43.6314C24.3343 42.639 23.6164 41.6974 22.8993 40.7567L22.8992 40.7567C21.895 39.4396 20.8922 38.1243 20.2022 36.6739C18.4965 33.0949 18.8723 29.0698 19.4852 25.2452C20.3105 20.1622 21.8508 14.6842 26.6105 11.5103C31.5582 8.21372 38.5793 8.38152 44.72 9.5602C52.823 11.1235 60.4035 14.1228 67.9475 17.1077L67.948 17.1079C69.2913 17.6394 70.6335 18.1705 71.9772 18.6929ZM178.446 147.924C178.446 148.438 175.983 148.855 172.944 148.855C169.906 148.855 167.443 148.438 167.443 147.924C167.443 147.41 169.906 146.993 172.944 146.993C175.983 146.993 178.446 147.41 178.446 147.924ZM169.116 130.821C172.154 130.821 174.618 130.404 174.618 129.89C174.618 129.376 172.154 128.959 169.116 128.959C166.078 128.959 163.615 129.376 163.615 129.89C163.615 130.404 166.078 130.821 169.116 130.821ZM150.096 139.86C150.096 140.374 147.633 140.791 144.595 140.791C141.556 140.791 139.093 140.374 139.093 139.86C139.093 139.345 141.556 138.928 144.595 138.928C147.633 138.928 150.096 139.345 150.096 139.86ZM5.50129 134.995C8.53957 134.995 11.0026 134.578 11.0026 134.064C11.0026 133.55 8.53957 133.133 5.50129 133.133C2.46301 133.133 0 133.55 0 134.064C0 134.578 2.46301 134.995 5.50129 134.995ZM32.2819 139.06C32.2819 139.574 29.8189 139.991 26.7806 139.991C23.7423 139.991 21.2793 139.574 21.2793 139.06C21.2793 138.545 23.7423 138.128 26.7806 138.128C29.8189 138.128 32.2819 138.545 32.2819 139.06Z"/>
<path d="M95.8626 42.8903C95.8626 42.8903 93.9403 39.0903 94.1997 37.9607C94.4592 36.8312 92.8474 34.4186 92.8474 34.4186L92.9516 30.416C92.9516 30.416 92.7289 30.8252 91.5686 31.1833C91.4705 31.0544 91.3643 30.9275 91.254 30.8068C90.8338 30.3685 90.3666 29.978 89.8608 29.6425L87.818 25.2265L85.8426 22.1959C85.8426 22.1959 82.7273 15.8523 79.5099 14.4527L79.0033 13.4602C79.0199 13.4503 79.0323 13.4346 79.038 13.416C79.0437 13.3975 79.0422 13.3775 79.0339 13.3599L78.5191 12.3511C78.5099 12.3336 78.4946 12.3202 78.4761 12.3134C78.4576 12.3066 78.4373 12.3069 78.419 12.3143L77.9267 11.3484C77.7387 10.0967 77.2477 8.91013 76.4967 7.89216C76.4457 7.82054 76.3905 7.75506 76.3374 7.68753L77.1382 7.65888C77.8409 7.63228 78.6253 7.57089 79.0972 7.04499C79.2663 6.84897 79.3911 6.6186 79.4629 6.36971C79.5236 6.17465 79.5633 5.97365 79.5814 5.77014C79.5814 5.73944 79.5814 5.70875 79.5814 5.6801C79.5814 5.61052 79.5814 5.54231 79.5814 5.47547C79.5814 5.42021 79.5814 5.36701 79.5814 5.31176C79.5814 5.25651 79.5814 5.22377 79.5814 5.1808C79.5814 5.13782 79.5589 5.0396 79.5466 4.97616C79.5466 4.94956 79.5466 4.92296 79.5303 4.89636C79.5133 4.8162 79.4921 4.73697 79.467 4.65899C79.461 4.64369 79.4562 4.62796 79.4527 4.61192C79.4241 4.53007 79.3934 4.44821 79.3587 4.36841C79.3531 4.35789 79.3483 4.34694 79.3444 4.33567C79.3076 4.25586 79.2668 4.1781 79.2239 4.10239L79.2116 4.07783C79.1966 4.04607 79.1795 4.01531 79.1606 3.98575C78.607 3.11402 77.6346 2.60448 76.7092 2.14406C75.8457 1.68927 74.9593 1.27946 74.0535 0.916272C70.6858 -0.348846 66.9659 -0.296239 63.6352 1.06361C63.3062 1.18839 62.9946 1.35481 62.7078 1.55882C62.308 1.89778 61.9664 2.3001 61.6966 2.74977L60.1134 5.0928C59.8922 5.37782 59.719 5.69717 59.6006 6.0382C59.3044 7.1514 60.2339 8.26664 60.1297 9.41462C60.0766 9.98555 59.7702 10.5094 59.711 11.0803C59.6354 11.817 59.9765 12.5271 60.3095 13.1921L62.575 17.694C62.4545 18.2854 62.3217 18.8911 62.1766 19.4764C61.1328 20.5568 60.7814 21.1462 60.6854 21.4654L60.6547 21.4818C60.448 21.6155 60.2702 21.7895 60.1318 21.9933L57.9787 24.0888C57.9787 24.0888 54.2362 25.0628 53.4579 26.2967C53.4579 26.2967 47.5848 26.0389 47.6359 34.2549C47.6359 34.2549 47.3765 37.3366 47.2273 37.7479C47.0782 38.1592 47.2273 42.3173 47.2273 42.3173L47.1579 50.74C47.1579 50.74 46.9332 55.2071 47.1579 56.7991C47.3826 58.3912 47.642 64.4503 47.642 64.4503C47.642 64.4503 49.0454 70.356 48.5266 72.4616C48.0281 74.4773 48.5266 78.885 49.3437 78.9034C49.499 79.2247 49.6767 79.3823 49.8707 79.2922C49.9552 79.2556 50.0419 79.2241 50.1302 79.1981V84.23C50.1302 84.23 49.119 91.2796 50.2527 92.6199C49.501 93.6922 48.6185 95.5216 48.3938 96.0024L40.4473 95.5748L39.4361 95.8592L38.5086 96.1191L37.9469 109.066L38.1716 109.082L38.1552 109.477L38.6864 109.516L37.9469 122.555L48.9474 123.462C48.4632 124.549 47.9015 125.713 47.6829 125.825C47.2743 126.03 46.3837 125.416 46.1753 125.67C45.9669 125.924 45.3439 126.235 44.6166 126.079C43.8894 125.924 43.4216 126.746 43.4216 126.746C43.4216 126.746 43.5278 126.84 43.6872 127.014C42.5064 126.871 41.0131 127.505 40.2021 127.915C39.8385 128.099 39.6117 128.236 39.6117 128.236H37.4668L38.6455 135.769L39.4769 136.337L39.6812 142.272C39.6812 142.272 43.0069 152.542 44.5308 152.475C44.6298 152.471 44.7268 152.446 44.8153 152.402C44.9038 152.357 44.9816 152.294 45.0436 152.217C45.8607 151.271 45.2948 148.024 45.2948 148.024V142.618C45.2948 142.618 46.541 142.069 46.4021 141.658C46.2631 141.246 48.4122 136.747 48.6042 136.337C48.6097 136.334 48.6141 136.329 48.617 136.323C48.6199 136.318 48.6211 136.311 48.6205 136.305C48.6205 135.842 49.5562 135.329 49.503 135.124C49.4499 134.919 51.791 133.634 51.9544 132.505C52.1178 131.375 53.6683 131.991 53.6683 131.991L55.6417 129.72C55.7009 132.488 55.8133 134.426 56.0073 134.917C56.943 137.281 57.3066 140.978 57.3066 140.978C57.3066 140.978 56.7346 143.802 57.3066 144.727C57.6579 145.292 58.4751 145.898 59.043 146.399C58.4526 148.192 58.5363 152.002 58.5363 152.002V154.191L62.9018 155.419C62.9018 155.419 63.0387 154.325 63.2471 154.325C63.4554 154.325 66.2275 156.447 66.2275 156.447C66.2275 156.447 76.8992 156.584 79.5998 156.447C80.6212 156.395 80.899 155.955 80.7417 155.423C80.4822 154.537 79.0257 153.389 77.7306 153.301C75.651 153.164 73.0178 150.975 73.0178 150.975C73.0178 150.975 73.2221 150.494 72.1169 149.81C71.3529 149.34 69.2386 147.435 67.9312 146.319C67.9925 146.235 68.0558 146.152 68.1151 146.061C68.1151 146.061 66.348 143.606 66.7137 142.517C67.0794 141.429 66.5564 139.857 66.5564 139.857C66.5564 139.857 65.5697 136.826 65.5697 135.286C65.5697 134.309 65.4227 128.758 65.3164 124.821L66.2275 124.896L66.2459 124.504L66.6545 124.54L70.5174 124.896L70.3989 120.761C72.2599 119.942 73.8084 119.183 74.4498 118.698C76.6316 117.061 78.5028 116.953 78.5028 116.953C78.5028 116.953 82.9193 114.591 83.5955 113.615C84.2717 112.639 84.2083 105.553 84.2083 105.553L83.8447 90.3649V90.3526C83.8447 90.3526 83.5342 83.0104 82.9091 81.4184C82.6803 80.829 82.1145 78.8646 81.4955 76.6218C81.8512 76.5851 82.2104 76.6003 82.5618 76.6668C82.5843 77.2152 82.5986 77.5917 82.5986 77.7207C82.5986 78.5924 83.8447 79.3332 83.8447 79.3332L82.9622 59.6885V46.324C85.6832 47.1917 92.2631 47.4618 92.2631 47.4618C97.0045 47.2121 95.8626 42.8903 95.8626 42.8903ZM70.1967 26.0123H70.1824C70.279 25.4973 70.4052 24.9883 70.5603 24.4878L70.1967 26.0123ZM52.3385 93.3914C53.9502 93.6574 55.8112 93.5796 55.9522 93.2665C55.9665 93.2358 55.9849 93.1806 56.0094 93.109C56.0605 93.199 56.1095 93.2911 56.1606 93.3852L56.0033 96.3483V96.4158L50.692 96.1293C51.0637 94.5434 51.7665 93.7699 52.3385 93.3914ZM70.0435 108.342L69.9066 103.543C70.1436 102.659 70.356 101.857 70.5379 101.169C70.6196 101.74 70.689 102.266 70.7421 102.751C71.2447 107.304 70.5031 108.192 70.0435 108.342ZM85.1603 36.3973C84.8559 36.514 83.6976 35.7835 82.5986 35.0263C82.5986 34.8872 82.6088 34.7501 82.6149 34.6171C82.7702 31.4841 77.6775 29.534 76.1188 29.1739C75.7406 29.0761 75.3736 28.9389 75.0239 28.7646C74.1934 28.3526 73.386 27.8956 72.6052 27.3956L72.6256 27.3363C72.6256 27.3363 70.6155 26.0614 70.5726 24.4714C71.0307 23.0252 71.6088 21.62 72.3008 20.2703C72.3396 20.1905 72.3825 20.1066 72.4234 20.0268C73.3733 19.7309 74.26 19.2604 75.0382 18.6394C75.3507 22.732 81.2626 26.2538 81.2626 26.2538L81.8938 27.2769L82.043 27.5184C81.7243 27.7066 81.5711 27.8581 81.6793 27.9461C82.1288 28.3062 83.2155 30.3443 83.6649 31.2058C83.7875 31.4391 83.8692 31.5844 83.8692 31.5844C83.8692 31.5844 84.8355 34.218 85.3891 36.4219C85.3155 36.3911 85.2346 36.3826 85.1562 36.3973H85.1603Z" fill="url(#paint0_linear_958_18592)"/>
<path d="M87.4449 25.7837L87.3754 25.8758L87.1384 26.1929L82.5932 29.4098L81.629 27.8218L81.0161 26.7987C81.0161 26.7987 71.9563 21.3554 75.8519 16.1087C79.7476 10.8619 85.5042 22.7592 85.5042 22.7592L87.4449 25.7837Z" fill="#FFD5C2"/>
<path d="M78.3025 12.9656C78.2832 12.9272 78.2365 12.9118 78.1982 12.9311C78.1599 12.9504 78.1445 12.9972 78.1638 13.0355L78.6692 14.0407C78.6885 14.0791 78.7351 14.0945 78.7734 14.0752C78.8117 14.0559 78.8271 14.0091 78.8078 13.9708L78.3025 12.9656Z" fill="#3A3768"/>
<path d="M73.1163 14.3714L73.1145 14.3723C73.0933 14.383 73.0848 14.4088 73.0955 14.43L73.2462 14.7297C73.2568 14.7509 73.2826 14.7594 73.3038 14.7488L73.3056 14.7478C73.3267 14.7372 73.3353 14.7113 73.3246 14.6901L73.1739 14.3904C73.1633 14.3692 73.1375 14.3607 73.1163 14.3714Z" fill="#3A3768"/>
<path d="M73.5296 15.081C73.5174 15.0568 73.4879 15.047 73.4637 15.0592C73.4395 15.0714 73.4298 15.1009 73.442 15.1252L73.7277 15.6936C73.7399 15.7178 73.7694 15.7275 73.7936 15.7153C73.8178 15.7031 73.8275 15.6736 73.8153 15.6494L73.5296 15.081Z" fill="#3A3768"/>
<path d="M73.9703 15.9655C73.9586 15.9423 73.9304 15.933 73.9072 15.9446C73.884 15.9563 73.8747 15.9846 73.8864 16.0079L74.1767 16.5854C74.1884 16.6086 74.2166 16.6179 74.2398 16.6063C74.263 16.5946 74.2723 16.5663 74.2606 16.543L73.9703 15.9655Z" fill="#3A3768"/>
<path d="M76.7178 10.9928L72.9009 12.9183C72.6752 13.0322 72.5843 13.3078 72.698 13.5339L77.0294 22.1494C77.143 22.3755 77.4182 22.4665 77.6439 22.3526L81.4607 20.4271C81.6865 20.3133 81.7773 20.0377 81.6636 19.8116L77.3323 11.1961C77.2186 10.97 76.9435 10.879 76.7178 10.9928Z" fill="#3A3768"/>
<path class="fill-primary" d="M76.2288 11.5389C76.2069 11.5497 76.1874 11.5649 76.1714 11.5833C76.1554 11.6018 76.1433 11.6233 76.1357 11.6466C76.1281 11.6698 76.1252 11.6943 76.1271 11.7187C76.1291 11.7431 76.1359 11.7668 76.1471 11.7885L76.1634 11.8233C76.1747 11.8452 76.1815 11.8691 76.1835 11.8936C76.1855 11.9182 76.1826 11.9428 76.175 11.9662C76.1674 11.9897 76.1552 12.0113 76.1392 12.03C76.1232 12.0487 76.1037 12.064 76.0817 12.075L74.1165 13.0654C74.0948 13.0767 74.0711 13.0835 74.0468 13.0854C74.0225 13.0874 73.998 13.0845 73.9748 13.0769C73.9516 13.0692 73.9301 13.0571 73.9117 13.0411C73.8932 13.025 73.8782 13.0055 73.8673 12.9836L73.8489 12.9488C73.8381 12.9269 73.823 12.9074 73.8046 12.8913C73.7862 12.8752 73.7648 12.8629 73.7417 12.8551C73.7185 12.8474 73.6941 12.8442 73.6697 12.8459C73.6454 12.8476 73.6216 12.854 73.5997 12.8649L73.2177 13.0593C73.1758 13.0799 73.1385 13.1087 73.1078 13.144C73.0772 13.1793 73.0539 13.2203 73.0392 13.2647C73.0246 13.309 73.0189 13.3559 73.0226 13.4025C73.0262 13.4491 73.0391 13.4945 73.0604 13.5361L77.2359 21.838C77.2788 21.9221 77.353 21.9858 77.4425 22.0153C77.5321 22.0448 77.6296 22.0377 77.7139 21.9956L81.1418 20.2664C81.2257 20.2235 81.2893 20.1491 81.3188 20.0594C81.3482 19.9698 81.3411 19.8721 81.2991 19.7876L77.1215 11.4816C77.1005 11.4398 77.0714 11.4025 77.036 11.3719C77.0006 11.3414 76.9595 11.3181 76.9151 11.3035C76.8707 11.2888 76.8239 11.2831 76.7773 11.2867C76.7307 11.2902 76.6852 11.3029 76.6435 11.324L76.2288 11.5389Z"/>
<path d="M75.0879 12.1678L74.5716 12.4283C74.5353 12.4466 74.5207 12.4909 74.5389 12.5272C74.5572 12.5636 74.6014 12.5782 74.6377 12.5599L75.154 12.2994C75.1903 12.2811 75.2049 12.2368 75.1866 12.2005C75.1684 12.1641 75.1242 12.1495 75.0879 12.1678Z" fill="#E6E8EC"/>
<path d="M75.3555 12.1925C75.4019 12.1925 75.4395 12.1548 75.4395 12.1083C75.4395 12.0618 75.4019 12.0242 75.3555 12.0242C75.3091 12.0242 75.2715 12.0618 75.2715 12.1083C75.2715 12.1548 75.3091 12.1925 75.3555 12.1925Z" fill="#E6E8EC"/>
<path d="M79.1713 43.3823L77.8945 77.7031C77.8945 77.7031 82.1844 76.2707 82.8483 77.345C83.5123 78.4194 82.1334 60.156 82.1334 60.156L79.1713 43.3823Z" fill="#444444"/>
<path d="M79.3759 156.509C76.7202 156.646 66.2345 156.509 66.2345 156.509C66.2345 156.509 63.5093 154.395 63.3051 154.395C63.1008 154.395 62.966 155.486 62.966 155.486L58.6761 154.258V152.077C58.6761 152.077 58.5392 145.866 59.8323 145.596C61.1254 145.326 66.8473 145.596 66.8473 145.596C67.0516 145.528 70.9329 149.212 72.0217 149.893C73.1106 150.575 72.9063 151.053 72.9063 151.053C72.9063 151.053 75.4945 153.235 77.5373 153.372C78.81 153.458 80.242 154.6 80.4974 155.486C80.6526 156.02 80.3768 156.458 79.3759 156.509Z" fill="#616161"/>
<path opacity="0.1" d="M79.3756 156.509C76.7199 156.646 66.2342 156.509 66.2342 156.509C66.2342 156.509 63.5091 154.395 63.3048 154.395C63.1005 154.395 62.9657 155.486 62.9657 155.486L58.6758 154.258V152.119L62.6919 153.576L65.893 155.486H80.4971C80.6523 156.02 80.3765 156.458 79.3756 156.509Z" fill="black"/>
<g opacity="0.1">
<path d="M67.4512 153.304C67.4512 153.304 70.7197 150.167 72.9055 151.053Z" fill="black"/>
<path d="M67.4512 153.304C67.4512 153.304 70.7197 150.167 72.9055 151.053" stroke="black" stroke-width="0.164398" stroke-miterlimit="10"/>
</g>
<path d="M46.7567 141.775C46.8936 142.184 45.6679 142.73 45.6679 142.73V148.118C45.6679 148.118 46.2236 151.353 45.4207 152.297C45.3605 152.373 45.2843 152.436 45.1975 152.48C45.1108 152.524 45.0155 152.549 44.9182 152.553C43.4208 152.62 40.1523 142.388 40.1523 142.388L39.948 136.477L39.1309 135.91L37.9727 128.406H40.0849C40.0849 128.406 40.3076 128.269 40.6651 128.085C41.6865 127.563 43.8253 126.652 44.9877 127.52L48.9364 136.432C48.9364 136.432 46.6219 141.365 46.7567 141.775Z" fill="#616161"/>
<path opacity="0.1" d="M45.4207 152.297C45.3605 152.374 45.2843 152.436 45.1975 152.48C45.1108 152.525 45.0155 152.549 44.9182 152.553C43.4208 152.621 40.1523 142.389 40.1523 142.389L39.948 136.477L39.1309 135.91L37.9727 128.406H40.0849C40.0849 128.406 40.3076 128.269 40.6651 128.085L41.1737 135.773L41.4454 142.389C41.4454 142.389 44.0112 149.592 45.4207 152.297Z" fill="black"/>
<path d="M83.3074 113.826C82.6435 114.798 78.3025 117.151 78.3025 117.151C78.3025 117.151 76.464 117.253 74.319 118.89C73.2098 119.738 69.355 121.418 65.8924 122.844C62.6587 124.176 59.764 125.285 59.764 125.285L56.4301 129.173L53.8909 132.134C53.8909 132.134 52.3588 131.52 52.2056 132.646C52.0524 133.771 49.7542 135.05 49.8053 135.255C49.8564 135.459 48.9371 135.971 48.9371 136.431C48.9371 136.892 45.5154 133.106 45.5665 130.804C45.6175 128.502 43.8301 126.916 43.8301 126.916C43.8301 126.916 44.2897 126.098 45.0047 126.251C45.7197 126.405 46.3325 126.098 46.5368 125.842C46.7411 125.586 47.6093 126.2 48.0178 125.995C48.4264 125.791 50.0607 121.749 50.0607 121.749L56.4281 117.47L69.0935 108.966L69.6778 108.573C69.6778 108.573 71.3631 109.346 70.6787 103.009C70.546 101.781 70.3233 100.289 69.9842 98.4723C67.8903 87.2687 75.3976 85.9897 75.3976 85.9897L81.9857 88.1895L83.5689 90.6451V90.6574L83.9264 105.788C83.9264 105.788 83.9713 112.854 83.3074 113.826Z" fill="#444444"/>
<path opacity="0.1" d="M65.8407 120.989C65.8407 120.989 65.8611 121.715 65.8918 122.845C62.658 124.177 59.7634 125.286 59.7634 125.286L56.4295 129.174C56.3743 125.951 56.3866 121.764 56.4295 117.473L69.0949 108.969C67.5281 114.786 65.8407 120.989 65.8407 120.989Z" fill="black"/>
<path opacity="0.1" d="M83.5628 90.6517V90.664L73.6552 90.8563C73.6552 90.8563 71.9188 97.6604 71.6634 99.0928C71.6001 99.4447 71.216 100.949 70.6727 103.016C70.5399 101.788 70.3172 100.296 69.9781 98.4789C67.8842 87.2753 75.3915 85.9963 75.3915 85.9963L81.9796 88.1961L83.5628 90.6517Z" fill="black"/>
<path d="M57.4666 72.0812L56.1898 96.637C56.1898 96.637 55.2705 132.703 56.1898 135.057C57.1091 137.41 57.4666 141.093 57.4666 141.093C57.4666 141.093 56.9048 143.907 57.4666 144.828C58.0283 145.749 59.8158 146.772 59.7647 147.283C59.7137 147.795 65.2292 150.557 68.0892 146.158C68.0892 146.158 66.3528 143.702 66.7103 142.628C67.0678 141.554 66.5571 139.968 66.5571 139.968C66.5571 139.968 65.5867 136.949 65.5867 135.409C65.5867 133.868 65.2292 120.982 65.2292 120.982C65.2292 120.982 70.7959 100.519 71.0513 99.0864C71.3066 97.654 73.043 90.85 73.043 90.85L83.5635 90.6454C83.5635 90.6454 83.257 83.3298 82.6442 81.7439C82.0314 80.158 79.0182 68.5452 79.0182 68.5452L57.4666 72.0812Z" fill="#444444"/>
<path d="M39.9089 96.1543L38.9958 96.4162L38.959 97.3207L66.3367 97.6747V97.3186L39.9089 96.1543Z" fill="#7B728F"/>
<path d="M72.2011 20.8463C68.2176 28.9395 70.6914 30.6318 71.0857 30.8405C70.242 30.4476 59.2762 25.2868 60.7184 23.9771C61.6561 23.1238 62.4589 19.4118 62.9308 16.7516C63.2107 15.1637 63.3741 13.9502 63.3741 13.9502L74.8812 16.064C73.7659 17.8648 72.8793 19.4507 72.2011 20.8463Z" fill="#FFD5C2"/>
<path opacity="0.1" d="M87.3835 25.8759L87.1465 26.1931L82.5931 29.4099L81.6289 27.822C83.0323 27.0035 87.2405 25.571 87.2405 25.571L87.3835 25.8759Z" fill="black"/>
<path d="M91.5816 33.2526C91.1731 34.685 84.2786 33.2526 84.2786 33.2526L83.5636 32.1271C83.5636 32.1271 83.4921 31.9839 83.3716 31.7506C82.9303 30.8932 81.862 28.8633 81.4207 28.5031C80.8589 28.0427 87.447 25.7917 87.447 25.7917L89.4653 30.1913C89.9628 30.5264 90.4218 30.9155 90.834 31.3516C91.3447 31.9061 91.7675 32.5998 91.5816 33.2526Z" fill="#E5E8EF"/>
<path d="M80.1406 33.9116C80.1406 33.9116 84.2262 37.1407 84.8391 36.9074C85.4519 36.6741 95.3596 43.3758 95.3596 43.3758C95.3596 43.3758 96.4831 47.6731 91.8357 47.9289C91.8357 47.9289 81.9792 47.5196 81.5706 46.0872C81.162 44.6548 80.1406 33.9116 80.1406 33.9116Z" fill="black"/>
<path opacity="0.1" d="M69.0076 27.4202L64.5645 32.0244L70.795 71.723L73.2464 70.2905C73.2464 70.2905 79.5791 73.1042 80.0898 70.4952C80.6005 67.8861 80.4596 57.6034 80.4596 57.6034L79.6302 39.0269C79.6302 39.0269 76.7192 32.5299 76.7192 32.3252C76.7192 32.1206 72.5212 28.9488 72.5212 28.9488L70.5397 27.4141L69.0076 27.4202Z" fill="black"/>
<path d="M69.0076 26.8069L64.5645 31.4111L70.795 71.1097L73.2464 69.6773C73.2464 69.6773 79.5791 72.4909 80.0898 69.8819C80.6005 67.2728 80.4596 56.9901 80.4596 56.9901L79.6302 38.4136C79.6302 38.4136 76.7192 31.9166 76.7192 31.7119C76.7192 31.5073 72.5212 28.3355 72.5212 28.3355L70.5397 26.8008L69.0076 26.8069Z" fill="#E5E8EF"/>
<path opacity="0.1" d="M69.2647 27.4718L68.0391 29.9785L69.2647 31.2738C69.2647 31.2738 73.6568 40.1589 72.7886 45.4282L73.7079 62.7707L76.6699 65.6867L79.0192 62.9692L77.8956 47.2126C77.8956 47.2126 74.8825 34.2185 71.7161 30.177L70.7969 26.5959L69.2647 27.4718Z" fill="black"/>
<path class="fill-primary" d="M69.2647 27.0626L68.0391 29.5693L69.2647 30.8646C69.2647 30.8646 73.6568 39.7498 72.7886 45.019L73.7079 62.3616L76.6699 65.2776L79.0192 62.56L77.8956 46.8034C77.8956 46.8034 74.8825 33.8093 71.7161 29.7678L70.7969 26.1868L69.2647 27.0626Z"/>
<path opacity="0.1" d="M74.8801 16.0635C73.7648 17.8643 72.8863 19.4502 72.2 20.8458C71.477 21.0593 70.7271 21.1675 69.9733 21.167C67.4484 21.167 65.9939 19.4174 64.5639 17.5594C64.2371 17.1378 63.1626 17.2361 62.9297 16.7409C63.2096 15.1529 63.373 13.9395 63.373 13.9395L74.8801 16.0635Z" fill="black"/>
<path d="M77.8047 13.1167C77.8046 14.9847 77.139 16.7913 75.9276 18.2115C74.7162 19.6317 73.0386 20.5721 71.1966 20.8637C69.3546 21.1552 67.4693 20.7786 65.8798 19.8017C64.2903 18.8248 63.1011 17.3118 62.5261 15.5348C61.9511 13.7578 62.028 11.8336 62.7432 10.1084C63.4583 8.3832 64.7646 6.97031 66.427 6.12396C68.0894 5.27761 69.9988 5.05338 71.8116 5.49161C73.6243 5.92985 75.2214 7.00177 76.3155 8.5145C77.2836 9.85305 77.8048 11.4637 77.8047 13.1167V13.1167Z" fill="#FFD5C2"/>
<path opacity="0.1" d="M67.4761 30.592L61.0412 22.816C61.0412 22.816 60.4467 22.5766 62.4548 20.4709C62.4548 20.4709 69.8294 26.2293 70.287 27.2074C70.7446 28.1856 67.4761 30.592 67.4761 30.592Z" fill="black"/>
<path d="M67.271 30.1828L60.8361 22.4068C60.8361 22.4068 60.2417 22.1674 62.2497 20.0618C62.2497 20.0618 69.6243 25.8201 70.0819 26.7982C70.5395 27.7764 67.271 30.1828 67.271 30.1828Z" fill="#E5E8EF"/>
<path d="M83.5645 79.6733C83.5645 79.6733 82.3388 78.9367 82.3388 78.067C82.3388 77.1973 81.726 64.9194 81.726 64.9194C81.726 64.9194 80.8272 57.5915 79.8875 51.7677C79.3359 48.3361 78.77 45.4241 78.3697 44.8471L78.3533 44.8225C77.2808 43.4413 77.4851 36.6884 70.7949 26.8149C70.8848 26.8763 73.1911 28.497 74.8805 29.3114C75.2244 29.4846 75.5852 29.6217 75.9571 29.7207C77.4892 30.0788 82.4941 32.0228 82.3409 35.1434C82.1877 38.2641 82.6984 45.4262 82.6984 45.4262V60.1044L83.5645 79.6733Z" fill="black"/>
<path d="M83.5625 32.1266C83.5625 32.1266 85.7075 38.061 85.401 39.5445C85.0946 41.0281 90.3548 46.8601 90.3548 46.8601L95.3597 43.3814C95.3597 43.3814 93.4701 39.5957 93.7255 38.4702C93.9808 37.3447 92.3977 34.9403 92.3977 34.9403L92.4998 30.9541C92.4998 30.9541 91.5805 32.6832 83.5625 32.1266Z" fill="black"/>
<path opacity="0.1" d="M76.3141 8.51509L72.4328 8.66243C72.0537 8.65994 71.6759 8.70741 71.3092 8.80362C69.9221 9.2313 69.2827 10.7087 69.2317 12.0368C69.1806 13.3649 68.4145 14.8525 66.9294 14.9692C66.7816 14.9943 66.6298 14.9605 66.5066 14.875C66.4123 14.7747 66.3498 14.6487 66.3268 14.5128C66.1138 13.739 65.7845 13.0021 65.3503 12.3274C64.7375 12.4379 64.284 13.0211 64.1246 13.6309C63.9653 14.2407 64.0082 14.8832 64.0102 15.5155C64.0121 16.3186 63.9348 17.1199 63.7794 17.9077C63.1461 17.0842 62.6826 16.1428 62.4157 15.1382C62.1488 14.1337 62.084 13.086 62.2249 12.0561C62.3658 11.0263 62.7096 10.0347 63.2365 9.13911C63.7633 8.24352 64.4626 7.46177 65.2937 6.8393C66.1248 6.21683 67.0711 5.76606 68.0777 5.51319C69.0843 5.26032 70.131 5.2104 71.157 5.36633C72.183 5.52226 73.1678 5.88093 74.0542 6.42148C74.9405 6.96204 75.7108 7.6737 76.3202 8.51509H76.3141Z" fill="black"/>
<path d="M71.1069 8.59847C71.4736 8.50225 71.8514 8.45478 72.2304 8.45727L76.9432 8.28129C77.6337 8.25468 78.4038 8.19329 78.8675 7.67967C79.034 7.48354 79.1566 7.25398 79.2271 7.00643C79.3484 6.61091 79.384 6.19399 79.3315 5.78356C79.279 5.37313 79.1396 4.97867 78.9227 4.62657C78.3773 3.75688 77.4212 3.25144 76.5101 2.78488C75.6622 2.33108 74.7914 1.92128 73.9015 1.55709C70.5956 0.299497 66.9354 0.352189 63.667 1.70443C63.344 1.82859 63.0379 1.9929 62.7559 2.1935C62.3619 2.53163 62.0265 2.93265 61.7631 3.38036L60.2126 5.72134C59.9987 6.00719 59.8337 6.32668 59.7243 6.66674C59.4322 7.77789 60.3372 8.88904 60.2432 10.0329C60.1901 10.6018 59.8898 11.1236 59.8347 11.6925C59.7611 12.4271 60.0961 13.1249 60.425 13.7941L63.1501 19.3007C63.5902 18.0166 63.8132 16.668 63.81 15.3104C63.81 14.6781 63.7569 14.0355 63.9244 13.4257C64.0919 12.8159 64.5372 12.2327 65.1501 12.1222C65.5853 12.7966 65.9153 13.5336 66.1286 14.3077C66.1511 14.4437 66.2137 14.5698 66.3083 14.6699C66.4315 14.7556 66.5834 14.7894 66.7312 14.764C68.2245 14.6474 68.9783 13.174 69.0334 11.8316C69.0886 10.4893 69.7198 9.02615 71.1069 8.59847Z" fill="#444444"/>
<path d="M38.9961 96.416L40.9041 95.8696L69.673 97.4392L66.5066 97.8484L38.9961 96.416Z" fill="#444444"/>
<path opacity="0.1" d="M38.9961 96.416L40.9041 95.8696L69.673 97.4392L66.5066 97.8484L38.9961 96.416Z" fill="black"/>
<path d="M70.4556 125.065L66.66 124.711L65.3281 124.588V103.442L65.6795 98.5324L65.7571 97.4397H69.6732L70.4556 125.065Z" fill="#444444"/>
<path opacity="0.1" d="M69.4178 124.314L66.3904 123.978L65.3281 123.862V103.812L65.608 99.1586L65.6693 98.1211H68.7927L69.4178 124.314Z" fill="black"/>
<path d="M48.6543 96.4163C48.6543 96.4163 50.5439 92.2643 51.3365 92.1354C52.1291 92.0065 53.5836 92.1354 53.5836 92.1354L53.4549 93.3387C53.4549 93.3387 51.5142 93.4921 50.9014 96.7396L48.6543 96.4163Z" fill="#444444"/>
<path d="M55.9863 91.7014C55.9863 91.7014 61.0667 94.2327 60.4028 97.1999L57.645 97.0464C57.645 97.0464 56.3172 92.6223 55.2713 92.391C54.2254 92.1598 55.9863 91.7014 55.9863 91.7014Z" fill="#444444"/>
<path d="M74.8812 51.618V51.7674L74.779 68.807C74.779 68.807 72.1744 83.1313 71.4594 83.694C70.7445 84.2567 55.0659 82.722 55.0659 82.722L47.9671 34.787C47.9161 26.6018 53.687 26.8576 53.687 26.8576C54.4531 25.6298 58.1301 24.6578 58.1301 24.6578L60.1729 22.6626L60.2383 22.5705C60.374 22.3678 60.5491 22.1945 60.7531 22.061V22.061C61.1739 21.8175 61.4415 22.1387 61.5947 22.4559C61.6637 22.6048 61.7171 22.7605 61.7541 22.9204C70.0295 29 74.8812 51.618 74.8812 51.618Z" fill="black"/>
<path opacity="0.1" d="M74.6768 51.8229V51.9722C72.109 47.2657 62.2157 29.4341 59.509 28.546L60.5508 27.8298C60.5508 27.8298 61.2453 27.4205 59.9686 27.0113C59.9686 27.0113 57.9769 27.2671 57.9258 24.8626L60.034 22.7754L60.5488 22.2659L61.3904 22.6608C61.4594 22.8097 61.5128 22.9654 61.5497 23.1253C69.8252 29.2049 74.6768 51.8229 74.6768 51.8229Z" fill="black"/>
<path d="M74.8819 51.6178V51.7672C72.3141 47.0606 62.4208 29.229 59.714 28.3409L60.7559 27.6247C60.7559 27.6247 61.4504 27.2155 60.1737 26.8062C60.1737 26.8062 58.1819 27.062 58.1309 24.6576L60.239 22.5703L60.7538 22.0608L61.5955 22.4557C61.6644 22.6047 61.7178 22.7603 61.7548 22.9202C70.0302 28.9999 74.8819 51.6178 74.8819 51.6178Z" fill="#272727"/>
<path opacity="0.1" d="M78.5747 45.0439L78.5584 45.0193C77.4859 43.638 77.6902 36.8852 71 27.0117C71.0899 27.0731 73.3962 28.6938 75.0856 29.5082L74.6137 31.0675L75.6351 31.6139L78.5747 45.0439Z" fill="black"/>
<path d="M78.3697 44.8388L78.3533 44.8142C77.2808 43.433 77.4851 36.6801 70.7949 26.8066C70.8848 26.868 73.1911 28.4887 74.8805 29.3031L74.4087 30.8624L75.4301 31.4088L78.3697 44.8388Z" fill="#272727"/>
<path opacity="0.1" d="M70.5008 25.2307L70.082 27.0028C70.082 27.0028 70.3885 28.777 72.2249 28.9305L72.5212 28.0853C72.5212 28.0853 70.5396 26.8125 70.5008 25.2307Z" fill="black"/>
<path d="M70.5008 25.0259L70.082 26.798C70.082 26.798 70.3885 28.5721 72.2249 28.7256L72.5212 27.8805C72.5212 27.8805 70.5396 26.6077 70.5008 25.0259Z" fill="#E5E8EF"/>
<path opacity="0.1" d="M67.8612 97.7261L66.66 124.711L65.3281 124.588V103.441L65.6795 98.5323L67.8612 97.7261Z" fill="black"/>
<path d="M39.2702 108.148L38.4531 122.744L66.2353 125.065L67.4529 97.7261L39.2702 108.148Z" fill="#444444"/>
<path opacity="0.1" d="M38.6562 109.717L39.1996 96.8257L67.656 98.1353L66.3016 111.764L38.6562 109.717Z" fill="black"/>
<path d="M38.4531 109.308L38.9965 96.4165L67.4529 97.7261L66.0985 111.355L38.4531 109.308Z" fill="#444444"/>
<path d="M53.8397 109.324H50.418V113.315H53.8397V109.324Z" fill="#C3BBC8"/>
<path d="M50.9296 83.1826L50.4189 84.5639C50.4189 84.5639 49.3464 92.1353 50.6743 93.0561C52.0021 93.9769 55.9345 94.0281 56.1388 93.5677C56.343 93.1073 57.773 87.8891 57.773 87.8891C57.773 87.8891 59.0498 91.726 59.7137 91.419C60.3776 91.1121 58.1816 83.819 58.1816 83.819L50.9296 83.1826Z" fill="#FFD5C2"/>
<path opacity="0.1" d="M50.418 77.4528V84.7684C50.418 84.7684 55.8314 85.7916 58.1806 84.0236C58.1806 84.0236 55.9846 76.9413 56.8018 75.1507C57.6189 73.3602 50.418 77.4528 50.418 77.4528Z" fill="black"/>
<path d="M50.418 77.248V84.5636C50.418 84.5636 55.8314 85.5867 58.1806 83.8187C58.1806 83.8187 55.9846 76.7364 56.8018 74.9459C57.6189 73.1554 50.418 77.248 50.418 77.248Z" fill="#E5E8EF"/>
<path opacity="0.1" d="M49.8049 34.4294L48.3749 35.1967C48.3749 35.1967 48.1195 38.2662 47.9663 38.6755C47.8131 39.0847 47.9663 43.2285 47.9663 43.2285L47.8969 51.6184C47.8969 51.6184 47.6763 56.0692 47.8969 57.6551C48.1175 59.241 48.3647 65.2776 48.3647 65.2776C48.3647 65.2776 49.7456 71.1608 49.2349 73.2582C48.7242 75.3557 49.286 80.0622 50.1542 79.653C51.0224 79.2437 59.0404 77.6578 59.449 77.3509C59.8575 77.0439 59.6533 74.1791 59.449 73.821C59.2447 73.4629 58.019 68.6029 58.1212 67.4774C58.2233 66.3519 57.7637 56.4784 57.7637 56.4784C57.7637 56.4784 58.5297 45.9399 58.8361 43.4843C59.1426 41.0287 58.2233 33.8155 57.4062 33.7132C56.589 33.6109 54.1969 28.0346 49.8049 34.4294Z" fill="black"/>
<path d="M49.3967 34.0195L47.9667 34.7868C47.9667 34.7868 47.7113 37.8563 47.5581 38.2656C47.4049 38.6748 47.5581 42.8186 47.5581 42.8186L47.4887 51.2085C47.4887 51.2085 47.2681 55.6593 47.4887 57.2452C47.7093 58.831 47.9565 64.8677 47.9565 64.8677C47.9565 64.8677 49.3374 70.7508 48.8267 72.8483C48.316 74.9458 48.8778 79.6523 49.746 79.2431C50.6142 78.8338 58.6322 77.2479 59.0408 76.9409C59.4493 76.634 59.2451 73.7692 59.0408 73.4111C58.8365 73.0529 57.6108 68.1929 57.713 67.0675C57.8151 65.942 57.3555 56.0685 57.3555 56.0685C57.3555 56.0685 58.1215 45.53 58.4279 43.0744C58.7344 40.6188 57.8151 33.4056 56.998 33.3033C56.1808 33.2009 53.7887 27.6247 49.3967 34.0195Z" fill="black"/>
<g opacity="0.1">
<path opacity="0.1" d="M64.8415 11.355C64.2286 11.4655 63.7751 12.0487 63.6158 12.6585C63.4565 13.2683 63.4994 13.9108 63.5014 14.5431C63.5053 15.9006 63.283 17.2493 62.8436 18.5335L60.1165 13.0268C60.0633 12.9184 60.0082 12.8058 59.9551 12.6933C60.0813 13.0722 60.2377 13.4404 60.4229 13.7942L63.15 19.3008C63.5894 18.0167 63.8117 16.668 63.8078 15.3105C63.8078 14.6782 63.7568 14.0357 63.9222 13.4259C64.0877 12.8161 64.5351 12.2329 65.1479 12.1223C65.3457 12.4327 65.5225 12.7561 65.677 13.0903C65.4695 12.4802 65.1889 11.8975 64.8415 11.355V11.355Z" fill="black"/>
<path opacity="0.1" d="M78.9719 4.7146C79.0918 5.21803 79.0749 5.74444 78.9229 6.2391C78.8517 6.48678 78.7284 6.71633 78.5613 6.91234C78.0976 7.42597 77.3356 7.48736 76.637 7.51396L71.9263 7.68994C71.5465 7.68744 71.1681 7.73491 70.8007 7.83114C69.4157 8.25882 68.7742 9.73626 68.7232 11.0643C68.6721 12.3924 67.906 13.8801 66.4209 13.9967C66.2731 14.0218 66.1213 13.9881 65.998 13.9026V13.9026C66.045 14.0356 66.09 14.1706 66.1288 14.3118C66.1498 14.4479 66.2118 14.5743 66.3065 14.674C66.4298 14.7595 66.5816 14.7933 66.7294 14.7682C68.2247 14.6515 68.9765 13.1782 69.0316 11.8358C69.0868 10.4934 69.7241 9.03028 71.1092 8.6026C71.4766 8.50637 71.855 8.4589 72.2347 8.4614L76.9455 8.28542C77.6359 8.25882 78.4061 8.19743 78.8698 7.68381C79.0369 7.48779 79.1601 7.25824 79.2314 7.01057C79.3472 6.63044 79.3839 6.23055 79.3393 5.83564C79.2946 5.44073 79.1696 5.05918 78.9719 4.7146V4.7146Z" fill="black"/>
</g>
<path opacity="0.1" d="M71.3027 88.644C71.3027 88.644 73.0718 87.7231 73.7541 87.7743C74.4364 87.8254 80.5628 95.6301 80.5628 95.6301L71.3027 88.644Z" fill="black"/>
<path opacity="0.1" d="M53.1575 35.8245C53.1575 35.8245 49.9237 37.2078 50.0095 38.1634C50.0953 39.119 53.1575 35.8245 53.1575 35.8245Z" fill="black"/>
<path opacity="0.1" d="M51.5816 40.3469C51.5816 40.3469 48.1885 44.6933 48.9382 44.8386C49.688 44.9839 51.5816 40.3469 51.5816 40.3469Z" fill="black"/>
<path opacity="0.1" d="M62.9315 46.8601C62.9315 46.8601 63.242 56.5801 60.7539 57.8079L62.9315 46.8601Z" fill="black"/>
<path opacity="0.1" d="M50 72.8136C50 72.8136 52.3942 71.4508 52.9437 71.723C53.4932 71.9951 50 72.8136 50 72.8136Z" fill="black"/>
<path opacity="0.1" d="M50.418 74.699C50.418 74.699 51.9297 74.8075 52.6467 74.4944C53.3637 74.1813 50.418 74.699 50.418 74.699Z" fill="black"/>
<path opacity="0.1" d="M86.5039 38.9062C86.5039 38.9062 88.3792 44.3024 89.4598 44.3024Z" fill="black"/>
<path opacity="0.1" d="M59.8379 142.253C59.8379 142.253 63.3556 141.298 63.8745 142.253C64.3934 143.209 59.8379 142.253 59.8379 142.253Z" fill="black"/>
<path opacity="0.1" d="M48.6556 128.085C48.6556 128.085 47.7792 129.43 48.9375 129.839C50.0958 130.248 48.6556 128.085 48.6556 128.085Z" fill="black"/>
<path opacity="0.1" d="M72.0215 109.324C72.0215 109.324 74.6771 111.694 75.9314 111.764C77.1857 111.833 72.0215 109.324 72.0215 109.324Z" fill="black"/>
<path fill-rule="evenodd" clip-rule="evenodd" d="M142.484 9.92902C142.484 9.92902 134.721 9.46041 135.628 14.9159C135.628 14.9159 135.447 15.8797 136.319 16.3176C136.319 16.3176 136.333 15.9084 137.116 16.0495C137.395 16.0976 137.679 16.1113 137.961 16.0905C138.339 16.0622 138.697 15.9129 138.983 15.6648C138.983 15.6648 141.166 14.7604 142.016 11.1834C142.016 11.1834 142.645 10.4038 142.629 10.2032L141.314 10.7639C141.314 10.7639 141.761 11.7114 141.41 12.4992C141.41 12.4992 141.367 10.7987 141.113 10.8376C141.062 10.8376 140.433 11.167 140.433 11.167C140.433 11.167 141.203 12.8184 140.621 14.0176C140.621 14.0176 140.844 11.9835 140.192 11.2857L139.271 11.826C139.271 11.826 140.172 13.5305 139.561 14.922C139.561 14.922 139.718 12.7877 139.077 11.9569L138.241 12.6117C138.241 12.6117 139.087 14.2918 138.57 15.4459C138.57 15.4459 138.503 12.9617 138.059 12.7734C138.059 12.7734 137.328 13.42 137.216 13.6861C137.216 13.6861 137.796 14.9138 137.436 15.5502C137.436 15.5502 137.216 13.8948 137.028 13.8866C137.028 13.8866 136.298 14.9834 136.223 15.7283C136.258 15.0336 136.475 14.3604 136.852 13.7761C136.431 13.8555 136.043 14.0568 135.735 14.3552C135.735 14.3552 135.849 13.5796 137.032 13.5121C137.032 13.5121 137.634 12.6793 137.796 12.6302C137.796 12.6302 136.619 12.5299 135.904 12.8471C135.904 12.8471 136.533 12.1165 138.01 12.4378L138.827 11.7625C138.827 11.7625 137.277 11.5579 136.621 11.785C136.621 11.785 137.377 11.1384 139.048 11.609L139.949 11.0709C139.949 11.0709 138.627 10.7864 137.841 10.8887C137.841 10.8887 138.67 10.4406 140.212 10.9256L140.854 10.637C140.854 10.637 139.888 10.4467 139.604 10.416C139.32 10.3853 139.305 10.3076 139.305 10.3076C139.919 10.2067 140.548 10.2775 141.124 10.5122C141.124 10.5122 142.509 10.015 142.484 9.92902ZM176.621 12.2437C176.621 12.2437 159.423 11.1981 161.449 23.2713C161.449 23.2713 161.041 25.4057 162.977 26.3756C162.977 26.3756 163.008 25.4793 164.742 25.7842C165.359 25.8868 165.986 25.917 166.609 25.8743C167.451 25.8169 168.252 25.4873 168.891 24.935C168.891 24.935 173.726 22.9357 175.606 15.0185C175.606 15.0185 176.997 13.2915 176.942 12.8474L174.039 14.0895C174.039 14.0895 175.032 16.187 174.243 17.9305C174.243 17.9305 174.149 14.1652 173.592 14.2471C173.477 14.2655 172.082 14.9735 172.082 14.9735C172.082 14.9735 173.79 18.6282 172.501 21.2823C172.501 21.2823 172.991 16.7804 171.551 15.2375L169.508 16.4326C169.508 16.4326 171.504 20.206 170.152 23.2857C170.152 23.2857 170.499 18.5628 169.079 16.7231L167.228 18.1699C167.228 18.1699 169.102 21.8901 167.96 24.4439C167.96 24.4439 167.81 18.9454 166.826 18.53C166.826 18.53 165.208 19.9624 164.961 20.5477C164.961 20.5477 166.244 23.2488 165.447 24.6731C165.447 24.6731 164.959 21.0102 164.558 20.9897C164.558 20.9897 162.945 23.4166 162.777 25.0823C162.777 25.0823 162.846 22.6063 164.168 20.7585C164.168 20.7585 162.607 21.0265 161.696 22.0415C161.696 22.0415 161.948 20.3246 164.556 20.1753C164.556 20.1753 165.888 18.3336 166.246 18.221C166.246 18.221 163.641 18.0041 162.062 18.704C162.062 18.704 163.453 17.0853 166.724 17.822L168.562 16.3282C168.562 16.3282 165.132 15.8575 163.68 16.3773C163.68 16.3773 165.353 14.9449 169.055 15.9885L171.044 14.7955C171.044 14.7955 168.121 14.1652 166.381 14.3862C166.381 14.3862 168.219 13.3938 171.626 14.4701L173.056 13.8296C173.056 13.8296 170.916 13.4081 170.288 13.3426C169.661 13.2771 169.627 13.1011 169.627 13.1011C170.984 12.8746 172.377 13.0298 173.651 13.5493C173.651 13.5493 176.674 12.4259 176.621 12.2437ZM165.082 154.444C164.946 154.908 164.674 155.321 164.299 155.627C163.745 156.135 163.124 156.566 162.455 156.908H159.46C159.442 156.849 159.417 156.793 159.386 156.74C159.133 156.355 158.796 156.032 158.4 155.796C158.321 155.744 158.242 155.692 158.162 155.64C157.739 155.364 157.312 155.085 157.017 154.687C156.665 154.215 156.557 153.484 156.966 153.05C157.29 152.7 157.822 152.653 158.3 152.67C158.584 152.662 158.866 152.729 159.117 152.864C159.523 153.114 159.652 153.664 159.656 154.137C159.657 154.29 159.649 154.444 159.64 154.599C159.623 154.924 159.605 155.251 159.676 155.569C159.683 154.268 159.979 152.823 161.041 152.074C161.374 151.839 161.881 151.71 162.158 152.009C162.256 152.126 162.32 152.267 162.344 152.418C162.416 152.782 162.393 153.158 162.277 153.51C162.16 153.862 161.955 154.178 161.68 154.427C162.214 154.501 162.681 154.098 163.088 153.746C163.494 153.394 164.032 153.046 164.534 153.239C164.984 153.421 165.184 153.973 165.082 154.444Z" fill="#C2E69F"/>
<path opacity="0.1" d="M27.0624 116.173C27.1607 116.315 27.2378 116.47 27.2912 116.634C29.2564 118.946 30.3044 121.105 28.4148 121.16C26.6559 121.209 24.5457 124.36 24.0391 125.156C24.0557 125.218 24.0755 125.279 24.0983 125.339C24.0983 125.339 26.5742 121.217 28.5925 121.16C30.6108 121.103 29.2789 118.657 27.0624 116.173Z" fill="black"/>
<path d="M29.148 118.052C29.148 118.569 29.0908 118.989 29.0193 118.989C28.9478 118.989 28.8906 118.58 28.8906 118.052C28.8906 117.524 28.9621 117.778 29.0336 117.778C29.1051 117.778 29.148 117.534 29.148 118.052Z" fill="#FFD037"/>
<path d="M29.8651 118.67C29.4116 118.918 29.0153 119.067 28.9827 119.006C28.95 118.944 29.287 118.691 29.7405 118.443C30.194 118.195 30.0163 118.376 30.049 118.443C30.0817 118.511 30.3187 118.425 29.8651 118.67Z" fill="#FFD037"/>
<path class="fill-primary" fill-rule="evenodd" clip-rule="evenodd" d="M21.654 119.856C20.0136 117.642 21.1372 116.173 21.1372 116.173C18.9207 118.657 17.5908 121.097 19.6112 121.154C21.5132 121.208 23.8172 124.864 24.0805 125.292C24.0854 125.305 24.0906 125.319 24.0958 125.332C24.0958 125.332 24.0975 125.33 24.1006 125.325C24.1038 125.33 24.1054 125.332 24.1054 125.332C24.1106 125.319 24.1158 125.305 24.1207 125.292C24.3839 124.864 26.6898 121.208 28.59 121.154C30.6083 121.097 29.2805 118.657 27.0641 116.173C27.0641 116.173 28.1876 117.642 26.5472 119.856C25.4267 121.369 24.4405 122.725 24.1006 123.873C23.7607 122.725 22.7745 121.369 21.654 119.856Z"/>
<path opacity="0.1" d="M21.1377 116.173C21.0392 116.315 20.9614 116.47 20.9069 116.634C18.9417 118.946 17.8958 121.105 19.7833 121.16C21.5442 121.209 23.6544 124.36 24.1611 125.156C24.1446 125.218 24.1242 125.279 24.0998 125.339C24.0998 125.339 21.6259 121.217 19.6056 121.16C17.5852 121.103 18.9212 118.657 21.1377 116.173Z" fill="black"/>
<path d="M19.0488 118.052C19.0488 118.569 19.1081 118.989 19.1796 118.989C19.2511 118.989 19.3083 118.58 19.3083 118.052C19.3083 117.524 19.2368 117.778 19.1653 117.778C19.0938 117.778 19.0488 117.534 19.0488 118.052Z" fill="#FFD037"/>
<path d="M18.3358 118.67C18.7893 118.918 19.1836 119.067 19.2183 119.006C19.2531 118.944 18.9119 118.691 18.4584 118.443C18.0049 118.195 18.1847 118.376 18.1499 118.443C18.1152 118.511 17.8803 118.425 18.3358 118.67Z" fill="#FFD037"/>
<path d="M19.4062 125.153C19.4062 125.153 22.544 125.057 23.4919 124.382C24.4397 123.706 28.319 122.902 28.5519 123.985C28.7848 125.067 33.2688 129.364 29.7265 129.393C26.1843 129.422 21.494 128.84 20.5502 128.263C19.6064 127.686 19.4062 125.153 19.4062 125.153Z" fill="#A8A8A8"/>
<path opacity="0.2" d="M29.7878 129.016C26.2456 129.045 21.5553 128.463 20.6115 127.886C19.8945 127.448 19.6064 125.875 19.5104 125.148H19.4062C19.4062 125.148 19.6105 127.684 20.5482 128.259C21.4858 128.834 26.1823 129.417 29.7245 129.388C30.7459 129.388 31.0993 129.016 31.0809 128.476C30.9379 128.805 30.5477 129.01 29.7878 129.016Z" fill="black"/>
<defs>
<linearGradient id="paint0_linear_958_18592" x1="66.726" y1="156.508" x2="66.726" y2="-0.000476609" gradientUnits="userSpaceOnUse">
<stop stop-color="#808080" stop-opacity="0.25"/>
<stop offset="0.54" stop-color="#808080" stop-opacity="0.12"/>
<stop offset="1" stop-color="#808080" stop-opacity="0.1"/>
</linearGradient>
</defs>
</svg>
