<svg width="81" height="82" viewBox="0 0 81 82" fill="none" xmlns="http://www.w3.org/2000/svg">
<path d="M42.9662 40.792C42.9662 40.2638 42.9662 39.7676 42.9662 39.2714C42.9662 36.6623 42.9662 34.0372 42.9662 31.4282C42.9662 30.3237 42.47 29.8115 41.3656 29.7955C40.5492 29.7795 39.7329 29.7795 38.9006 29.7955C37.8441 29.8115 37.3159 30.3397 37.3159 31.3962C37.3159 34.3094 37.3159 37.2226 37.3159 40.1358C37.3159 40.3439 37.3159 40.5679 37.3159 40.76C35.8113 40.76 34.3387 40.8721 32.8981 40.728C31.5855 40.584 30.6892 39.3034 30.6892 37.9109C30.6732 34.4534 30.6892 30.996 30.6892 27.5546C30.6892 27.3465 30.6892 27.1384 30.6892 26.7862C30.241 27.1064 29.8888 27.3625 29.5367 27.6026C28.5123 28.3229 27.2958 28.1468 26.6075 27.2184C25.9192 26.274 26.1433 25.0575 27.1357 24.3212C31.0093 21.5041 34.8989 18.6869 38.7725 15.8697C39.7169 15.1814 40.5332 15.1814 41.4776 15.8697C45.3512 18.6709 49.2088 21.472 53.0824 24.2732C54.1228 25.0415 54.3469 26.258 53.6587 27.2024C52.9704 28.1468 51.7379 28.2909 50.6814 27.5546C50.3613 27.3305 50.0412 27.0904 49.625 26.8023C49.609 27.1224 49.593 27.3625 49.593 27.5866C49.593 30.916 49.593 34.2613 49.593 37.5907C49.593 38.391 49.4649 39.1434 48.9207 39.7676C48.4565 40.3279 47.8803 40.744 47.144 40.776C45.7994 40.8241 44.4228 40.792 42.9662 40.792Z" fill="#C2B777"/>
<path d="M59.7109 50.4858H55.7578V68.5327H59.7109C60.4234 68.5327 61 67.9562 61 67.2437V51.7749C61 51.0624 60.4234 50.4858 59.7109 50.4858Z" fill="#C2B777"/>
<path d="M18.2891 50.4858C17.5766 50.4858 17 51.0624 17 51.7749V67.2437C17 67.9562 17.5766 68.5327 18.2891 68.5327H22.2422V50.4858H18.2891Z" fill="#C2B777"/>
<path d="M38.0157 51.7749C37.0325 51.7749 36.1488 52.3212 35.7095 53.1999L31.7856 61.05C32.4427 61.3383 33.1376 61.4844 33.8476 61.4844C35.8102 61.4844 37.5764 60.3905 38.4563 58.6281L39.3047 56.9312H41.7998C42.4783 56.9312 43.143 57.2068 43.6226 57.6865L53.1798 67.2436V51.7749H38.0157Z" fill="#C2B777"/>
<path d="M41.7997 59.5092H40.8984L40.8239 59.6583C39.6063 62.0934 37.2317 63.8126 34.518 64.0345C32.5213 64.1978 31.1377 63.6234 29.4969 62.8771C28.8297 62.5738 28.5394 61.7766 28.8672 61.121L33.4025 52.048C34.276 50.3005 36.0621 49.1967 38.0156 49.1967H43.5786C43.9356 48.4058 44.1562 47.5424 44.1562 46.6185C44.1562 45.906 43.5797 45.3295 42.8672 45.3295H32.8593C31.3942 45.3295 30.0549 46.1571 29.3997 47.4676L28.2471 49.7729C28.0286 50.2097 27.5823 50.4857 27.0938 50.4857H24.8203V68.5326H30.7319L34.3838 72.1845C35.4424 73.2431 36.9671 73.5773 38.2824 73.1375L49.2911 69.6768C49.949 69.4917 50.5037 69.1297 50.9561 68.6655L41.7997 59.5092Z" fill="#C2B777"/>
<path d="M40.2485 5C39.536 5 38.9595 5.57655 38.9595 6.28906V10.1563C38.9595 10.8688 39.536 11.4453 40.2485 11.4453C40.961 11.4453 41.5376 10.8688 41.5376 10.1563V6.28906C41.5376 5.57655 40.961 5 40.2485 5Z" fill="#C2B777"/>
<path d="M33.4255 13.112L30.8474 10.5339C30.3438 10.0304 29.5281 10.0304 29.0246 10.5339C28.5211 11.0374 28.5211 11.8532 29.0246 12.3567L31.6027 14.9348C32.1062 15.4383 32.922 15.4383 33.4255 14.9348C33.9291 14.4313 33.9291 13.6155 33.4255 13.112Z" fill="#C2B777"/>
<path d="M51.4724 10.5339C50.9689 10.0304 50.1531 10.0304 49.6496 10.5339L47.0715 13.112C46.568 13.6155 46.568 14.4313 47.0715 14.9348C47.575 15.4383 48.3908 15.4383 48.8943 14.9348L51.4724 12.3567C51.9759 11.8532 51.9759 11.0374 51.4724 10.5339Z" fill="#C2B777"/>
</svg>
