<svg width="81" height="82" viewBox="0 0 81 82" fill="none" xmlns="http://www.w3.org/2000/svg">
<g clip-path="url(#clip0_1206_23955)">
<path d="M33.273 37.4561V55.8553C33.273 56.6734 32.7571 57.401 31.9871 57.6705C30.8975 58.0536 29.5827 58.2557 28.1833 58.2557C24.1581 58.2557 19.8288 56.6041 19.8288 52.9774V29.4346C19.7383 27.8176 20.3023 24.9609 23.0108 23.4151C24.2678 22.6971 30.8686 18.4525 34.1835 16.308C34.7745 15.925 35.5291 15.898 36.1489 16.233C36.7688 16.5718 37.1538 17.2205 37.1538 17.925V20.7124C37.1538 21.775 36.2914 22.6374 35.2288 22.6374C34.401 22.6374 33.6945 22.1158 33.4231 21.3804C30.4278 23.3054 26.0157 26.1313 24.9204 26.7569C23.9348 27.321 23.7211 28.3566 23.6788 28.9187C23.6788 29.5501 23.8154 30.0468 24.0618 30.3182C24.7452 31.0632 27.0225 30.5992 29.5077 29.1074C31.8947 27.6752 43.668 19.8366 43.7854 19.7576C44.3802 19.363 45.1387 19.3264 45.7605 19.6633C46.388 19.9983 46.7788 20.6508 46.7788 21.3612V21.5806C46.7788 22.2236 46.4573 22.8242 45.9241 23.1822C45.9241 23.1822 37.7505 28.6377 37.0267 29.1016C34.2567 30.8841 33.273 33.0709 33.273 37.4561ZM62.1788 28.166V53.1564C62.1788 53.8167 61.8381 54.4327 61.2779 54.785C61.2779 54.785 50.0551 63.5014 47.7779 64.8855C46.5805 65.615 45.0559 66 43.3715 66C39.3695 66 35.2288 63.8344 35.2288 60.2135V36.8902V36.3261C35.2288 36.3184 35.2346 36.3107 35.2346 36.3011C35.2731 34.892 35.6022 32.8804 38.2222 30.9477C39.793 29.7888 49.1485 23.4094 49.545 23.1399C50.136 22.7395 50.9002 22.6971 51.5278 23.0282C52.1592 23.3612 52.5538 24.0157 52.5538 24.7299V27.5173C52.5538 28.5799 51.6933 29.4423 50.6288 29.4423C49.8338 29.4423 49.1504 28.9611 48.8578 28.2719C45.8721 30.3143 41.4889 33.3231 40.5071 34.045C39.2674 34.9613 39.1019 35.5658 39.0807 36.3415C39.0846 36.9171 39.2405 37.356 39.5562 37.6448C40.5379 38.5437 43.181 38.1664 45.7874 36.6033C47.7163 35.4445 56.0284 29.0265 59.0661 26.6511C59.6493 26.2006 60.4347 26.1178 61.097 26.4393C61.7592 26.7608 62.1788 27.4288 62.1788 28.166ZM58.3288 36.7439L48.7038 44.2109V48.0609L58.3288 40.5939V36.7439Z" fill="#C2B777"/>
</g>
<defs>
<clipPath id="clip0_1206_23955">
<rect width="50" height="50" fill="white" transform="translate(16 16)"/>
</clipPath>
</defs>
</svg>
