<svg width="81" height="82" viewBox="0 0 81 82" fill="none" xmlns="http://www.w3.org/2000/svg">
<path d="M67.2235 43.1634C66.8831 43.9979 66.6635 44.9204 66.1693 45.6451C65.1591 47.1495 63.6107 47.7645 61.8208 47.7755C59.372 47.7864 56.9122 47.7755 54.4634 47.7755C54.2658 47.7755 54.0681 47.7755 53.7826 47.7755C53.8485 48.0061 53.9034 48.1927 53.9693 48.3684C55.9569 53.7712 57.9444 59.1739 59.9101 64.5767C60.0638 65.0049 60.1407 65.5101 60.0748 65.9493C59.9869 66.6301 59.394 67.1023 58.6912 67.1572C58.0213 67.2231 57.4723 66.9596 57.1209 66.3666C56.9781 66.136 56.8793 65.8724 56.7914 65.6199C54.6721 59.8548 52.5527 54.1006 50.4553 48.3245C50.3015 47.8963 50.1039 47.7535 49.6427 47.7425C49.1924 47.7425 49.0168 47.8963 48.874 48.3026C46.7656 54.1226 44.6572 59.9426 42.5159 65.7626C42.3622 66.1799 42.0657 66.6082 41.7143 66.8937C41.2201 67.311 40.4405 67.2341 39.9243 66.8607C39.3643 66.4654 39.0788 65.7736 39.2984 65.1257C39.8914 63.4017 40.5173 61.6776 41.1432 59.9646C42.5488 56.0992 43.9544 52.2338 45.36 48.3794C45.4259 48.1927 45.4808 48.0061 45.5577 47.7645C44.767 47.7645 44.0203 47.7645 43.3395 47.7645C43.3944 46.8201 43.4273 45.9087 43.4932 45.0082C43.5042 44.8325 43.603 44.6678 43.6799 44.5031C44.767 42.3288 45.8542 40.1545 46.9303 37.9803C47.8747 36.0805 47.7978 34.2467 46.513 32.5116C44.5804 29.8871 40.2867 30.0079 38.5737 32.7752C37.794 34.049 37.179 35.4216 36.4872 36.7504C36.3994 36.9261 36.3115 37.1127 36.2017 37.3214C36.0809 37.2775 35.9601 37.2445 35.8613 37.1896C34.7632 36.6515 33.676 36.0915 32.5669 35.5644C32.2924 35.4326 32.1606 35.2789 32.1606 34.9494C32.1716 31.0511 32.1497 27.1528 32.1826 23.2545C32.2046 20.2347 34.4118 18.0275 37.4426 18.0165C45.6016 17.9945 53.7606 17.9945 61.9306 18.0165C64.6649 18.0275 66.6525 19.7625 67.1467 22.4748C67.1576 22.5297 67.1906 22.5737 67.2235 22.6176C67.2235 29.4698 67.2235 36.3111 67.2235 43.1634ZM49.7086 28.3498C50.2796 28.3498 50.8396 28.3498 51.4106 28.3498C53.7936 28.3498 56.1655 28.3607 58.5484 28.3388C59.4489 28.3278 60.1077 27.6689 60.1626 26.7904C60.2176 25.9449 59.5916 25.2091 58.7131 25.0774C58.4935 25.0444 58.2739 25.0554 58.0543 25.0554C52.8053 25.0554 47.5563 25.0554 42.3073 25.0554C41.8351 25.0554 41.3519 25.0444 40.8797 25.0664C40.1549 25.0993 39.6169 25.4397 39.3533 26.1206C38.9141 27.2297 39.7157 28.3388 40.9895 28.3498C43.8885 28.3607 46.7986 28.3498 49.7086 28.3498ZM54.8148 40.7255C56.0337 40.7255 57.2636 40.7475 58.4825 40.7146C59.4708 40.6926 60.1736 39.9569 60.1626 39.0454C60.1517 38.123 59.4379 37.4312 58.4496 37.4312C56.0227 37.4202 53.5959 37.4092 51.1581 37.4532C50.7408 37.4641 50.2686 37.6838 49.9502 37.9583C49.434 38.3975 49.3681 39.0454 49.6097 39.6714C49.8843 40.3851 50.4553 40.7036 51.202 40.7146C52.399 40.7365 53.6069 40.7255 54.8148 40.7255ZM54.7599 34.5322C55.9678 34.5322 57.1758 34.5431 58.3837 34.5322C59.2841 34.5212 59.8881 34.0819 60.0968 33.3462C60.4152 32.2151 59.6246 31.2598 58.3288 31.2488C56.0008 31.2378 53.6838 31.2488 51.3557 31.2488C51.213 31.2488 51.0592 31.2598 50.9165 31.2817C50.016 31.4025 49.4231 32.1602 49.5109 33.0607C49.5988 33.9502 50.2466 34.5212 51.2459 34.5322C52.4209 34.5541 53.5849 34.5322 54.7599 34.5322Z" fill="#C2B777"/>
<path d="M11 45.0301C11.0659 44.7337 11.1428 44.4372 11.1977 44.1407C11.9883 39.8361 15.5901 36.388 19.9387 35.795C20.1912 35.762 20.4438 35.7071 20.8282 35.6412C18.7857 35.3667 17.1824 34.5431 15.9415 33.0387C14.7116 31.5453 14.1626 29.8102 14.3163 27.8885C14.6018 24.3746 17.446 21.5634 20.938 21.3218C24.4739 21.0802 27.6145 23.4412 28.4601 26.8453C29.1958 29.7993 27.6475 34.6639 22.5412 35.6632C24.7814 35.5314 26.758 36.3221 28.7017 37.2994C31.5458 38.727 34.3899 40.1325 37.245 41.5491C37.3768 41.615 37.5086 41.6699 37.6733 41.7468C37.805 41.4832 37.9368 41.2526 38.0576 41.011C39.0789 38.9685 40.1001 36.926 41.1214 34.8835C41.4947 34.1368 42.0877 33.8293 42.8564 33.9172C43.4933 33.9941 44.1192 34.4553 44.1851 35.1141C44.24 35.5754 44.1522 36.1025 43.9545 36.5197C42.7466 39.0234 41.4728 41.4942 40.2539 43.9869C40.1221 44.2615 40.0782 44.6129 40.1221 44.9203C40.3746 46.5346 39.8805 47.8962 38.6726 48.9724C37.3987 50.1144 35.8724 50.4768 34.2911 49.8619C32.7427 49.2579 31.2822 48.4453 29.7888 47.7205C29.3605 47.5119 28.9432 47.3033 28.4271 47.0507C28.4161 47.3472 28.3942 47.5668 28.3942 47.7974C28.3942 53.5625 28.3942 59.3276 28.3832 65.0928C28.3832 65.4881 28.3393 65.9054 28.1855 66.2677C27.922 66.9047 27.351 67.1902 26.6811 67.1902C23.1891 67.2011 19.6861 67.2121 16.1941 67.1902C15.1399 67.1792 14.503 66.4654 14.492 65.3673C14.481 62.5122 14.492 59.6571 14.492 56.802C14.492 56.5055 14.4701 56.3078 14.1406 56.1651C12.5374 55.4733 11.5491 54.2324 11.1318 52.5193C11.0878 52.3656 11.0439 52.2118 11 52.0581C11 49.7081 11 47.3691 11 45.0301Z" fill="#C2B777"/>
</svg>
