<svg width="81" height="82" viewBox="0 0 81 82" fill="none" xmlns="http://www.w3.org/2000/svg">
<path d="M7.0515 58.2937C7.44637 57.9503 7.8584 57.6241 8.2361 57.2464C11.1203 54.3622 14.3479 52.0102 18.1764 50.5166C21.0091 49.4178 23.9277 48.7998 26.9492 48.7826C30.2455 48.7654 35.7393 48.7482 39.5677 48.7654C41.9198 48.7654 43.8254 50.6711 43.8254 53.0403V56.4739H32.3057C32.3057 58.6199 34.0396 60.3538 36.1856 60.3538C38.7952 60.3538 42.1258 60.3538 44.1688 60.3367C44.5808 60.3367 44.9928 60.2165 45.3534 60.0105C51.345 56.4567 57.3195 52.8857 63.2939 49.2976C65.1481 48.1817 67.0881 47.8899 69.1482 48.6452C70.2642 49.0573 71.1741 49.7612 71.8093 50.7741C72.2041 51.3921 72.5647 52.0102 72.9424 52.6454C72.9252 52.6969 72.908 52.7312 72.8909 52.7999C72.702 52.8857 72.496 52.9716 72.3072 53.0746C63.9292 57.9675 55.5512 62.8775 47.1732 67.7533C46.8298 67.9593 46.4349 68.0623 46.0229 68.0623C40.4776 68.0794 34.9152 68.0623 29.3699 68.0794C26.3827 68.0794 23.6701 68.955 21.2838 70.7577C20.9233 71.0323 20.5627 71.2899 20.082 71.6332C19.9275 71.4272 19.8245 71.2212 19.6528 71.0495C15.4467 66.8433 11.2233 62.62 7 58.4138C7.0515 58.3623 7.0515 58.3452 7.0515 58.2937Z" fill="#C2B777"/>
<path d="M45.7998 10C55.3624 10 63.191 17.863 63.191 27.4942C63.191 37.074 55.3624 44.9026 45.7826 44.8854C36.2201 44.8683 28.4258 37.074 28.4258 27.5114C28.4258 17.8973 36.2372 10 45.7998 10ZM43.877 14.0001C43.877 15.2362 43.8598 16.4037 43.8942 17.5711C43.9113 18.0175 43.774 18.2235 43.362 18.4295C40.7009 19.6656 39.4305 22.6013 40.2889 25.3654C41.0443 27.7517 43.1044 29.2797 45.817 29.4342C46.8986 29.5029 47.6711 30.2239 47.7398 31.2368C47.8085 32.2154 47.0874 33.1253 46.0745 33.2798C45.1474 33.4343 44.2547 32.8163 43.9457 31.8034C43.9113 31.666 43.8598 31.5287 43.8427 31.4085C42.5551 31.4085 41.3018 31.4085 40.0142 31.4085C40.1344 33.4859 40.7009 34.825 42.349 36.0267C43.3791 36.7821 43.9113 36.8336 43.9113 36.8336C43.9113 36.8336 43.8942 40.1127 43.8942 40.9711C45.2333 40.9711 46.4694 40.9711 47.7398 40.9711C47.7398 39.5633 47.7398 38.1899 47.7398 36.8336C47.963 36.7306 48.1518 36.6276 48.3407 36.5246C50.3322 35.4945 51.4824 33.8635 51.5854 31.6317C51.6884 29.314 50.6755 27.5285 48.684 26.3268C47.8085 25.7946 46.8299 25.5886 45.7998 25.5542C44.6152 25.5027 43.7568 24.5241 43.877 23.4254C43.9972 22.361 44.9929 21.5541 46.0573 21.7258C47.1218 21.8803 47.6025 22.6185 47.7741 23.5971C49.0617 23.5971 50.315 23.5971 51.6198 23.5971C51.4824 21.3137 50.4867 19.5969 48.4952 18.5668C47.8943 18.2578 47.6711 17.9488 47.7055 17.2792C47.7741 16.1977 47.7226 15.1161 47.7226 14.0173C46.4179 14.0001 45.1989 14.0001 43.877 14.0001Z" fill="#C2B777"/>
</svg>
