<svg width="67" height="67" viewBox="0 0 67 67" fill="none" xmlns="http://www.w3.org/2000/svg">
<path d="M44.4433 27.4922V23.9524H16.2475V27.4922H44.4433ZM44.4433 35.5769V32.0482H33.5V35.5769H44.4433ZM44.4433 43.5722V40.0882H33.5V43.5499H44.4433V43.5722ZM27.8608 43.5722V32.0482H16.2475V43.6169H27.8162L27.8608 43.5722ZM55.0405 23.9524C55.5298 23.9767 55.9921 24.184 56.3358 24.5331C56.5118 24.7081 56.6502 24.9172 56.7423 25.1477C56.8345 25.3781 56.8786 25.625 56.8718 25.8731V45.5822C56.8739 46.2526 56.7426 46.9167 56.4857 47.5358C56.2289 48.155 55.8515 48.717 55.3755 49.1891C54.4075 50.1493 53.0987 50.6873 51.7352 50.6854H16.2475C15.5721 50.6881 14.9027 50.5574 14.278 50.3006C13.6533 50.0438 13.0854 49.666 12.6072 49.1891C12.1393 48.7139 11.7709 48.1501 11.5235 47.5308C11.2762 46.9115 11.1549 46.249 11.1667 45.5822V21.9871C11.1637 21.3117 11.2946 20.6424 11.5517 20.0178C11.8088 19.3933 12.187 18.8259 12.6646 18.3483C13.1422 17.8707 13.7096 17.4925 14.3341 17.2354C14.9587 16.9783 15.628 16.8474 16.3033 16.8504H45.7834C46.968 16.8504 48.1041 17.321 48.9418 18.1586C49.7794 18.9963 50.25 20.1324 50.25 21.3171V39.9096C50.2682 40.2821 50.428 40.6336 50.6967 40.8922C50.9683 41.149 51.3279 41.2921 51.7017 41.2921C52.0755 41.2921 52.4351 41.149 52.7067 40.8922C52.8376 40.7649 52.9409 40.6119 53.0101 40.4428C53.0793 40.2737 53.1128 40.0922 53.1087 39.9096V25.8731C53.1112 25.3638 53.3114 24.8753 53.667 24.5107C54.0354 24.1609 54.5214 23.9617 55.0293 23.9524" fill="#193C6B"/>
</svg>
