<svg width="66" height="66" viewBox="0 0 66 66" fill="none" xmlns="http://www.w3.org/2000/svg">
<path d="M25.949 30.9981C26.1972 30.6049 26.5321 30.2738 26.928 30.0301C27.3163 29.8134 27.754 29.701 28.1986 29.7038C28.6432 29.7065 29.0795 29.8245 29.465 30.046C29.8505 30.2676 30.1721 30.5852 30.3983 30.9679C30.6245 31.3507 30.7478 31.7855 30.756 32.2301C30.7589 32.6838 30.6453 33.1308 30.426 33.5281C30.2049 33.9253 29.8773 34.2529 29.48 34.4741C29.0866 34.6937 28.6436 34.809 28.193 34.809C27.7425 34.809 27.2994 34.6937 26.906 34.4741C26.5126 34.256 26.1842 33.9375 25.9542 33.551C25.7242 33.1644 25.601 32.7238 25.597 32.2741C25.5917 31.8241 25.7137 31.3817 25.949 30.9981ZM39.468 48.2571C40.7042 48.2484 41.8871 47.7527 42.7603 46.8776C43.6334 46.0024 44.1262 44.8183 44.132 43.5821C44.1307 42.3452 43.6404 41.1589 42.768 40.2821C42.3378 39.843 41.8244 39.4943 41.2578 39.2561C40.6911 39.018 40.0827 38.8954 39.468 38.8954C38.8534 38.8954 38.2449 39.018 37.6783 39.2561C37.1116 39.4943 36.5982 39.843 36.168 40.2821C35.2974 41.1597 34.809 42.3459 34.809 43.5821C34.809 44.8183 35.2974 46.0044 36.168 46.8821C36.5982 47.321 37.1117 47.6696 37.6783 47.9076C38.245 48.1456 38.8534 48.2682 39.468 48.2681V48.2571ZM26.796 45.9581C26.929 45.9633 27.0615 45.9383 27.1834 45.885C27.3053 45.8316 27.4136 45.7513 27.5 45.6501L41.404 31.7901C41.5023 31.6966 41.5804 31.584 41.6334 31.4591C41.6864 31.3342 41.7131 31.1997 41.712 31.0641C41.7136 30.9251 41.6871 30.7872 41.6342 30.6587C41.5813 30.5302 41.503 30.4136 41.404 30.3161C41.3148 30.2109 41.2035 30.1268 41.078 30.0698C40.9524 30.0127 40.8159 29.9841 40.678 29.9861C40.5423 29.9849 40.4079 30.0117 40.283 30.0647C40.1581 30.1176 40.0455 30.1957 39.952 30.2941L26.037 44.1981C25.8425 44.3899 25.7317 44.6509 25.729 44.9241C25.7271 45.0619 25.7557 45.1985 25.8127 45.324C25.8698 45.4495 25.9539 45.5609 26.059 45.6501C26.2574 45.8415 26.5204 45.9514 26.796 45.9581ZM23.496 32.2741C23.5241 33.5141 24.0283 34.6957 24.904 35.5741C25.7952 36.3661 26.9553 36.7877 28.1471 36.7526C29.3389 36.7175 30.4722 36.2284 31.3153 35.3853C32.1583 34.5423 32.6474 33.4089 32.6825 32.2172C32.7176 31.0254 32.296 29.8653 31.504 28.9741C30.6263 28.1035 29.4402 27.615 28.204 27.615C26.9678 27.615 25.7817 28.1035 24.904 28.9741C24.0283 29.8524 23.5241 31.0341 23.496 32.2741ZM37.279 25.2231H49.907V52.6131C49.9012 53.4632 49.561 54.2768 48.9599 54.8779C48.3587 55.479 47.5451 55.8193 46.695 55.8251H20.295C19.4449 55.8193 18.6313 55.479 18.0302 54.8779C17.429 54.2768 17.0888 53.4632 17.083 52.6131V13.9591C17.0888 13.109 17.429 12.2953 18.0302 11.6942C18.6313 11.0931 19.4449 10.7528 20.295 10.7471H35.42L35.2 23.1551C35.178 23.4737 35.2347 23.7929 35.3651 24.0845C35.4956 24.3761 35.6957 24.6311 35.948 24.8271C36.3392 25.0866 36.7985 25.2244 37.268 25.2231H37.279ZM37.202 42.2841C37.4263 41.8892 37.7532 41.5624 38.148 41.3381C38.538 41.1141 38.9797 40.9958 39.4294 40.9947C39.8791 40.9937 40.3213 41.11 40.7124 41.3322C41.1034 41.5543 41.4297 41.8747 41.659 42.2615C41.8883 42.6484 42.0128 43.0884 42.02 43.5381C41.9939 43.9794 41.8659 44.4086 41.646 44.7921C41.4278 45.1915 41.0994 45.5199 40.7 45.7381C40.3147 45.9699 39.8736 46.0924 39.424 46.0924C38.9744 46.0924 38.5333 45.9699 38.148 45.7381C37.7608 45.5158 37.439 45.1954 37.215 44.8092C36.991 44.423 36.8727 43.9846 36.872 43.5381C36.8691 43.0843 36.9827 42.6374 37.202 42.2401V42.2841ZM37.202 23.7271C37.1304 23.728 37.0596 23.7126 36.9948 23.6821C36.93 23.6516 36.873 23.6068 36.828 23.5511C36.7277 23.4437 36.6726 23.3019 36.674 23.1551L36.894 11.1431L49.5 23.7711H37.224L37.202 23.7271Z" fill="#193C6B"/>
</svg>
