<svg width="64" height="64" viewBox="0 0 64 64" fill="none" xmlns="http://www.w3.org/2000/svg">
<path d="M34.0479 31.04C34.256 30.2328 34.6444 29.4832 35.1838 28.8476C35.7233 28.2121 36.3999 27.7071 37.1626 27.3707C38.0896 26.8167 38.8613 26.0371 39.4059 25.1046C39.9505 24.1721 40.2502 23.1169 40.2773 22.0373C40.2866 21.2078 40.098 20.3879 39.7269 19.6459C39.3559 18.9038 38.8132 18.2609 38.1439 17.7707C36.4842 16.6145 34.4899 16.0373 32.4693 16.128C30.8935 16.1145 29.332 16.4268 27.8826 17.0453C26.4805 17.6507 25.2415 18.5791 24.2666 19.7547L27.3066 23.1253C27.8781 22.4407 28.5728 21.8691 29.3546 21.44C30.1439 21.026 31.0233 20.8135 31.9146 20.8213C32.7082 20.7825 33.4934 20.9994 34.1546 21.44C34.3788 21.6133 34.5593 21.8367 34.6815 22.0924C34.8038 22.348 34.8644 22.6287 34.8586 22.912C34.6584 23.5984 34.3075 24.2313 33.8313 24.7647C33.3552 25.298 32.7659 25.7182 32.1066 25.9947C31.306 26.4364 30.6324 27.0765 30.1504 27.8535C29.6685 28.6306 29.3945 29.5185 29.3546 30.432C29.3372 31.6569 29.7785 32.844 30.5919 33.76L34.6879 32.5653C34.474 32.3786 34.3061 32.145 34.1973 31.8827C34.075 31.6145 34.0097 31.324 34.0053 31.0293L34.0479 31.04ZM32.4266 41.792C33.2273 41.7828 33.9928 41.4613 34.5599 40.896C34.8469 40.6214 35.0731 40.2897 35.2237 39.9222C35.3744 39.5547 35.4463 39.1597 35.4346 38.7627C35.4403 38.3651 35.3665 37.9704 35.2177 37.6017C35.0688 37.2329 34.8478 36.8977 34.5676 36.6155C34.2874 36.3334 33.9537 36.11 33.5861 35.9585C33.2184 35.807 32.8242 35.7305 32.4266 35.7333C32.0296 35.7217 31.6346 35.7935 31.2671 35.9442C30.8996 36.0949 30.5678 36.321 30.2933 36.608C30.0153 36.8882 29.7965 37.2215 29.6499 37.588C29.5033 37.9545 29.4319 38.3467 29.4399 38.7413C29.4269 39.1366 29.496 39.5303 29.6428 39.8975C29.7897 40.2647 30.0112 40.5975 30.2933 40.8747C30.571 41.1589 30.9029 41.3846 31.2693 41.5385C31.6357 41.6924 32.0292 41.7713 32.4266 41.7707V41.792ZM50.0586 11.7333C50.6201 11.7301 51.1768 11.8377 51.6966 12.0501C52.2165 12.2624 52.6893 12.5752 53.0879 12.9707C53.4779 13.3557 53.788 13.814 54.0004 14.3192C54.2127 14.8244 54.3231 15.3667 54.3253 15.9147V41.8347C54.3287 42.9452 53.8914 44.0117 53.1093 44.8C52.3136 45.5844 51.2501 46.038 50.1333 46.0693H47.5839L47.6693 51.9573C47.6797 52.1157 47.6452 52.2739 47.5697 52.4135C47.4943 52.5532 47.3809 52.6687 47.2426 52.7467C47.1071 52.8275 46.9523 52.8701 46.7946 52.8701C46.6369 52.8701 46.4821 52.8275 46.3466 52.7467L36.2666 46.0693H14.8373C14.2802 46.0663 13.7292 45.9525 13.2165 45.7346C12.7037 45.5167 12.2395 45.199 11.8506 44.8C11.4672 44.4084 11.1652 43.9448 10.962 43.4358C10.7587 42.9268 10.6584 42.3827 10.6666 41.8347V15.8827C10.6679 15.3267 10.7798 14.7766 10.9958 14.2643C11.2117 13.752 11.5274 13.2878 11.9245 12.8987C12.3216 12.5096 12.7921 12.2033 13.3086 11.9978C13.8251 11.7922 14.3774 11.6914 14.9333 11.7013H50.1333L50.0586 11.7333Z" fill="#193C6B"/>
</svg>
