<svg width="66" height="66" viewBox="0 0 66 66" fill="none" xmlns="http://www.w3.org/2000/svg">
<path d="M47.5749 32.1859C47.5988 33.2038 47.4162 34.2159 47.0381 35.1612C46.66 36.1065 46.0942 36.9653 45.3749 37.6859C44.6142 38.4962 43.6934 39.1396 42.6708 39.5751C41.6483 40.0107 40.5463 40.2289 39.4349 40.2159C38.3654 40.2118 37.3074 39.9958 36.3218 39.5805C35.3362 39.1651 34.4428 38.5586 33.6929 37.7959C32.2058 36.2603 31.3635 34.2134 31.3389 32.0759C31.326 31.0026 31.532 29.938 31.9443 28.9469C32.3566 27.9559 32.9665 27.0593 33.7369 26.3119C35.2426 24.778 37.2862 23.8903 39.4349 23.8369C41.6734 23.895 43.7992 24.8314 45.3529 26.4439C46.1039 27.1871 46.6884 28.0814 47.0676 29.0675C47.4469 30.0536 47.6123 31.109 47.5529 32.1639L47.5749 32.1859ZM50.6769 37.8839C52.2243 31.3426 51.4909 26.5759 48.4769 23.5839C47.0714 22.1299 45.343 21.0276 43.4318 20.3663C41.5207 19.705 39.4806 19.5035 37.4769 19.7779C35.5071 20.0567 33.6364 20.8168 32.0305 21.991C30.4245 23.1653 29.1329 24.7174 28.2699 26.5099C27.1921 28.6422 26.7492 31.0392 26.9941 33.4158C27.239 35.7925 28.1613 38.0488 29.6513 39.9166C31.1413 41.7843 33.1363 43.1848 35.3992 43.9516C37.662 44.7183 40.0975 44.8191 42.4159 44.2419C42.8489 44.1306 43.303 44.1306 43.7359 44.2419C44.1339 44.3967 44.4832 44.6549 44.7479 44.9899C45.9579 46.4969 47.2229 47.9599 48.5429 49.3899C49.311 50.2955 50.3982 50.8706 51.5789 50.9959C52.1476 51.0411 52.7195 50.9665 53.2575 50.7771C53.7956 50.5876 54.288 50.2874 54.7029 49.8959C55.1173 49.5554 55.4557 49.1318 55.6963 48.6524C55.9369 48.1731 56.0744 47.6486 56.0999 47.1129C56.1036 45.9441 55.6813 44.8139 54.9119 43.9339C53.5039 42.4159 52.1436 40.8319 50.8309 39.1819C50.7002 39.0117 50.6305 38.8025 50.6329 38.5879C50.6095 38.3585 50.6319 38.1266 50.6989 37.9059L50.6769 37.8839ZM43.3399 46.5849C41.4843 46.869 39.6032 46.9501 37.7299 46.8269C35.9528 46.6876 34.2268 46.1661 32.6699 45.2979C31.0935 44.4561 29.6483 43.3888 28.3799 42.1299C27.1346 40.8901 26.1835 39.3864 25.5969 37.7299C24.324 34.446 24.177 30.8324 25.1789 27.4559C26.1909 24.3539 28.4606 21.6442 31.9879 19.3269H15.5649C15.2853 19.359 15.002 19.3354 14.7315 19.2576C14.4609 19.1797 14.2085 19.0491 13.9886 18.8732C13.7688 18.6973 13.5859 18.4797 13.4506 18.2329C13.3152 17.986 13.23 17.7148 13.1999 17.4349C13.1324 17.1886 13.121 16.9302 13.1667 16.6789C13.2124 16.4275 13.314 16.1897 13.4639 15.9829C13.7714 15.5858 14.1825 15.2813 14.6519 15.1029C14.8832 14.9842 15.14 14.9237 15.3999 14.9269H40.9199C41.2903 14.9654 41.6646 14.928 42.0199 14.8169C42.3499 14.7216 42.4819 14.4356 42.4159 13.9589C42.4159 13.7536 42.2399 13.5556 41.8879 13.3649C41.6247 13.1942 41.3212 13.0956 41.0079 13.0789C32.5819 13.0202 24.1486 13.0202 15.7079 13.0789C15.0547 13.0205 14.3965 13.099 13.7753 13.3092C13.1541 13.5194 12.5835 13.8569 12.0999 14.2999C11.2804 15.3492 10.8875 16.6693 10.9999 17.9959V49.4999C11.002 50.5562 11.3937 51.5745 12.0999 52.3599C12.4444 52.7223 12.8616 53.0077 13.3242 53.1973C13.7868 53.3869 14.2843 53.4764 14.7839 53.4599C22.8506 53.5112 30.9503 53.5112 39.0829 53.4599C39.8299 53.4729 40.5642 53.2663 41.1949 52.8659C41.8115 52.4642 42.2761 51.868 42.5149 51.1719C42.7561 50.4811 42.9185 49.7652 42.9989 49.0379C43.0869 48.2899 43.1969 47.4759 43.3069 46.5959" fill="#193C6B"/>
</svg>
