<svg width="67" height="67" viewBox="0 0 67 67" fill="none" xmlns="http://www.w3.org/2000/svg">
<path d="M48.3404 43.1256C48.4551 43.0396 48.5417 42.9216 48.5894 42.7865C48.6371 42.6513 48.6437 42.5051 48.6084 42.3662C48.6102 42.0749 48.498 41.7943 48.2958 41.5846C48.011 41.3699 47.6575 41.2666 47.3019 41.2942H41.7186L46.8999 35.0409C47.2519 34.7066 47.563 34.3318 47.8268 33.9242C47.9715 33.6017 48.0402 33.2502 48.0278 32.8969C48.0278 31.9701 47.5141 31.4899 46.4979 31.4676H39.9766C39.6353 31.4715 39.3051 31.5894 39.0386 31.8026C38.9207 31.8996 38.827 32.0228 38.7649 32.1623C38.7029 32.3019 38.6743 32.454 38.6813 32.6066C38.6724 32.7572 38.698 32.9079 38.756 33.0472C38.814 33.1865 38.9031 33.3108 39.0163 33.4106C39.2917 33.6184 39.6322 33.7213 39.9766 33.7009H44.5326L38.5473 40.7582C38.4684 40.8989 38.3788 41.0333 38.2793 41.1602C38.1979 41.2707 38.1304 41.3907 38.0783 41.5176C38.03 41.6614 38.0073 41.8126 38.0113 41.9642C37.9923 42.1626 38.0232 42.3625 38.1012 42.5458C38.1793 42.7291 38.3019 42.89 38.4579 43.0139C38.8355 43.3186 39.3138 43.4701 39.7979 43.4382H47.3466C47.7052 43.4606 48.0593 43.3492 48.3404 43.1256ZM36.8499 39.8649C36.9725 39.7601 37.0709 39.6299 37.1384 39.4834C37.2059 39.3369 37.2409 39.1775 37.2409 39.0162C37.2409 38.8549 37.2059 38.6955 37.1384 38.549C37.0709 38.4025 36.9725 38.2724 36.8499 38.1676C36.573 37.9242 36.2133 37.7963 35.8449 37.8102H33.3213C33.1222 37.7891 32.921 37.8079 32.7292 37.8654C32.5375 37.9229 32.3592 38.018 32.2046 38.1452C32.0881 38.2531 31.996 38.3847 31.9344 38.531C31.8728 38.6774 31.8431 38.8352 31.8473 38.9939C31.8426 39.1581 31.8742 39.3212 31.9398 39.4718C32.0055 39.6223 32.1035 39.7566 32.2269 39.8649C32.3599 39.9896 32.5195 40.0825 32.6935 40.1366C32.8676 40.1908 33.0517 40.2048 33.2319 40.1776H35.7333C35.9308 40.2214 36.136 40.2158 36.3308 40.1613C36.5256 40.1067 36.7039 40.0049 36.8499 39.8649ZM30.2839 43.2149C30.4116 43.1074 30.5153 42.9743 30.5884 42.8243C30.6614 42.6743 30.7023 42.5107 30.7083 42.3439C30.6395 41.89 30.5119 41.4471 30.3286 41.0262L27.2801 33.5222L26.9228 32.6289C26.8293 32.3815 26.7014 32.1484 26.5431 31.9366C26.3789 31.7062 26.1652 31.5154 25.9178 31.3782C25.64 31.2183 25.3224 31.1408 25.0021 31.1549C24.682 31.1426 24.3649 31.22 24.0864 31.3782C23.8418 31.5206 23.6349 31.7198 23.4834 31.9589C23.3273 32.2152 23.1928 32.4842 23.0814 32.7629L19.8208 41.0709C19.6941 41.2909 19.5894 41.5228 19.5081 41.7632C19.453 41.9444 19.423 42.1322 19.4188 42.3216C19.4176 42.496 19.4551 42.6686 19.5285 42.8269C19.6018 42.9852 19.7093 43.1253 19.8431 43.2372C20.1016 43.4839 20.4461 43.6201 20.8034 43.6169C20.9776 43.6509 21.1577 43.6355 21.3235 43.5724C21.4893 43.5092 21.6341 43.4008 21.7414 43.2596C21.9757 42.8768 22.1738 42.473 22.3333 42.0536L22.8246 40.7136H27.2019L27.6486 42.0089C27.7771 42.2043 27.882 42.4142 27.9613 42.6342L28.2851 43.1702C28.4145 43.3119 28.5652 43.4324 28.7318 43.5276C28.9096 43.624 29.1103 43.6703 29.3124 43.6616C29.6792 43.6576 30.0307 43.5138 30.2951 43.2596L30.2839 43.2149ZM49.0104 18.0117C49.8931 18.0125 50.7399 18.3616 51.3666 18.9832C51.6724 19.3003 51.9126 19.6746 52.0736 20.0846C52.2345 20.4947 52.313 20.9325 52.3046 21.3729V52.0254C52.3016 53.2584 51.8097 54.44 50.9368 55.3108C50.0639 56.1817 48.8811 56.6707 47.6481 56.6707H20.0999C19.5285 56.6757 18.962 56.5632 18.4357 56.3404C17.9095 56.1176 17.4345 55.7892 17.0403 55.3754C16.2359 54.5136 15.782 53.3828 15.7673 52.2041C15.7673 49.6134 15.7673 47.0078 15.7673 44.3874V16.4707C15.5974 14.9754 16.0181 13.4729 16.9398 12.2832C17.4895 11.8017 18.1311 11.4367 18.8259 11.2102C19.5207 10.9837 20.2542 10.9005 20.9821 10.9656C25.6051 10.9656 29.7479 10.9656 33.4106 10.9656L45.7833 10.9544C46.1351 10.9583 46.4832 11.0265 46.8106 11.1554C46.981 11.2135 47.1277 11.3257 47.2285 11.4748C47.3293 11.624 47.3786 11.802 47.3689 11.9817C47.3957 12.1551 47.3642 12.3325 47.2793 12.4861C47.1944 12.6397 47.061 12.7608 46.8999 12.8304C46.5466 12.9796 46.1668 13.0555 45.7833 13.0537H21.6074H20.7141C20.4252 13.0647 20.1393 13.1174 19.8654 13.2101C19.3384 13.443 18.8778 13.8038 18.5254 14.2597C18.3596 14.4932 18.2458 14.7596 18.1919 15.0409C18.1379 15.3222 18.145 15.6118 18.2128 15.8901C18.3116 16.5054 18.6365 17.0617 19.124 17.45C19.6114 17.8383 20.2263 18.0307 20.8481 17.9894H49.0104V18.0117ZM24.9574 34.6166L26.3868 38.4132H23.5728L24.9574 34.6166Z" fill="#193C6B"/>
</svg>
