<svg width="65" height="65" viewBox="0 0 65 65" fill="none" xmlns="http://www.w3.org/2000/svg">
<path d="M51.7942 48.9125C52.2441 48.9269 52.6922 48.8477 53.1099 48.6799C53.5276 48.512 53.9059 48.2592 54.2208 47.9375C54.6983 47.4581 55.023 46.848 55.1539 46.1842C55.2849 45.5204 55.2162 44.8327 54.9566 44.2079C54.6969 43.5831 54.2579 43.0493 53.6951 42.6738C53.1322 42.2984 52.4707 42.0981 51.7942 42.0983H26.8775C25.9742 42.1083 25.1092 42.4652 24.4617 43.095C24.1397 43.4107 23.8839 43.7874 23.7093 44.2032C23.5346 44.6189 23.4447 45.0653 23.4447 45.5163C23.4447 45.9672 23.5346 46.4136 23.7093 46.8293C23.8839 47.2451 24.1397 47.6218 24.4617 47.9375C24.7753 48.2579 25.1518 48.5099 25.5676 48.6777C25.9834 48.8455 26.4293 48.9254 26.8775 48.9125H51.7942ZM51.7942 36.8117C52.7031 36.8137 53.5757 36.4553 54.2208 35.815C54.8545 35.1832 55.2128 34.3265 55.2175 33.4317C55.2195 32.5228 54.8611 31.6501 54.2208 31.005C53.9028 30.686 53.5244 30.4336 53.1078 30.2625C52.6911 30.0914 52.2446 30.005 51.7942 30.0083H26.8775C25.9694 30.0112 25.0992 30.3724 24.4561 31.0135C23.813 31.6546 23.449 32.5236 23.4433 33.4317C23.4473 33.8765 23.5394 34.3161 23.7141 34.7252C23.8889 35.1342 24.143 35.5046 24.4617 35.815C25.0999 36.455 25.9629 36.8204 26.8667 36.8333H51.7833L51.7942 36.8117ZM51.7942 24.7542C52.2436 24.7613 52.69 24.6794 53.1075 24.513C53.5251 24.3466 53.9056 24.0991 54.2269 23.7848C54.5482 23.4705 54.8041 23.0957 54.9797 22.6819C55.1553 22.2681 55.2472 21.8237 55.25 21.3742C55.2529 20.9238 55.1663 20.4774 54.9953 20.0607C54.8242 19.6441 54.5722 19.2656 54.2537 18.9471C53.9353 18.6286 53.5567 18.3766 53.1401 18.2056C52.7235 18.0345 52.277 17.948 51.8267 17.9508H26.91C26.0067 17.9608 25.1417 18.3177 24.4942 18.9475C24.1732 19.2652 23.9181 19.643 23.7433 20.0594C23.5686 20.4758 23.4777 20.9226 23.4758 21.3742C23.4786 21.8192 23.5701 22.2592 23.745 22.6684C23.9198 23.0776 24.1745 23.4479 24.4942 23.7575C25.136 24.3961 26.0046 24.7545 26.91 24.7542H51.8267H51.7942ZM15.5892 16.6075C16.2145 16.6032 16.8345 16.7229 17.4133 16.9595C17.9922 17.1962 18.5184 17.5452 18.9616 17.9864C19.4048 18.4276 19.7562 18.9522 19.9955 19.53C20.2348 20.1077 20.3573 20.7272 20.3558 21.3525C20.3474 22.6171 19.8436 23.8281 18.9524 24.7253C18.0612 25.6226 16.8537 26.1347 15.5892 26.1517C14.3265 26.1319 13.1218 25.6186 12.2329 24.7216C11.344 23.8246 10.8417 22.6153 10.8333 21.3525C10.8235 20.7258 10.9436 20.1039 11.1859 19.5259C11.4283 18.9479 11.7878 18.4264 12.2417 17.9942C12.6789 17.5483 13.2018 17.1956 13.779 16.9573C14.3562 16.719 14.9756 16.6 15.6 16.6075" fill="#193C6B"/>
</svg>
