<svg width="52" height="52" viewBox="0 0 52 52" fill="none" xmlns="http://www.w3.org/2000/svg">
<circle cx="26" cy="26" r="26" fill="#C2B777"/>
<circle cx="26" cy="26" r="26" fill="white" fill-opacity="0.85"/>
<path d="M32.75 17H29C29 15.3453 27.6547 14 26 14C24.3453 14 23 15.3453 23 17H19.25C18.0078 17 17 18.0078 17 19.25V35.75C17 36.9922 18.0078 38 19.25 38H32.75C33.9922 38 35 36.9922 35 35.75V19.25C35 18.0078 33.9922 17 32.75 17ZM26 15.875C26.6234 15.875 27.125 16.3766 27.125 17C27.125 17.6234 26.6234 18.125 26 18.125C25.3766 18.125 24.875 17.6234 24.875 17C24.875 16.3766 25.3766 15.875 26 15.875ZM31.6813 26.7406L24.9781 33.3875C24.7578 33.6078 24.4016 33.6031 24.1812 33.3828L20.3094 29.4781C20.0891 29.2578 20.0937 28.9016 20.3141 28.6813L21.6453 27.3594C21.8656 27.1391 22.2219 27.1438 22.4422 27.3641L24.5984 29.5391L29.5672 24.6078C29.7875 24.3875 30.1438 24.3922 30.3641 24.6125L31.6859 25.9438C31.9062 26.1687 31.9016 26.5203 31.6813 26.7406Z" fill="#C2B777"/>
</svg>
