<svg width="52" height="52" viewBox="0 0 52 52" fill="none" xmlns="http://www.w3.org/2000/svg">
<circle cx="26" cy="26" r="26" fill="#C2B777"/>
<circle cx="26" cy="26" r="26" fill="white" fill-opacity="0.85"/>
<path d="M38.2188 32.625H17.125V17.7812C17.125 17.3496 16.7754 17 16.3438 17H14.7812C14.3496 17 14 17.3496 14 17.7812V34.1875C14 35.0503 14.6997 35.75 15.5625 35.75H38.2188C38.6504 35.75 39 35.4004 39 34.9688V33.4062C39 32.9746 38.6504 32.625 38.2188 32.625ZM36.6562 18.5625H30.8916C29.8477 18.5625 29.3247 19.8247 30.063 20.563L31.645 22.145L28.0625 25.728L24.48 22.1455C23.8696 21.5352 22.8804 21.5352 22.2705 22.1455L18.9165 25.4995C18.6113 25.8047 18.6113 26.2993 18.9165 26.6045L20.021 27.709C20.3262 28.0142 20.8208 28.0142 21.126 27.709L23.375 25.4595L26.9575 29.042C27.5679 29.6523 28.5571 29.6523 29.167 29.042L33.8545 24.3545L35.4365 25.9365C36.1748 26.6748 37.437 26.1519 37.437 25.1079V19.3438C37.4375 18.9121 37.0879 18.5625 36.6562 18.5625Z" fill="#C2B777"/>
</svg>
