<svg width="52" height="52" viewBox="0 0 52 52" fill="none" xmlns="http://www.w3.org/2000/svg">
<circle cx="26" cy="26" r="26" fill="#C2B777"/>
<circle cx="26" cy="26" r="26" fill="white" fill-opacity="0.85"/>
<path d="M21.649 36.9555C21.6496 37.3029 21.7508 37.6432 21.9408 37.9326L22.8709 39.3516C23.0298 39.5941 23.2453 39.7931 23.4983 39.9307C23.7512 40.0683 24.0338 40.1403 24.3208 40.1403H27.6794C27.9664 40.1403 28.249 40.0683 28.502 39.9307C28.7549 39.7931 28.9704 39.5941 29.1293 39.3516L30.0595 37.9326C30.2493 37.6431 30.3508 37.3032 30.3512 36.9555L30.3534 34.8372H21.6463L21.649 36.9555ZM16.4209 21.581C16.4209 24.0317 17.3162 26.2676 18.7917 27.976C19.6908 29.0172 21.0972 31.1923 21.6333 33.0272C21.6354 33.0416 21.6371 33.0559 21.6392 33.0703H30.3604C30.3626 33.0559 30.3643 33.0421 30.3664 33.0272C30.9025 31.1923 32.3089 29.0172 33.208 27.976C34.6835 26.2676 35.5788 24.0317 35.5788 21.581C35.5788 16.2017 31.2743 11.8431 25.9699 11.8597C20.4179 11.8768 16.4209 16.4425 16.4209 21.581ZM25.9998 17.1622C23.5991 17.1622 21.6458 19.1446 21.6458 21.581C21.6458 22.0692 21.2561 22.4647 20.775 22.4647C20.2938 22.4647 19.9042 22.0692 19.9042 21.581C19.9042 18.1697 22.6385 15.3947 25.9998 15.3947C26.481 15.3947 26.8707 15.7902 26.8707 16.2784C26.8707 16.7667 26.481 17.1622 25.9998 17.1622Z" fill="#C2B777"/>
</svg>
