<svg width="52" height="52" viewBox="0 0 52 52" fill="none" xmlns="http://www.w3.org/2000/svg">
<circle cx="26" cy="26" r="26" fill="#C2B777"/>
<circle cx="26" cy="26" r="26" fill="white" fill-opacity="0.85"/>
<path d="M35.6779 15.8953C35.6477 15.755 35.5777 15.6264 35.4763 15.525C35.3748 15.4235 35.2462 15.3536 35.1058 15.3234C33.5961 15 32.415 15 31.2381 15C26.3993 15 23.4969 17.5875 21.3312 20.9999H16.4455C16.0283 21.0003 15.6193 21.1166 15.2644 21.3358C14.9094 21.5551 14.6224 21.8687 14.4354 22.2416L12.1183 26.8728C12.0327 27.0444 11.9924 27.2349 12.0012 27.4264C12.01 27.6179 12.0676 27.804 12.1685 27.967C12.2695 28.13 12.4104 28.2645 12.578 28.3578C12.7455 28.451 12.9341 28.4999 13.1259 28.4998H17.9914L16.9378 29.5531C16.6565 29.8344 16.4985 30.2158 16.4985 30.6136C16.4985 31.0114 16.6565 31.3928 16.9378 31.6741L19.3244 34.0605C19.4637 34.1998 19.6292 34.3104 19.8112 34.3858C19.9933 34.4612 20.1884 34.5 20.3855 34.5C20.5825 34.5 20.7777 34.4612 20.9597 34.3858C21.1418 34.3104 21.3072 34.1998 21.4465 34.0605L22.5001 33.0072V37.8747C22.5001 38.0663 22.549 38.2548 22.6422 38.4222C22.7355 38.5897 22.87 38.7305 23.0329 38.8314C23.1959 38.9323 23.382 38.99 23.5734 38.9988C23.7649 39.0077 23.9555 38.9674 24.1271 38.882L28.7549 36.5669C29.1285 36.3803 29.4427 36.0933 29.6622 35.7381C29.8817 35.3829 29.9978 34.9735 29.9974 34.556V29.6618C33.401 27.4915 35.9991 24.5806 35.9991 19.7671C36.0037 18.5859 36.0037 17.4047 35.6779 15.8953ZM30.0021 22.8749C29.6312 22.8749 29.2686 22.7649 28.9602 22.5589C28.6517 22.3529 28.4113 22.06 28.2694 21.7174C28.1274 21.3748 28.0903 20.9978 28.1627 20.6341C28.235 20.2704 28.4137 19.9363 28.6759 19.6741C28.9382 19.4119 29.2724 19.2333 29.6362 19.161C30 19.0886 30.3771 19.1258 30.7199 19.2677C31.0626 19.4096 31.3555 19.6499 31.5616 19.9582C31.7676 20.2666 31.8776 20.6291 31.8776 20.9999C31.8776 21.4972 31.68 21.9741 31.3283 22.3257C30.9766 22.6773 30.4995 22.8749 30.0021 22.8749Z" fill="#C2B777"/>
</svg>
