<svg width="68" height="76" viewBox="0 0 68 76" fill="none" xmlns="http://www.w3.org/2000/svg">
<path d="M18.4756 35.3408C17.9827 35.8337 15.9375 37.8789 12.3397 41.4767L6.20391 47.6864C5.95749 47.9328 5.83428 48.2285 5.83428 48.5735C5.83428 48.9185 5.95749 49.2142 6.20391 49.4606C6.49961 49.7071 6.81996 49.8303 7.16494 49.8303C7.50993 49.8303 7.83027 49.7071 8.12598 49.4606L20.3237 37.115C20.5702 36.8686 20.6934 36.5729 20.6934 36.2279C20.6934 35.8829 20.5455 35.5872 20.2498 35.3408C20.0034 35.0451 19.7077 34.8973 19.3627 34.8973C19.067 34.8973 18.7713 35.0451 18.4756 35.3408ZM37.2527 46.3558C36.8585 46.2572 36.5135 46.2818 36.2178 46.4297C35.9221 46.5775 35.7003 46.824 35.5524 47.1689L29.6384 63.5805C29.5398 63.9255 29.5645 64.2458 29.7123 64.5415C29.8602 64.8372 30.1066 65.059 30.4516 65.2068C30.5994 65.2561 30.7473 65.2808 30.8951 65.2808C31.4372 65.2315 31.8315 64.9358 32.0779 64.3937L37.992 48.0561C38.0906 47.6618 38.0659 47.3168 37.9181 47.0211C37.7702 46.7254 37.5484 46.5036 37.2527 46.3558ZM67.858 16.3419C67.7594 11.8078 66.1824 8.03757 63.1268 5.03125C60.1204 1.97565 56.3502 0.398571 51.8161 0.300003C49.0562 0.349287 46.5427 0.989977 44.2757 2.22207C42.0086 3.45417 40.1358 5.10518 38.6573 7.1751C37.3267 6.73155 36.5381 6.53441 36.2917 6.58369C35.2567 6.38656 34.2218 6.28799 33.1868 6.28799C28.0613 6.43584 23.7982 8.2347 20.3977 11.6846C16.9971 15.0852 15.2229 19.3236 15.075 24.3998C15.075 25.1391 15.1736 26.0755 15.3707 27.209C15.6171 28.2932 15.9375 29.5007 16.3317 30.8313L16.4796 31.201L0.141994 48.3518V58.6274H12.4137L12.3397 52.5655L19.2148 52.1959L18.9191 46.5036L23.9461 46.3558L28.3077 42.2159H28.5295C29.1209 42.3145 29.7369 42.3638 30.3776 42.3638L30.5255 42.5855C30.9198 43.0291 31.2894 43.4973 31.6344 43.9901L31.9301 44.2119L24.2418 66.6114L28.5295 76L39.6923 70.8252L37.1049 65.3547L43.2407 62.1759L40.6533 57.0011L45.2367 54.8572L47.4545 49.2389L47.6763 49.1649C48.4155 48.9185 49.1301 48.6721 49.8201 48.4257C50.5594 48.13 51.1015 47.8836 51.4465 47.6864L51.89 47.5386C55.6356 45.7151 58.4201 43.0784 60.2437 39.6285C62.0672 36.1786 62.7571 32.4824 62.3136 28.5397C64.0878 27.0119 65.4431 25.213 66.3795 23.1431C67.3652 21.0239 67.858 18.7568 67.858 16.3419ZM27.4206 39.4067C27.2235 39.6039 26.4596 40.3431 25.1289 41.6245L22.9111 43.8423L16.2578 43.9162L16.5535 49.7563L9.75234 50.0521L9.82627 55.9661H2.80332V49.2389L19.3627 31.7185L18.8452 30.0182C18.4509 28.7861 18.1552 27.6772 17.9581 26.6915C17.761 25.7058 17.6624 24.9173 17.6624 24.3259C17.8103 19.4468 19.6091 15.5041 23.059 12.4978C26.5581 9.49144 30.8212 8.33327 35.8481 9.02324C35.996 9.02324 36.5135 9.14645 37.4006 9.39287C36.8092 10.5757 36.3656 11.8324 36.0699 13.1631C34.2464 13.4095 32.7433 14.198 31.5604 15.5287C30.3776 16.8101 29.7862 18.4118 29.7862 20.3339C29.8355 22.3545 30.5255 24.0302 31.8562 25.3608C33.1868 26.6915 34.8625 27.3568 36.8831 27.3568C38.9037 27.3568 40.5794 26.6915 41.9101 25.3608C43.2407 24.0302 43.9307 22.3545 43.98 20.3339C43.98 18.609 43.4625 17.1304 42.4275 15.8983C41.4419 14.6662 40.1605 13.8038 38.5834 13.3109C38.8298 12.276 39.1994 11.2903 39.6923 10.3539C42.4522 11.6846 44.596 13.6066 46.1238 16.1201C47.7009 18.5843 48.5141 21.3196 48.5634 24.3259C48.4648 28.7121 46.937 32.3838 43.98 35.3408C41.0722 38.2486 37.4499 39.7517 33.1129 39.8503H32.5954C32.1519 39.8503 31.5851 39.8257 30.8951 39.7764C30.2051 39.7271 29.5398 39.6778 28.8991 39.6285L27.4206 39.4067ZM40.2837 23.2909C39.0023 21.1717 38.3616 18.8307 38.3616 16.268V15.8983C39.2487 16.2433 39.9633 16.8101 40.5055 17.5986C41.0969 18.3379 41.3926 19.2004 41.3926 20.186C41.4419 21.4674 41.0722 22.5024 40.2837 23.2909ZM38.0659 24.6955C37.6716 24.7941 37.2774 24.8434 36.8831 24.8434C35.6017 24.7941 34.5175 24.3505 33.6304 23.5127C32.7925 22.6256 32.349 21.566 32.2997 20.3339C32.349 19.2004 32.694 18.2393 33.3347 17.4508C33.9754 16.6622 34.8132 16.1201 35.8481 15.8244V16.268C35.7989 19.3729 36.5381 22.182 38.0659 24.6955ZM50.7812 45.173C50.7812 45.173 50.7072 45.2222 50.5594 45.3208L48.7112 46.134C48.0213 46.3804 47.4052 46.5775 46.8631 46.7254L45.3846 47.1689L43.0189 53.0091L37.031 55.8183L39.6923 61.067L33.7043 64.2458L36.2917 69.6424L29.8602 72.5994L26.9771 66.4636L34.8132 43.6205L33.7043 42.4377C38.682 42.142 42.7972 40.3185 46.0499 36.9672C49.3026 33.5666 51.0029 29.3775 51.1508 24.3998C51.1015 21.5413 50.4854 18.9047 49.3026 16.4897C51.3233 17.229 53.0975 18.3133 54.6253 19.7425C56.2024 21.1224 57.4345 22.7734 58.3216 24.6955C60.0958 28.6875 60.2683 32.6302 58.8391 36.5236C57.4098 40.3678 54.7239 43.2509 50.7812 45.173ZM60.7611 23.5866C59.529 20.9746 57.8041 18.7814 55.5863 17.0072C53.3686 15.233 50.8797 14.0502 48.1198 13.4588C47.9227 13.4095 47.7256 13.4095 47.5284 13.4588C45.8528 11.1917 43.7089 9.41752 41.0969 8.13614C42.329 6.46048 43.8568 5.15446 45.6803 4.21807C47.5531 3.28168 49.5983 2.81348 51.8161 2.81348C55.6603 2.91205 58.8391 4.21807 61.3525 6.73155C63.866 9.24502 65.172 12.4238 65.2706 16.268C65.2706 18.0422 64.9503 19.7425 64.3096 21.3688C63.6689 22.9459 62.7325 24.3505 61.5004 25.5826C61.254 24.9419 61.0076 24.2766 60.7611 23.5866Z" fill="#FBA61B"/>
</svg>
