<svg width="76" height="75" viewBox="0 0 76 75" fill="none" xmlns="http://www.w3.org/2000/svg">
<path d="M75.4804 35.0062C73.9033 33.5276 67.6935 27.7121 56.8511 17.5597L38.2957 0.113187L28.7593 8.98428V8.1711C28.71 6.939 28.2911 5.95332 27.5025 5.21407C26.714 4.42552 25.753 4.03125 24.6194 4.03125H18.4836C17.3008 4.03125 16.3151 4.42552 15.5266 5.21407C14.738 6.00261 14.3438 6.98828 14.3438 8.1711V22.3648L0.667482 35.0062C0.371779 35.2526 0.223927 35.5729 0.223927 35.9672C0.223927 36.3122 0.347137 36.6325 0.593556 36.9282C0.839975 37.1746 1.13568 37.2979 1.48067 37.2979C1.82565 37.2979 2.146 37.1746 2.4417 36.9282L38.2957 3.80948L73.7062 36.9282C74.0019 37.2239 74.2976 37.3718 74.5933 37.3718C74.9382 37.3225 75.234 37.1746 75.4804 36.9282C75.7761 36.6325 75.8993 36.3122 75.85 35.9672C75.85 35.5729 75.7268 35.2526 75.4804 35.0062ZM17.0051 8.02324C17.0544 7.62897 17.2022 7.30863 17.4486 7.06221C17.6951 6.76651 18.04 6.61866 18.4836 6.61866H24.6194C25.0137 6.61866 25.334 6.76651 25.5805 7.06221C25.8762 7.30863 26.024 7.62897 26.024 8.02324V11.3499L16.9312 19.7774V8.02324H17.0051ZM63.5044 31.162C63.1101 31.2113 62.7898 31.3591 62.5434 31.6056C62.2969 31.852 62.1737 32.1723 62.1737 32.5666V67.2378C62.1244 68.4206 61.6809 69.4309 60.8431 70.2688C60.0545 71.0573 59.0442 71.4762 57.8121 71.5255H45.5404V32.9362H34.8951L22.4017 43.7294L30.5335 51.7873L33.9341 48.9042V71.4516H17.7443C16.5615 71.4023 15.5512 70.9834 14.7134 70.1948C13.8756 69.4063 13.4566 68.3713 13.4566 67.0899V32.7145C13.4074 32.3695 13.2595 32.0738 13.0131 31.8273C12.7667 31.5316 12.4463 31.3838 12.0521 31.3838C11.7071 31.3838 11.3867 31.5316 11.091 31.8273C10.8446 32.0738 10.7214 32.3695 10.7214 32.7145V67.0899C10.7707 69.1106 11.4606 70.7862 12.7913 72.1169C14.122 73.3983 15.773 74.0636 17.7443 74.1129H36.7433V43.0641L30.8292 48.091L26.4676 43.8033L35.9301 35.5236H42.8791V74.039H57.886C59.9067 73.9897 61.5577 73.3243 62.8391 72.043C64.1697 70.7123 64.8597 69.0367 64.909 67.016V32.5666C64.8104 31.6795 64.3422 31.2113 63.5044 31.162Z" fill="#FBA61B"/>
</svg>
