<svg width="71" height="68" viewBox="0 0 71 68" fill="none" xmlns="http://www.w3.org/2000/svg">
<path d="M32.1016 35.9224L19.1703 17.4027C18.4384 16.3105 17.8575 15.2533 17.4044 14.2076C16.9512 13.162 16.7189 11.942 16.7189 10.5362C16.7189 8.94448 17.0558 7.44571 17.7413 6.03988C18.4268 4.63406 19.4027 3.42574 20.6691 2.42656C21.5754 1.70622 22.5629 1.13692 23.6318 0.730277C24.7007 0.323633 25.7812 0.114502 26.8617 0.114502C27.2684 0.114502 27.7215 0.137739 28.2211 0.184212L29.3829 0.451435L29.929 0.590856C30.4286 0.730277 30.9514 0.904553 31.4975 1.13692C31.6834 1.22987 31.8344 1.3112 31.9738 1.36929C32.1132 1.439 32.2178 1.49709 32.3107 1.54356C33.4029 2.18258 34.3323 2.94939 35.0992 3.85562C35.2851 4.08799 35.4361 4.30874 35.5755 4.54111L35.7149 4.68053C36.7141 6.22578 37.3531 8.13119 37.6204 10.3968V10.664C37.6668 10.9428 37.5971 11.1984 37.4228 11.4424C37.2369 11.698 37.0046 11.8375 36.7025 11.8839C36.412 11.9304 36.1448 11.8607 35.9241 11.6748C35.6917 11.4889 35.5639 11.2449 35.5174 10.9312V10.664C35.2851 8.80506 34.7738 7.25981 33.9489 6.03988L33.8792 5.83075C33.7863 5.69133 33.6701 5.54029 33.5423 5.3544C32.9498 4.62244 32.241 4.04152 31.4277 3.57678C31.3348 3.48384 31.2419 3.43736 31.1605 3.43736L30.8236 3.29794C30.3705 3.07719 29.9406 2.8913 29.534 2.75188L29.046 2.69379C28.8601 2.60084 28.6626 2.55436 28.4302 2.55436H28.163C27.7563 2.46142 27.3962 2.43818 27.0709 2.48465C26.1181 2.48465 25.2119 2.67055 24.3521 3.03072C23.4808 3.40251 22.8069 3.80915 22.3073 4.26227C21.2617 5.07556 20.4716 6.03988 19.9255 7.15525C19.3795 8.27061 19.1123 9.45569 19.1123 10.7337C19.1587 11.8258 19.3562 12.7902 19.728 13.6267C20.0882 14.4632 20.611 15.3811 21.2965 16.3803L33.9606 34.5514C34.2394 34.9581 34.6228 35.1672 35.1224 35.1672C35.5755 35.1672 35.9357 34.9581 36.2145 34.5514L49.0761 16.4383C49.7151 15.5321 50.2147 14.684 50.5749 13.8823C50.935 13.0922 51.1442 12.1976 51.1906 11.1984C51.2836 9.20009 50.784 7.45733 49.6919 5.95855C48.5997 4.45978 47.1242 3.43736 45.2653 2.8913C43.9524 2.5776 42.6744 2.54275 41.4544 2.78673C40.2345 3.04234 39.0959 3.54193 38.0502 4.32036C37.7598 4.51787 37.4693 4.57596 37.1789 4.52949C36.8768 4.48302 36.6444 4.33198 36.4585 4.08799C36.2726 3.84401 36.2029 3.56516 36.261 3.2747C36.3075 2.98425 36.4469 2.74026 36.6676 2.56598C37.9805 1.5668 39.4212 0.904553 40.9897 0.590856C42.5582 0.277159 44.1267 0.34687 45.7184 0.799987C48.1234 1.48547 50.0172 2.77511 51.3998 4.68053C52.7824 6.58595 53.433 8.79344 53.34 11.2798C53.2936 12.4997 53.038 13.6035 52.5848 14.5794C52.1317 15.5553 51.5624 16.5661 50.8769 17.6118L38.027 35.9224C37.6668 36.3755 37.2369 36.7357 36.7374 37.0145C36.2378 37.2934 35.6917 37.4212 35.0992 37.4212C34.4602 37.4212 33.8909 37.2817 33.3913 37.0145C32.9033 36.7357 32.4734 36.3755 32.1016 35.9224ZM68.8738 42.7308C69.4199 43.3233 69.7684 43.8926 69.9311 44.4387C70.0938 44.9847 70.1983 45.4843 70.2332 45.9374C69.9543 47.1225 69.234 48.1798 68.0489 49.1325C66.8638 50.0852 65.6207 50.8753 64.3078 51.5143C63.5875 51.8744 62.4256 52.5715 60.8339 53.594C59.2422 54.6164 57.511 55.7666 55.6289 57.033C53.7467 58.2994 51.9226 59.5077 50.145 60.6347C48.379 61.7733 46.9267 62.6563 45.7881 63.2837C45.335 63.5161 44.9051 63.7601 44.4984 64.0389C43.1391 64.8987 41.6287 65.7003 39.9673 66.4207C38.3058 67.141 36.3656 67.536 34.1465 67.5825C31.7879 67.629 29.0227 67.0132 25.8393 65.7468C20.8899 63.7484 16.7886 62.575 13.5122 62.2032C10.2474 61.843 7.42415 61.8663 5.07724 62.2729C4.79839 62.3194 4.54279 62.2497 4.2988 62.0754C4.0432 61.8895 3.90378 61.6571 3.85731 61.3551C3.81083 61.0646 3.88054 60.7858 4.06644 60.5418C4.24071 60.2978 4.49632 60.1467 4.81001 60.1003C7.30797 59.6472 10.2823 59.6007 13.7329 59.9608C17.1836 60.321 21.5173 61.5758 26.7339 63.702C30.7771 65.3402 34.0651 65.8398 36.6096 65.2007C39.154 64.5617 41.4196 63.5625 43.4179 62.2032C43.8246 61.8895 44.2545 61.6107 44.7076 61.3899C45.7997 60.7509 47.2055 59.8795 48.925 58.7642C50.6446 57.6488 52.4803 56.4521 54.4089 55.1508C56.3376 53.8612 58.1036 52.6877 59.7185 51.6421C61.3335 50.5964 62.5186 49.8761 63.297 49.4578C64.6564 48.8188 65.7601 48.1566 66.5966 47.4478C67.4331 46.7507 67.8979 46.1001 67.9908 45.5076C67.9908 45.4146 67.9676 45.2868 67.9211 45.1009C67.8746 44.915 67.7352 44.6943 67.5145 44.4154C66.2481 43.4627 64.5286 43.5673 62.3791 44.7175C60.2297 45.8794 58.6032 46.9482 57.511 47.9474C57.2787 48.1333 57.0115 48.2147 56.6978 48.1914C56.3841 48.1682 56.1285 48.0404 55.9426 47.8196C55.7567 47.5989 55.687 47.32 55.7102 47.0063C55.7334 46.6926 55.8728 46.4138 56.1168 46.1931C56.3608 45.9723 56.9534 45.5076 57.8828 44.8337C58.8123 44.1482 59.916 43.4743 61.1825 42.7889C61.043 42.603 60.7758 42.3822 60.3692 42.1034C59.9625 41.8245 59.4165 41.6735 58.731 41.627C57.6853 41.72 56.3841 42.2079 54.8156 43.0909C53.2471 43.9739 51.9226 44.8453 50.8305 45.7167C50.5981 45.9026 50.3773 45.9955 50.145 45.9955C49.7848 45.9955 49.4944 45.8561 49.2968 45.5889C49.0993 45.3217 49.0064 45.0312 49.0296 44.7408C49.0529 44.4503 49.2039 44.2063 49.4711 44.0204L50.4238 43.3349C50.8769 42.9748 51.4695 42.5449 52.1898 42.0453C51.7367 41.6386 51.2952 41.3947 50.8653 41.3366C50.4354 41.2669 50.0753 41.2901 49.7732 41.4063C49.4827 41.5225 49.3317 41.6038 49.3317 41.6503L40.4088 46.4835C41.5009 46.6229 42.5001 46.7159 43.4063 46.7507C44.3125 46.7972 45.0561 46.774 45.6487 46.681C47.0545 46.5881 48.1931 47.0877 49.0529 48.1798C49.4595 48.7723 49.7035 49.4346 49.7732 50.1549C49.8429 50.8753 49.7151 51.5608 49.4014 52.1998C49.2155 52.7458 48.774 53.3035 48.0769 53.8728C47.3682 54.4421 46.2761 54.7907 44.7773 54.9301C43.0113 55.116 40.9664 55.2205 38.6544 55.267C36.11 55.267 33.3796 55.0114 30.4518 54.4886C27.524 53.9658 24.4916 52.9085 21.3662 51.3284C21.0525 51.189 20.8434 50.9914 20.7504 50.7126C20.6575 50.4454 20.6924 50.1549 20.855 49.8645C21.0177 49.574 21.2268 49.3765 21.5056 49.2835C21.7729 49.1906 22.0517 49.2138 22.3189 49.3533C26.5829 51.4446 30.6609 52.5948 34.5415 52.8272C38.422 53.0595 41.7449 53.0363 44.5101 52.7574C46.0088 52.618 46.9615 52.1184 47.3682 51.2587C47.647 50.6197 47.6006 50.0155 47.2288 49.423C47.0893 49.2835 46.9267 49.1557 46.7176 49.0163C46.5084 48.8769 46.2296 48.8304 45.8694 48.8769C43.8246 49.0163 41.071 48.8188 37.5971 48.296C34.1232 47.7732 31.3464 47.0877 29.2551 46.2163C28.2559 45.7167 27.1057 44.9266 25.7812 43.8345C24.1895 42.5681 22.4351 41.4063 20.5065 40.3606C18.5778 39.315 16.4981 38.9083 14.279 39.1407C10.9213 39.7332 8.10964 40.593 5.83243 41.7316C3.56684 42.8702 2.35853 43.4976 2.23073 43.637C1.95189 43.8229 1.68467 43.8926 1.41744 43.8345C1.15022 43.788 0.917852 43.637 0.731958 43.3582C0.546063 43.0909 0.476353 42.8005 0.522826 42.51C0.5693 42.2196 0.708721 41.9756 0.92947 41.7897C1.15022 41.6038 2.48634 40.9183 4.91458 39.71C7.34282 38.5133 10.352 37.5838 13.9305 36.9564C16.5562 36.6427 18.9845 37.0842 21.1803 38.2809C23.3762 39.4892 25.3165 40.744 27.0011 42.0569C28.2675 43.1026 29.3132 43.8229 30.1265 44.2412C30.8468 44.5549 31.7879 44.8686 32.9149 45.159C34.0535 45.4611 35.2734 45.7167 36.5863 45.9374L47.891 39.7448C48.0769 39.6054 48.4487 39.4311 49.018 39.1988C49.5873 38.978 50.2495 38.9083 51.028 38.9896C52.1201 39.1755 53.0728 39.7797 53.8861 40.8254C54.6994 40.3722 55.5127 40.0121 56.3027 39.7332C57.0928 39.4544 57.8364 39.3033 58.5102 39.2569C59.9625 39.3498 61.043 39.7332 61.7401 40.4187C62.4372 41.1042 62.8671 41.5806 62.9949 41.8478C64.0406 41.4876 65.0746 41.3482 66.097 41.4411C67.1311 41.5225 68.0489 41.9523 68.8738 42.7308Z" fill="#8B99AB"/>
</svg>
