<svg width="71" height="70" viewBox="0 0 71 70" fill="none" xmlns="http://www.w3.org/2000/svg">
<path d="M35.7033 3.00838C31.6136 3.10133 28.2211 4.49554 25.5256 7.191C22.8185 9.89809 21.4243 13.279 21.343 17.3687C21.4359 21.4119 22.8301 24.7812 25.5256 27.4767C28.2211 30.1838 31.6136 31.5896 35.7033 31.729C39.7814 31.5896 43.1739 30.1722 45.881 27.4767C48.5765 24.7812 49.9707 21.4119 50.0637 17.3687C49.9707 13.279 48.5765 9.88647 45.881 7.191C43.1856 4.49554 39.793 3.10133 35.7033 3.00838ZM35.7033 34.4594C30.8933 34.32 26.885 32.6585 23.6899 29.4518C20.4948 26.2568 18.8218 22.2484 18.6824 17.4384C18.8218 12.6284 20.4832 8.62007 23.6899 5.42501C26.8966 2.22995 30.8933 0.556901 35.7033 0.41748C40.5133 0.556901 44.5217 2.21833 47.7167 5.42501C50.9118 8.62007 52.5848 12.6284 52.7243 17.4384C52.5848 22.2484 50.935 26.2568 47.7516 29.4518C44.5798 32.6585 40.5598 34.32 35.7033 34.4594ZM35.7033 39.5715C45.5906 39.7574 53.8164 42.0229 60.3808 46.3798C66.9336 50.7367 70.3145 56.1858 70.4888 62.7153C70.4888 63.5286 70.4191 64.4464 70.2797 65.434C70.0473 66.1195 69.5942 66.4797 68.9203 66.5261H68.6531C68.2929 66.4797 68.0141 66.317 67.8398 66.0149C67.6539 65.7245 67.5842 65.3875 67.6307 65.0274C67.8166 64.2141 67.9095 63.4356 67.9095 62.7153C67.6771 56.9061 64.5285 52.0729 58.4405 48.2155C52.3525 44.3582 44.754 42.3599 35.6336 42.2205C26.5132 42.3599 18.9031 44.3699 12.8267 48.2504C6.73867 52.1309 3.59008 56.9526 3.36933 62.7153C3.36933 63.4008 3.46228 64.1676 3.63656 65.0274C3.7295 65.3875 3.65979 65.7245 3.42743 66.0149C3.19506 66.317 2.9046 66.4913 2.54443 66.561C2.18426 66.6307 1.85894 66.5494 1.59172 66.3286C1.3245 66.1079 1.1386 65.8058 1.04566 65.4456C0.906235 64.4929 0.836525 63.5867 0.836525 62.7269C1.05727 56.1974 4.46146 50.7484 11.0491 46.3915C17.6367 42.0229 25.8509 39.7457 35.7033 39.5715ZM63.8198 63.9352C64.18 63.8423 64.5169 63.8655 64.8422 64.0049C65.1559 64.1444 65.3999 64.3883 65.5626 64.7485C65.7252 65.1087 65.7252 65.4572 65.5626 65.7709C65.3999 66.0846 65.1443 66.317 64.7842 66.4564C64.7377 66.5958 62.3443 67.1071 57.604 67.9901C52.8637 68.873 45.1839 69.3843 34.5647 69.5237C25.2119 69.4307 18.3454 69.0241 13.9769 68.3037C9.57356 67.5718 6.97104 66.9792 6.15775 66.5261C5.84405 66.3867 5.60007 66.166 5.44903 65.8406C5.28637 65.5269 5.27475 65.1784 5.41417 64.8182C5.55359 64.4581 5.76272 64.2025 6.0648 64.063C6.35526 63.9236 6.6922 63.9236 7.05237 64.063C7.55196 64.3767 9.91049 64.8996 14.128 65.6315C18.3454 66.3519 25.1306 66.7701 34.4834 66.8514C44.8354 66.712 52.3176 66.2241 56.9534 65.3875C61.5891 64.551 63.8663 64.0746 63.8198 63.9352Z" fill="#022B51"/>
</svg>
